<?xml version="1.0" encoding="utf-8"?>
<!-- Generator: Adobe Illustrator 27.5.0, SVG Export Plug-In . SVG Version: 6.00 Build 0)  -->
<svg version="1.1" id="Laag_1" xmlns="http://www.w3.org/2000/svg" xmlns:xlink="http://www.w3.org/1999/xlink" x="0px" y="0px"
	 viewBox="0 0 539.2 1025" style="enable-background:new 0 0 539.2 1025;" xml:space="preserve">
<style type="text/css">
	.st0{fill:#B9005F;}
	.st1{fill:#FCC680;}
	.st2{fill:#513426;}
	.st3{fill:#886047;}
	.st4{opacity:0.5;}
	.st5{fill:#FDCD81;}
</style>
<g>
	<g>
		<g>
			<path class="st0" d="M473.1,566.6v396.2c0,1.7-0.1,3.4-0.3,5c-0.2,1.6-0.6,3.3-1,4.8c-4.3,15.4-18.4,26.8-35.3,26.8H114.5
				c-12.1,0-22.8-5.9-29.5-14.9c-4.4-6.1-7.1-13.6-7.1-21.7V566.6c0-4.7,0.3-9.2,1-13.7c0.7-4.8,1.7-9.6,3-14.2
				c2.2-7.7,5.4-15.1,9.4-21.9c8.2-14.1,19.7-26,33.5-34.6c5.2-3.3,10.8-6.1,16.6-8.3c15.9,10,33.1,18.1,51.2,24.2
				c24.2,8.1,50.1,12.5,77,12.5c6.7,0,13.2-0.3,19.7-0.8c17.9-1.4,35.3-4.8,51.9-10c13.5-4.1,26.5-9.5,38.9-15.9
				c7.5-3.8,14.8-8.1,21.8-12.6c20.9,6.2,38.9,19,51.5,36c6.6,8.8,11.8,18.8,15.1,29.6c0.9,2.8,1.7,5.7,2.3,8.7
				c0.3,1.4,0.6,2.7,0.8,4.1C472.6,555.1,473.1,560.8,473.1,566.6z"/>
		</g>
	</g>
	<g>
		<g>
			<circle class="st1" cx="269.6" cy="268" r="242.5"/>
		</g>
	</g>
	<g>
		<g>
			<path class="st2" d="M504.5,208.2c-13.8-0.9-27.8-4.7-41-9.4c-27.5-9.8-55.3-23-83.8-19.2c-25.1,3.3-48.3,19.7-73.5,21.3
				c-41.1,2.5-77.8-34.5-118.9-37.1c-24.8-1.5-48.7,9.6-71.9,20.4c-23.2,10.8-47.3,21.7-72,19.7c-2.2-0.2-4.4-0.5-6.6-1
				c23.5-101.4,119-177.3,233.2-177.3C386.3,25.6,483.1,104.1,504.5,208.2z"/>
		</g>
	</g>
	<g>
		<g>
			<circle class="st3" cx="185.6" cy="289.2" r="47.2"/>
		</g>
	</g>
	<g>
		<g>
			<circle class="st3" cx="360.5" cy="289.2" r="47.2"/>
		</g>
	</g>
	<g>
		<g>
			<path class="st2" d="M303.4,30.4"/>
		</g>
	</g>
	<g>
		<g>
			<path d="M436.5,1013.4H114.5c-27.9,0-50.6-22.7-50.6-50.6V566.6c0-46.5,29.1-89,72.5-105.8l6.5-2.5l5.9,3.7
				c36.2,22.6,77.9,34.5,120.8,34.5c44.5,0,87.7-12.8,124.7-37l5.4-3.5l6.2,1.8c47.8,14.2,81.2,58.9,81.2,108.8v396.2
				C487.1,990.7,464.4,1013.4,436.5,1013.4z M140.3,489.5c-29.3,14.1-48.5,44.3-48.5,77v396.2c0,12.5,10.2,22.6,22.6,22.6h322.1
				c12.5,0,22.6-10.2,22.6-22.6V566.6c0-35.5-22.5-67.6-55.3-80c-40.3,24.8-86.6,37.9-134.2,37.9C224,524.5,179.5,512.4,140.3,489.5
				z"/>
		</g>
	</g>
	<g>
		<g>
			<path d="M269.6,524.5c-48.1,0-95-13.4-135.6-38.8C58.3,438.5,13.2,357.1,13.2,268c0-141.4,115-256.4,256.4-256.4
				s256.4,115,256.4,256.4c0,87-43.5,167.3-116.4,214.9C368,510.1,319.6,524.5,269.6,524.5z M269.6,39.6
				c-126,0-228.5,102.5-228.5,228.5c0,79.3,40.3,151.8,107.7,194c36.2,22.6,77.9,34.5,120.8,34.5c44.5,0,87.7-12.8,124.7-37
				c65-42.4,103.8-114,103.8-191.5C498.1,142.1,395.6,39.6,269.6,39.6z"/>
		</g>
	</g>
	<g class="st4">
		<path d="M473.1,679.6v46.7c-32.5-2.3-65.2-13.9-92.4-34.8c-20.1-15.5-36.1-34.2-51.7-52.3c-0.8-1-1.7-2-2.6-3
			c-12.3-14.3-24.2-27.9-37.7-39.1c-3.5-3-7.2-5.7-11-8.3c-23.1-15.9-50.9-25.2-79.3-27.7c-22.6-2.1-45.7,0.2-67.2,7
			c-12.4,3.9-24.4,9.4-35.3,16.3c-6.1,3.9-12.1,8.2-18,12.9v-30.7c0-4.7,0.3-9.2,1-13.7c0.7-4.8,1.7-9.6,3-14.2
			c5.8-3.2,11.8-6.1,17.9-8.6c15.2-6.5,31.2-11,47.5-13.6c60-9.9,124.2,5.5,171.3,44.9c9.3,7.7,17.7,16.1,25.6,24.7
			c7,7.5,13.6,15.2,20.1,22.7c4.6,5.4,9.2,10.6,13.7,15.7c9.9,11.1,19.9,21.4,31.1,30C427.9,669,450.6,677.4,473.1,679.6z"/>
	</g>
	<g class="st4">
		<path d="M473.1,566.6v30.5c-7.3-1-14.6-2.5-21.8-4.4c-1.2-0.3-2.5-0.7-3.7-1c-18.7-5.4-36.3-13.8-52.2-24.6
			c-24.3-16.5-44.5-38.8-58.5-65l4.3-2.3L378,480c0.7,1.3,1.4,2.5,2.1,3.8c15.4,26.6,40.7,48.1,69.4,59.3c3.6,1.4,7.3,2.7,11,3.8
			c3.6,1.1,7.4,2,11.1,2.7C472.6,555.1,473.1,560.8,473.1,566.6z"/>
	</g>
	<g class="st4">
		<path d="M456.6,744.2c5.5-0.8,11-1.9,16.5-3.3v47.9c-2,0.4-4,0.7-6.1,1.1c-33.4,5.4-68,3.3-100.3-7.2c-8.4-2.7-16.6-6-24.5-9.8
			c-20.4-9.8-38.4-22.5-55.9-34.8c-18.4-12.9-35.8-25.2-54.7-33.3c-31.1-13.5-67.1-12.9-95.9-1c-15,6.2-28.1,15.5-37.7,27.4
			c-1.1,1.4-2.1,2.7-3.1,4.2c-1.1,1.6-2.1,3.3-3.2,4.9c-4.5,7.5-8.3,15.7-12.2,24.5c-0.3,0.7-0.6,1.4-0.9,2.1
			c-0.3,0.6-0.5,1.2-0.8,1.7V698c-1.6-2.8-3.3-5.5-4.9-8.2c1.6-1.6,3.2-3.1,4.9-4.5c10-8.7,21.4-16,33.7-21.8
			c41.4-19.3,93.3-21.1,138.6-1.5c23.3,10.1,43.5,24.3,63,38.1c16.7,11.7,32.4,22.8,49.3,30.9C391.3,744.9,424.6,748.9,456.6,744.2z
			"/>
	</g>
	<g class="st4">
		<path d="M471.8,972.6c-4.3,15.4-18.4,26.8-35.3,26.8H332.8c-16.6-8.9-31.7-19.6-46.4-29.9c-17.9-12.6-34.8-24.5-53-32.6
			c-0.6-0.3-1.1-0.5-1.6-0.7c-6.2-2.7-12.7-4.8-19.2-6.4c-44.9-11-94.6,3.7-117.5,37c-3.7,5.4-7,11.5-10.1,17.8
			c-4.4-6.1-7.1-13.6-7.1-21.7v-46.2c17.1-14.9,38.1-25.6,61-31.5c28.5-7.5,59.7-7.6,89.3,0.5c6.6,1.9,13.2,4.1,19.6,6.8
			c0.8,0.3,1.6,0.7,2.4,1c23.3,10.1,43.5,24.3,63,38c6.8,4.8,13.5,9.5,20.2,13.9c9.6,6.4,19.1,12.2,29.1,17
			C395.9,978.4,435.2,981.3,471.8,972.6z"/>
	</g>
	<g class="st4">
		<path d="M473.1,845.5v48.7c-15.6,5.2-30.7,12.3-46.5,19.7c-20.1,9.4-40.8,19.1-63.6,25.5c-9.7,2.7-19.6,4.7-29.6,6
			c-33.1,4.3-67.4,1.2-100-8.5c-7-2-14-4.4-20.8-7.1c-27-10.5-52.2-25.6-73.7-44.6c-10.2-9-19.7-19-28-29.7
			c-10.9-13.9-19.7-28.5-28.1-42.8c-0.9-1.4-1.7-2.9-2.6-4.3c-0.8-1.4-1.6-2.7-2.3-4v-80.7c1.9,2,3.7,4.1,5.5,6.1
			c3,3.5,5.8,7,8.5,10.6c4.8,6.3,9.2,12.8,13.4,19.3c5.4,8.3,10.3,16.8,15.1,25.1c4,6.7,7.8,13.2,11.7,19.6
			c4.9,7.9,9.9,15.4,15.5,22.6c20.3,26,48.9,46.2,80.6,58.8c6.4,2.6,13,4.8,19.6,6.8c31,9,63.8,10.9,93.9,4.2
			c2.9-0.6,5.8-1.4,8.7-2.1c19.1-5.4,37.3-13.8,56.4-22.8C427.7,861.8,449.3,851.8,473.1,845.5z"/>
	</g>
	<g class="st4">
		<path d="M473.1,739.2v48.7c-2,0.7-4.1,1.4-6.1,2.1c-13.5,4.9-26.7,11.1-40.5,17.6c-20.1,9.4-40.8,19.1-63.6,25.5
			c-12.5,3.5-25.4,5.8-38.4,7c-36.8,3.4-74.8-2.3-110-15.7c-9.1-3.5-18.1-7.5-26.7-12c-26.4-13.7-50.3-31.9-69.7-54.2
			c-2.6-2.9-5-5.9-7.4-9c-4.6-5.9-8.8-11.9-12.8-18c-6.4-9.7-12.2-19.6-17.9-29.2c-0.8-1.3-1.6-2.7-2.3-4c-1.6-2.8-3.3-5.5-4.9-8.2
			c1.6-1.6,3.2-3.1,4.9-4.5v-68c1.9,2,3.7,4.1,5.5,6.1c11,12.8,19.9,26.5,28.2,40.1c3,4.9,5.9,9.9,8.8,14.8
			c5.2,8.8,10.2,17.3,15.4,25.4c3.8,5.8,7.6,11.4,11.8,16.7c15.7,20.2,36.5,36.9,59.8,49.3c8.3,4.4,17,8.2,25.8,11.6
			c38,14,79.9,17.2,117.1,6.8c5.5-1.5,11-3.4,16.4-5.4c13.3-4.9,26.4-11,40.1-17.4c15.9-7.5,32.3-15.1,49.8-21.1
			C462,742.3,467.5,740.7,473.1,739.2z"/>
	</g>
	<g class="st4">
		<path d="M473.1,566.6v17.6c-7.3,2.5-14.5,5.3-21.8,8.5c-8.2,3.5-16.3,7.3-24.7,11.2c-15.6,7.3-31.5,14.8-48.6,20.7
			c-4.9,1.8-9.9,3.4-15,4.8c-11.9,3.4-24.2,5.6-36.6,6.8c-69.9,6.9-144.5-19-195.2-68.1c-7.3-7-14.2-14.6-20.4-22.6
			c-3.9-5-7.6-10.2-11.1-15.4c-3-4.4-5.8-8.8-8.5-13.3c8.2-14.1,19.7-26,33.5-34.6c7.2,12.1,14.3,23.6,22.5,34.2
			c0.1,0.1,0.2,0.3,0.3,0.4c13.7,17.6,31.2,32.5,50.9,44.2c24.1,14.4,51.5,23.9,79.3,27.7c22.5,3.1,45.2,2.4,66.5-2.7
			c2.1-0.5,4.1-1,6.2-1.6c15.3-4.3,30-10.6,45.1-17.5c3.8-1.7,7.5-3.5,11.4-5.3c13.8-6.4,27.9-13,42.7-18.5c6.2-2.3,12.5-4.5,19-6.3
			c0.9,2.8,1.7,5.7,2.3,8.7c0.3,1.4,0.6,2.7,0.8,4.1C472.6,555.1,473.1,560.8,473.1,566.6z"/>
	</g>
	<g class="st4">
		<path d="M473.1,814v63.3c-36.8,23.5-85.8,31.2-131.4,19.3c-8.2-2.1-16.4-4.9-24.4-8.4c-23.3-10.1-43.5-24.3-63-38.1
			c-13.5-9.5-26.4-18.5-39.7-25.9c-3.2-1.8-6.3-3.5-9.6-5c-5.5-2.7-11.3-5-17.1-6.9c-17.8-6-36.8-8.6-55.8-8.1
			c-16.7,0.4-33.4,3.3-49.3,8.3c-1.6,0.5-3.3,1.1-4.9,1.6v-48.9c0.6-0.2,1.2-0.3,1.7-0.5c8.4-2.2,17-4,25.6-5.2
			c4.3-0.6,8.7-1.1,13-1.4c30.1-2.5,60.7,1.3,89.2,11.7c6.1,2.1,12,4.7,17.8,7.5c2.7,1.3,5.4,2.7,8,4.1c17.1,9,32.8,20,47.9,30.7
			c14.7,10.3,28.7,20.2,43.4,27.9c3.7,2,7.5,3.8,11.3,5.4c49.1,21.3,110.4,7.6,136.6-30.6C472.7,814.6,472.9,814.3,473.1,814z"/>
	</g>
	<g>
		<g>
			<g>
				<circle class="st5" cx="93" cy="671.1" r="50.9"/>
			</g>
		</g>
		<g>
			<g>
				<path d="M93,736c-35.8,0-64.8-29.1-64.8-64.8c0-35.8,29.1-64.8,64.8-64.8s64.8,29.1,64.8,64.8C157.8,706.9,128.7,736,93,736z
					 M93,634.3c-20.3,0-36.9,16.6-36.9,36.9c0,20.3,16.6,36.9,36.9,36.9s36.9-16.6,36.9-36.9C129.8,650.8,113.3,634.3,93,634.3z"/>
			</g>
		</g>
	</g>
	<g>
		<g>
			<g>
				<circle class="st5" cx="435.2" cy="671.1" r="50.9"/>
			</g>
		</g>
		<g>
			<g>
				<path d="M435.2,736c-35.8,0-64.8-29.1-64.8-64.8c0-35.8,29.1-64.8,64.8-64.8s64.8,29.1,64.8,64.8C500.1,706.9,471,736,435.2,736
					z M435.2,634.3c-20.3,0-36.9,16.6-36.9,36.9c0,20.3,16.6,36.9,36.9,36.9s36.9-16.6,36.9-36.9
					C472.1,650.8,455.6,634.3,435.2,634.3z"/>
			</g>
		</g>
	</g>
</g>
</svg>
