<?xml version="1.0" encoding="utf-8"?>
<!-- Generator: Adobe Illustrator 27.2.0, SVG Export Plug-In . SVG Version: 6.00 Build 0)  -->
<svg version="1.1" id="Laag_1" xmlns="http://www.w3.org/2000/svg" xmlns:xlink="http://www.w3.org/1999/xlink" x="0px" y="0px"
	 viewBox="0 0 156 156" style="enable-background:new 0 0 156 156;" xml:space="preserve">
<style type="text/css">
	.st0{fill:#FFFFFF;}
	.st1{fill:url(#SVGID_1_);}
</style>
<path class="st0" d="M133.4,155.8H22.6c-12.4,0-22.4-10-22.4-22.4V22.6c0-12.4,10-22.4,22.4-22.4h110.8c12.4,0,22.4,10,22.4,22.4
	v110.8C155.8,145.8,145.8,155.8,133.4,155.8z"/>
<radialGradient id="SVGID_1_" cx="78" cy="96" r="52.4218" gradientTransform="matrix(1 0 0 1 0 -18)" gradientUnits="userSpaceOnUse">
	<stop  offset="0.35" style="stop-color:#E5316C"/>
	<stop  offset="1" style="stop-color:#B6006C"/>
</radialGradient>
<path class="st1" d="M98.9,63.1L93.2,73c-1.2-3.6-3.6-6.9-7.2-8.9c-1.5-0.8-3-1.4-4.6-1.8L78,55.5l-3.4,6.8
	c-4.3,0.9-8.1,3.5-10.5,7.6L47.8,98.3c-2.7,4.6-8.6,6.2-13.2,3.5c-1.5-0.9-2.7-2.1-3.5-3.5L9.1,60.1c-1.4-2.3-0.5-5.2,1.7-6.6
	c2.3-1.4,5.2-0.5,6.6,1.7L39,92.6c0.2,0.4,0.8,0.4,0.9,0l15.8-27.5c7.1-12.3,22.8-16.4,35.1-9.4C94.1,57.7,96.8,60.2,98.9,63.1z
	 M146.9,95.8l-22-38.2c-0.8-1.4-2-2.6-3.5-3.5c-4.6-2.6-10.5-1.1-13.1,3.5L91.8,86c-2.3,4.1-6.2,6.7-10.5,7.6l-3.4,6.8l-3.4-6.8
	c-1.6-0.3-3.1-0.9-4.6-1.7c-3.5-2-6-5.3-7.2-8.9l-5.7,9.9c2.1,2.9,4.8,5.4,8.1,7.4c12.3,7.1,28,2.9,35.1-9.4L116,63.3
	c0.2-0.4,0.7-0.4,0.9,0l21.6,37.3c1.4,2.3,4.3,3.1,6.6,1.7S148.3,98.1,146.9,95.8z"/>
</svg>
