<?xml version="1.0" encoding="utf-8"?>
<!-- Generator: Adobe Illustrator 27.2.0, SVG Export Plug-In . SVG Version: 6.00 Build 0)  -->
<svg version="1.1" id="Laag_1" xmlns="http://www.w3.org/2000/svg" xmlns:xlink="http://www.w3.org/1999/xlink" x="0px" y="0px"
	 viewBox="0 0 876.7 241.2" style="enable-background:new 0 0 876.7 241.2;" xml:space="preserve">
<style type="text/css">
	.st0{fill:none;stroke:#000000;stroke-width:8;stroke-miterlimit:10;}
	.st1{opacity:0.5;}
	.st2{fill:#4D4D4D;}
	.st3{fill:#333333;}
	.st4{fill:#B9005F;}
	.st5{fill:#87004A;}
	.st6{fill:#FFFFFF;}
	.st7{fill:#CB946C;}
	.st8{fill:#513113;}
	.st9{fill:#0071BC;}
	.st10{fill:#4E4E4E;}
	.st11{fill:#583D0E;}
	.st12{fill:#231106;}
	.st13{fill:#0F0F0F;}
	.st14{fill:#1A1A1A;}
	.st15{fill:#724C15;}
	.st16{fill:#97989D;}
	.st17{fill:#848484;}
	.st18{fill:#999893;}
	.st19{fill:#D0D0CE;}
	.st20{fill:#A3A2A8;}
	.st21{fill:#61605B;}
	.st22{fill:#E6E6E6;}
	.st23{fill:#CCCCCC;}
	.st24{fill:#B2B2B2;}
	.st25{clip-path:url(#SVGID_00000032628653814916932330000016666877241732926398_);fill:#B6006C;}
	.st26{clip-path:url(#SVGID_00000032628653814916932330000016666877241732926398_);fill:#B7016C;}
	.st27{clip-path:url(#SVGID_00000032628653814916932330000016666877241732926398_);fill:#B8026C;}
	.st28{clip-path:url(#SVGID_00000032628653814916932330000016666877241732926398_);fill:#B9036C;}
	.st29{clip-path:url(#SVGID_00000032628653814916932330000016666877241732926398_);fill:#BA046C;}
	.st30{clip-path:url(#SVGID_00000032628653814916932330000016666877241732926398_);fill:#BB056C;}
	.st31{clip-path:url(#SVGID_00000032628653814916932330000016666877241732926398_);fill:#BC066C;}
	.st32{clip-path:url(#SVGID_00000032628653814916932330000016666877241732926398_);fill:#BD076C;}
	.st33{clip-path:url(#SVGID_00000032628653814916932330000016666877241732926398_);fill:#BE086C;}
	.st34{clip-path:url(#SVGID_00000032628653814916932330000016666877241732926398_);fill:#BF096C;}
	.st35{clip-path:url(#SVGID_00000032628653814916932330000016666877241732926398_);fill:#C00A6C;}
	.st36{clip-path:url(#SVGID_00000032628653814916932330000016666877241732926398_);fill:#C10B6C;}
	.st37{clip-path:url(#SVGID_00000032628653814916932330000016666877241732926398_);fill:#C20C6C;}
	.st38{clip-path:url(#SVGID_00000032628653814916932330000016666877241732926398_);fill:#C30D6C;}
	.st39{clip-path:url(#SVGID_00000032628653814916932330000016666877241732926398_);fill:#C40E6C;}
	.st40{clip-path:url(#SVGID_00000032628653814916932330000016666877241732926398_);fill:#C50F6C;}
	.st41{clip-path:url(#SVGID_00000032628653814916932330000016666877241732926398_);fill:#C6106C;}
	.st42{clip-path:url(#SVGID_00000032628653814916932330000016666877241732926398_);fill:#C7116C;}
	.st43{clip-path:url(#SVGID_00000032628653814916932330000016666877241732926398_);fill:#C8126C;}
	.st44{clip-path:url(#SVGID_00000032628653814916932330000016666877241732926398_);fill:#C9136C;}
	.st45{clip-path:url(#SVGID_00000032628653814916932330000016666877241732926398_);fill:#CA146C;}
	.st46{clip-path:url(#SVGID_00000032628653814916932330000016666877241732926398_);fill:#CB156C;}
	.st47{clip-path:url(#SVGID_00000032628653814916932330000016666877241732926398_);fill:#CC166C;}
	.st48{clip-path:url(#SVGID_00000032628653814916932330000016666877241732926398_);fill:#CD176C;}
	.st49{clip-path:url(#SVGID_00000032628653814916932330000016666877241732926398_);fill:#CE196C;}
	.st50{clip-path:url(#SVGID_00000032628653814916932330000016666877241732926398_);fill:#CE1A6C;}
	.st51{clip-path:url(#SVGID_00000032628653814916932330000016666877241732926398_);fill:#CF1B6C;}
	.st52{clip-path:url(#SVGID_00000032628653814916932330000016666877241732926398_);fill:#D01C6C;}
	.st53{clip-path:url(#SVGID_00000032628653814916932330000016666877241732926398_);fill:#D11D6C;}
	.st54{clip-path:url(#SVGID_00000032628653814916932330000016666877241732926398_);fill:#D21E6C;}
	.st55{clip-path:url(#SVGID_00000032628653814916932330000016666877241732926398_);fill:#D31F6C;}
	.st56{clip-path:url(#SVGID_00000032628653814916932330000016666877241732926398_);fill:#D4206C;}
	.st57{clip-path:url(#SVGID_00000032628653814916932330000016666877241732926398_);fill:#D5216C;}
	.st58{clip-path:url(#SVGID_00000032628653814916932330000016666877241732926398_);fill:#D6226C;}
	.st59{clip-path:url(#SVGID_00000032628653814916932330000016666877241732926398_);fill:#D7236C;}
	.st60{clip-path:url(#SVGID_00000032628653814916932330000016666877241732926398_);fill:#D8246C;}
	.st61{clip-path:url(#SVGID_00000032628653814916932330000016666877241732926398_);fill:#D9256C;}
	.st62{clip-path:url(#SVGID_00000032628653814916932330000016666877241732926398_);fill:#DA266C;}
	.st63{clip-path:url(#SVGID_00000032628653814916932330000016666877241732926398_);fill:#DB276C;}
	.st64{clip-path:url(#SVGID_00000032628653814916932330000016666877241732926398_);fill:#DC286C;}
	.st65{clip-path:url(#SVGID_00000032628653814916932330000016666877241732926398_);fill:#DD296C;}
	.st66{clip-path:url(#SVGID_00000032628653814916932330000016666877241732926398_);fill:#DE2A6C;}
	.st67{clip-path:url(#SVGID_00000032628653814916932330000016666877241732926398_);fill:#DF2B6C;}
	.st68{clip-path:url(#SVGID_00000032628653814916932330000016666877241732926398_);fill:#E02C6C;}
	.st69{clip-path:url(#SVGID_00000032628653814916932330000016666877241732926398_);fill:#E12D6C;}
	.st70{clip-path:url(#SVGID_00000032628653814916932330000016666877241732926398_);fill:#E22E6C;}
	.st71{clip-path:url(#SVGID_00000032628653814916932330000016666877241732926398_);fill:#E32F6C;}
	.st72{clip-path:url(#SVGID_00000032628653814916932330000016666877241732926398_);fill:#E4306C;}
	.st73{clip-path:url(#SVGID_00000032628653814916932330000016666877241732926398_);fill:#E5316C;}
	.st74{fill:#456DA0;}
	.st75{fill:#FF0000;}
</style>
<g id="bus">
	<g id="achtergrond_bus_00000082353396199261250420000005051572374250434746_">
		<path id="omtrek_-_achterkant_00000062886726485627231360000012356333834750302851_" class="st0" d="M670.8,214.6H303.2
			 M223.1,214.1c0,0-90.8,0-124.7,0c-33.8,0-72.3-8.3-77.5-8.3s-10.8-0.2-10.8-11.1c0-10.8,0-56.9,0-56.9c0-8.7-2.7-5.9-2.7-14.5
			c0,0,0.3-84.7,0.3-88.7s6.6-7.8,17.9-7.8h121.2v-3.2h-0.5c-0.5,0-0.8-0.4-0.8-0.8c0-0.5,0.4-0.8,0.8-0.8h74.9
			c0.5,0,0.8,0.4,0.8,0.8c0,0.5-0.4,0.8-0.8,0.8h-1v3.2h7.7v-6.6c0-1.7,1.4-3,3-3h23.8c1.7,0,3,1.4,3,3v6.6h178.2v-6.6
			c0-1.7,1.4-3,3-3h23.7c1.7,0,3,1.4,3,3v6.6h4.8v-3.2H470c-0.5,0-0.8-0.4-0.8-0.8c0-0.5,0.4-0.8,0.8-0.8H545c0.5,0,0.8,0.4,0.8,0.8
			c0,0.5-0.4,0.8-0.8,0.8h-1v3.2h26.2c-5.5,0-7-4.8-7-4.8s7.7-14.4,34.9-14.4h154.2c17.7,0,30.3,14.4,30.3,14.4s0.5,4.8-5.5,4.8
			h17.7c16.6,0,45.2-5.8,54-5.3c7.4,0.4,6.8,15.4,6.4,20.4v0.1c0,0,0,0,0,0c1.3,3.9,1,7.7-0.6,10.2v0c0,0,17.8,51.1,12.7,121.4
			c0,0.6,0,2.2,0,2.9c0.8,17.8,5.6,31.8-12.1,34.2s-38.7,3.4-102.7,3.4"/>
		<path id="achtergrond_bus_raam_00000012432270314267714530000007278214586983408043_" class="st1" d="M865.6,129.6H150v-83h687.9
			c0,0,14.2,1.2,19.2,16.2C862.1,77.8,865.6,129.6,865.6,129.6z"/>
		<path id="achterkant_muur" d="M770.3,135.5v65.2h68.5v-39.7l25.6,9.3l-2.5-48.1l-17.5-7.3l-5.6,10.5h-51.3V49.4l-21.9,0.1v75.5
			h-148V46.6H25.4v90.3h60.5V193c0,3.4,2.8,6.2,6.3,6.2h89.8c3.5,0,6.3-2.8,6.3-6.2v-56.1h202.1V193c0,0.6,0.1,1.2,0.3,1.8
			c0.1,0.4,0.3,0.8,0.5,1.1c0.3,0.5,0.7,1,1.1,1.4c0.3,0.3,0.6,0.5,0.9,0.8c0,0,0,0,0,0c0.7,0.4,1.4,0.8,2.3,0.9
			c0.2,0,0.4,0.1,0.6,0.1c0.2,0,0.4,0,0.6,0h89c3.5,0,6.3-2.8,6.3-6.2v-56.1h0l0-1L770.3,135.5z M208.1,111.7h-49.2V51.6h49.2V111.7
			z M322,110.6H218.3v-59H322V110.6z M329.9,125.1V51.2h104.3c2.1,0,4.1,0.9,5.5,2.5l1.2,1.4c0.4,0.4,1.1,0.5,1.5,0l1.5-1.6
			c1.4-1.5,3.3-2.3,5.3-2.3h162.4v73.9H329.9z"/>
		<g id="trappen_00000124856485936924779410000012210317990550031548_">
			<g id="trap_voorkant">
				<polygon id="linker_zijkant_00000088115710023188193500000010833428554628710032_" class="st2" points="760.3,202.1 
					774.5,193.9 774.5,184.2 786.5,177.4 786.3,168.8 760.3,168.8 				"/>
				<polygon id="rechter_zijkant_00000032613512788339657650000016244310821086821010_" class="st2" points="847.6,202.1 834,193.8 
					834,184.2 821.2,177.4 821.2,168.9 847.9,168.9 				"/>
				<polygon id="tweede_stap_00000116227230791557313680000003962549280162453672_" class="st3" points="834,184.2 774.5,184.2 
					786.5,177.4 821.2,177.4 				"/>
				<polygon id="eerste_opstapje_00000052797791273602208810000003501264661948862139_" class="st3" points="834,193.8 774.5,193.9 
					760.3,202.1 847.6,202.1 				"/>
				
					<rect id="gang_pad_00000181067866361328574770000010888885353874621098_" x="760.3" y="156.7" class="st3" width="78.8" height="12.1"/>
			</g>
			<g id="trap_midden">
				<polygon id="linker_zijkant_00000080185984658893251630000003892505994327494062_" class="st2" points="383.9,202.1 398,193.9 
					398,184.2 410,177.4 409.8,168.8 383.9,168.8 				"/>
				<polygon id="rechter_zijkant_00000027605359529305960000000012391731192454226827_" class="st2" points="500.5,202.1 
					486.9,193.8 486.9,184.2 474.1,177.4 474.1,168.9 500.8,168.9 				"/>
				<polygon id="tweede_stap_00000003823414940006863670000004542715927381851782_" class="st3" points="486.9,184.2 398,184.2 
					410,177.4 474.1,177.4 				"/>
				<polygon id="eerste_opstapje_00000017476562140345994030000010555474034660612758_" class="st3" points="486.9,193.8 398,193.9 
					383.9,202.1 500.5,202.1 				"/>
				
					<rect id="gang_pad_00000052826527700346649130000004402421293929545626_" x="383.9" y="156.7" class="st3" width="116.9" height="12.1"/>
			</g>
			<g id="trap_achterkant">
				<polygon id="linker_zijkant_00000071557064508263749600000006285433417377789060_" class="st2" points="78.8,202.1 92.9,193.9 
					92.9,184.2 104.9,177.4 104.7,168.8 78.8,168.8 				"/>
				<polygon id="rechter_zijkant" class="st2" points="195.4,202.1 181.8,193.8 181.8,184.2 169,177.4 169,168.9 195.7,168.9 				
					"/>
				<polygon id="tweede_stap" class="st3" points="181.8,184.2 92.9,184.2 104.9,177.4 169,177.4 				"/>
				<polygon id="eerste_opstapje" class="st3" points="181.8,193.8 92.9,193.9 78.8,202.1 195.4,202.1 				"/>
				
					<rect id="gang_pad_00000145774147253523490680000005324788199389057180_" x="78.8" y="156.7" class="st3" width="116.9" height="12.1"/>
			</g>
		</g>
		<g id="cocpit">
			<g id="bestuurder_00000170992594428122640510000004739997040311912120_">
				<path id="jas_00000000215829599744693840000012160553363767768510_" class="st4" d="M790.8,125.7c0,6.3,0,6.4,0,6.4h42
					c0,0,0-19.6-8.2-29.5c-1.8,1.1-3.9,1.7-6.1,1.7c-4.3,0-8-2.3-10.2-5.7c-3.9,0-7.5,2.1-9.1,3.4c-5.4,4.5-7.5,11.8-8.1,18.9
					c0,0.3-0.1,0.6-0.1,0.9c0,0.3,0,0.5-0.1,0.8c0,0.3,0,0.6,0,1c0,0.5,0,1,0,1.5C790.8,125.2,790.8,125.5,790.8,125.7z"/>
				<path id="jas_opening_00000087410452558599934360000005658675600524767661_" class="st5" d="M821,132.1h-1.3
					c0-15-1-19.1-3.4-23.1l1.1-0.7C820,112.5,821,116.8,821,132.1z"/>
				<path id="sholder_pad_00000046324154144376203400000013828087505542881717_" class="st6" d="M799.2,102c4.6,2.7,8.7,2.7,12.3,0
					c-1.3-0.9-2.3-2.1-3.2-3.4c0,0-2.2,0.2-2.8,0.3C802.8,99.3,801.6,100.1,799.2,102z"/>
				<path id="jas_v_nek_00000015313747554561179300000013265337824739712925_" class="st6" d="M815.7,108.5l-3-5.8
					c4.3,1.9,8.2,2.1,11.6,0l1.5,1.4l-2.9,4.8L815.7,108.5z"/>
				<path id="gezicht_00000054961233049781549790000002090004756153074618_" class="st7" d="M806.3,86.6v5.2c0,1,0.1,2.1,0.4,3.1
					c0.3,1.3,0.9,2.6,1.6,3.7c0.8,1.3,1.9,2.5,3.2,3.4c2,1.5,4.4,2.3,7,2.3c2.2,0,4.3-0.6,6.1-1.7c3-1.8,5.2-4.9,5.9-8.6L806.3,86.6
					z"/>
				<circle id="oog_00000092444510992568785140000008330263658046545331_" class="st8" cx="817" cy="93.1" r="2.4"/>
				<path id="hoed_00000124848867973323813980000015244992879432841356_" class="st4" d="M831.6,77.8c0,1.9-2.4,8.8-2.4,8.8h-23.1
					c0,0-2.6-1.8-2.6-4.7c0-2.9,0-4,0-4H831.6z"/>
				<polygon id="hoed_driehoek_00000010302544470787778490000015467498413334413198_" class="st6" points="827.1,85.3 829.7,79.7 
					824.6,79.7 				"/>
				<polygon id="das_00000062163870647194123490000000301116628873107075_" class="st9" points="819.1,104.2 815.7,108.5 
					819.1,114.3 822.8,108.9 				"/>
				<path id="outline" d="M835.4,92.1l-5.3-5.7v0c0.5-1.5,2.2-6.6,2.3-8.5v0c0-0.2-0.1-0.4-0.2-0.6c-0.2-0.1-0.4-0.2-0.6-0.2h-27.9
					c-0.4,0-0.8,0.4-0.8,0.8v3.9c0,2.9,2.3,4.8,2.8,5.2l0,0v4.7c0,2.2,0.5,4.3,1.5,6.2c-3.8,0.3-7,2.3-8.4,3.5
					c-4.8,4-7.6,10.6-8.4,19.4c0,0.3-0.1,0.6-0.1,0.8c0,0.3,0,0.5-0.1,0.8c0,0.3,0,0.6,0,1c0,0.5,0,1,0,1.5v7.8h43.3v-0.7
					c0-0.8-0.1-19.2-7.9-29.3c2.9-1.9,4.8-4.9,5.5-8.4c1.3,0.3,2.3,0.5,3.1,0.5c0.6,0,1.2-0.4,1.5-0.9
					C835.9,93.3,835.8,92.6,835.4,92.1z M804.1,81.9v-3.4h26.8c-0.3,1.8-1.5,5.6-2.1,7.5h-22.4C805.8,85.5,804.1,84,804.1,81.9z
					 M832.2,131.4h-40.7v-5.7c0-0.3,0-0.5,0-0.8c0-0.5,0-1,0-1.5c0-0.3,0-0.6,0-1c0-0.2,0-0.5,0-0.7c0-0.3,0-0.5,0.1-0.8
					c0.7-8.4,3.4-14.7,7.9-18.5c1.3-1.1,4.7-3.1,8.4-3.2c0,0.1,0.1,0.1,0.1,0.2c0.1,0.1,0.1,0.2,0.2,0.3c0.1,0.2,0.3,0.4,0.4,0.5
					c0.2,0.2,0.3,0.4,0.5,0.6l0,0c0.2,0.2,0.4,0.4,0.6,0.6c0.8,0.8,1.8,1.5,2.7,2c0.2,0.1,0.4,0.2,0.7,0.3c0.2,0.1,0.5,0.2,0.7,0.3
					c0.2,0.1,0.5,0.2,0.7,0.3c1,0.3,2,0.5,3,0.6c0,0,0,0,0,0c0.3,0,0.5,0,0.8,0c0.3,0,0.5,0,0.8,0c0.5,0,1-0.1,1.5-0.2
					c0,0,0.1,0,0.1,0c0.2,0,0.5-0.1,0.7-0.2c0.2,0,0.4-0.1,0.7-0.2c0.2,0,0.3-0.1,0.5-0.2c0.2,0,0.3-0.1,0.5-0.2
					c0.2-0.1,0.4-0.2,0.7-0.3c0.1-0.1,0.3-0.1,0.4-0.2c0,0,0,0,0.1,0C831.3,112.1,832.1,128,832.2,131.4z M824.3,102L824.3,102
					c-0.2,0.1-0.5,0.3-0.7,0.4c-1.6,0.8-3.3,1.2-5.1,1.2c-3.9,0-7.5-2-9.7-5.4l-0.2-0.3c-1.1-1.8-1.7-4-1.7-6.1v-1.4
					c11.1,0.2,10.3,4.2,22.7,4C829,97.6,827.1,100.4,824.3,102z"/>
				<path id="cap_00000163760739053466699940000006387680479829788071_" class="st10" d="M830.1,87.4h-10.2c0,0,6.8,4.1,10.2,4.1
					s3-0.9,2.2-1.7S830.1,87.4,830.1,87.4z"/>
			</g>
			<g id="bestuurder_stoel_00000008139262090611023820000007225379063917323932_">
				<path id="stoel_frame_00000050644609126098807310000011525938284704549507_" class="st11" d="M801.4,135.8h26.7
					c3.6,0,6.5,2.9,6.5,6.5v3.6h-42.1c0,0-0.9-38.5-2.2-48c-0.2-1.4,1.1-2.7,2.5-2.3C796.1,96.5,801.4,103.2,801.4,135.8z"/>
				<path id="stoel_achterkant_00000155828592591971098150000005578219515568596610_" class="st12" d="M792.7,95.5l-4.8-1.4
					c-2.4-0.5-4.8,0.5-4.8,3l0.9,45.5l8.4,3.2L792.7,95.5z"/>
			</g>
			<g id="bestuurder_zijkant_00000176039888480724040680000011628040484512904078_">
				<path id="stuur" d="M840.7,126.5h-5.5c0,0,0-3.2,0-7.5c0-1.3,0.7-2.6,1.4-3.8l-6.1,5.3c-0.4,0.4-1,0.3-1.4-0.1l-0.9-1.1
					c-0.4-0.4-0.3-1.1,0.1-1.4l12.5-10.4V126.5z"/>
				<path id="zijkant" class="st13" d="M835.6,156.7c0,0,0-4.6,0-14.8c0-13.6-2.4-16.6-42.9-16.6l-9.1-3.1h-13.3v34.4h13.9H835.6z"
					/>
				<path id="zijkant_vlak" class="st14" d="M788.6,133.4c0-3.2,2.6-5.7,5.7-5.7c33.1,0.3,39.3,3.6,39.3,11.8v9.3
					c0,2.6-2.1,4.8-4.8,4.8h-35.5c-2.6,0-4.8-2.1-4.8-4.8V133.4z"/>
			</g>
		</g>
	</g>
	<g id="voorkant_bus">
		<g id="stoelen_00000070117544130458125850000011440225580746111900_">
			<g id="stoel_00000008124580494086121330000011428707683563068319_">
				<path id="stoeol_achterkant" class="st12" d="M694.6,95.3l-4.1-1.1c-2-0.5-4,0.4-4,2.5l0.8,40.5l7,0.3L694.6,95.3z"/>
				<path id="stoel_zit_00000166668039299218773090000016491376263024581279_" class="st15" d="M701.8,124.8c0,0,21.7-3.9,26,5.6
					c4.3,9.5-26.7,2.2-26.7,2.2L701.8,124.8z"/>
				<path id="stoel_frame_00000151538025357163109340000003602169591370734776_" class="st11" d="M701.8,129.1h22.4
					c3,0,5.4,2.4,5.4,5.4v3h-35.4c0,0-0.7-32.3-1.8-40.3c-0.2-1.2,0.9-2.3,2.1-1.9C697.4,96.1,701.8,101.8,701.8,129.1z"/>
			</g>
			<g id="stoel_00000016042359081625765220000001322740342894730156_">
				<path id="stoel_achterkant_00000178910434415320630940000003419363574617227919_" class="st12" d="M652.5,117l-4.1-1.1
					c-2-0.5-4,0.4-4,2.5l0.8,36.2l7,4.7L652.5,117z"/>
				<path id="stoel_zit_00000013187080426588785050000013852488818884508580_" class="st15" d="M659.8,146.5c0,0,21.7-3.9,26,5.6
					c4.3,9.5-26.7,2.2-26.7,2.2L659.8,146.5z"/>
				<path id="stoel_frame_00000097472778231063844470000016187975925493611197_" class="st11" d="M659.8,150.8h22.4
					c3,0,5.4,2.4,5.4,5.4v3h-35.4c0,0-0.7-32.3-1.8-40.3c-0.2-1.2,0.9-2.3,2.1-1.9C655.4,117.8,659.8,123.5,659.8,150.8z"/>
			</g>
			<g id="stoel_00000137115649943390914330000004830681786634817414_">
				<path id="stoel_achterkant_00000000902772933077922060000017262910223054047872_" class="st12" d="M519.8,118.2l-4.1-1.1
					c-2-0.5-4,0.4-4,2.5l0.8,36.2l7,4.7L519.8,118.2z"/>
				<path id="stoel_zit_00000104703189277244708730000004539191559131477927_" class="st15" d="M527.1,147.7c0,0,21.7-3.9,26,5.6
					c4.3,9.5-26.7,2.2-26.7,2.2L527.1,147.7z"/>
				<path id="stoel_frame_00000068674703848019141000000003022530703359678637_" class="st11" d="M527.1,152h22.4
					c3,0,5.4,2.4,5.4,5.4v3h-35.4c0,0-0.7-32.3-1.8-40.3c-0.2-1.2,0.9-2.3,2.1-1.9C522.7,119,527.1,124.7,527.1,152z"/>
			</g>
			<g id="stoel_00000015351699480416673650000006759534143781957541_">
				<path id="stoel_achterkant_00000062172020394668864180000014639739239298558619_" class="st12" d="M580.6,118.2l-4.1-1.1
					c-2-0.5-4,0.4-4,2.5l0.8,36.2l7,4.7L580.6,118.2z"/>
				<path id="stoel_zit_00000176025830509820251510000018344832923990855840_" class="st15" d="M587.8,147.7c0,0,21.7-3.9,26,5.6
					c4.3,9.5-26.7,2.2-26.7,2.2L587.8,147.7z"/>
				<path id="stoel_frame_00000167365314715858379710000014158106879206849721_" class="st11" d="M587.9,152h22.4
					c3,0,5.4,2.4,5.4,5.4v3h-35.4c0,0-0.7-32.3-1.8-40.3c-0.2-1.2,0.9-2.3,2.1-1.9C583.5,119,587.9,124.7,587.9,152z"/>
			</g>
			<g id="stoel_00000030444627760535846720000006146932127189052599_">
				<path id="stoel_achterkant_00000086673079533168142050000005513175714287151778_" class="st12" d="M329.9,96.8l-3.9-1.1
					c-1.9-0.4-3.8,0.4-3.8,2.4l0.7,40.2l6.7-1.5L329.9,96.8z"/>
				<path id="stoel_zit_00000160173824347072732880000015902590585805668251_" class="st15" d="M336.8,124.8c0,0,20.5-3.7,24.6,5.3
					c4.1,9-25.3,2.1-25.3,2.1L336.8,124.8z"/>
				<path id="stoel_frame_00000150078541153457033210000012697796831276895140_" class="st11" d="M336.8,128.9H358
					c2.8,0,5.1,2.3,5.1,5.1v2.8h-33.5c0,0-0.7-30.6-1.8-38.2c-0.2-1.1,0.9-2.1,2-1.8C332.6,97.6,336.8,103,336.8,128.9z"/>
			</g>
			<g id="stoel_00000018940652215751667740000001439498698405411464_">
				<path id="stoel_achterkant_00000127041869997358086510000014283715930612478872_" class="st12" d="M272,96.8l-3.9-1.1
					c-1.9-0.4-3.8,0.4-3.8,2.4l0.7,40.2l6.7-1.5L272,96.8z"/>
				<path id="stoel_zit_00000028287797856209502140000004348252193635271067_" class="st15" d="M278.9,124.8c0,0,20.5-3.7,24.6,5.3
					c4.1,9-25.3,2.1-25.3,2.1L278.9,124.8z"/>
				<path id="stoel_frame_00000141420595088411488580000000304224571873377983_" class="st11" d="M279,128.9h21.2
					c2.8,0,5.1,2.3,5.1,5.1v2.8h-33.5c0,0-0.7-30.6-1.8-38.2c-0.2-1.1,0.9-2.1,2-1.8C274.8,97.6,279,103,279,128.9z"/>
			</g>
			<g id="stoel_00000116957121388102344900000004103601894603302819_">
				<path id="stoel_achterkant_00000031907893599445632260000017505282346836801424_" class="st12" d="M155.2,97.1l-3.9-1.1
					c-1.9-0.4-3.8,0.4-3.8,2.4l0.8,40.5l6.7-1.8L155.2,97.1z"/>
				<path id="stoel_zit_00000173881663397135732700000014462704817804241561_" class="st15" d="M162.1,125.1c0,0,20.5-3.7,24.6,5.3
					c4.1,9-25.3,2.1-25.3,2.1L162.1,125.1z"/>
				<path id="stoel_frame_00000052799442213910993480000000470205882732824469_" class="st11" d="M162.1,129.2h21.2
					c2.8,0,5.1,2.3,5.1,5.1v2.8H155c0,0-0.7-30.6-1.8-38.2c-0.2-1.1,0.9-2.1,2-1.8C157.9,97.9,162.1,103.3,162.1,129.2z"/>
			</g>
			<g id="stoel_00000013901933555466745060000010181402163640499094_">
				<path id="stoel_achterkant" class="st12" d="M210.8,97.1L207,96c-1.9-0.4-3.8,0.4-3.8,2.4l0.8,40.5l6.7-1.8L210.8,97.1z"/>
				<path id="stoel_zit" class="st15" d="M217.7,125.1c0,0,20.5-3.7,24.6,5.3c4.1,9-25.3,2.1-25.3,2.1L217.7,125.1z"/>
				<path id="stoel_frame" class="st11" d="M217.7,129.2H239c2.8,0,5.1,2.3,5.1,5.1v2.8h-33.5c0,0-0.7-30.6-1.8-38.2
					c-0.2-1.1,0.9-2.1,2-1.8C213.6,97.9,217.7,103.3,217.7,129.2z"/>
			</g>
			<g id="stoel_00000040567946395555064040000008756322360572627861_">
				<path id="stoel_achterkant_00000074405446640229971850000014708710777995925133_" class="st12" d="M36.3,117.1l-3.9-1.1
					c-1.9-0.4-3.8,0.4-3.8,2.4l0.8,40.5l6.7-1.8L36.3,117.1z"/>
				<path id="stoel_zit_00000032609886774656921980000017274854298364636545_" class="st15" d="M43.2,145.1c0,0,20.5-3.7,24.6,5.3
					s-25.3,2.1-25.3,2.1L43.2,145.1z"/>
				<path id="stoel_frame_00000042706490917860523860000005089384266602262207_" class="st11" d="M43.3,149.2h21.2
					c2.8,0,5.1,2.3,5.1,5.1v2.8H36.1c0,0-0.7-30.6-1.8-38.2c-0.2-1.1,0.9-2.1,2-1.8C39.1,117.9,43.3,123.3,43.3,149.2z"/>
			</g>
		</g>
		<g id="wielen_00000032607233896291289460000017330593851121138591_">
			<g id="wiel_links">
				<path id="wiel_achtergrond_00000067222309042777526810000011531027902593130140_" d="M309.5,153.4v47.8
					c-9.7-5.4-28.8-8.8-45.1-8.8c-17.9,0-33.8,4.1-43.4,10.5h-2.8v-49.4H309.5z"/>
				<g id="wiel_00000049181808341605003760000014072204266784105123_">
					<g id="band">
						<circle class="st3" cx="264.4" cy="197.5" r="36.2"/>
					</g>
					<g id="binnen_band">
						<circle id="buitenste_circle" class="st16" cx="264.4" cy="197.5" r="22.8"/>
						<circle id="binnen_circle" class="st17" cx="264.4" cy="197.5" r="17.7"/>
						<g id="wiel_houder">
							
								<circle id="buitenste_circle_00000046331019066903698750000014457746716217675936_" class="st18" cx="264.4" cy="197.5" r="7"/>
							<circle id="midde_circle" class="st19" cx="264.4" cy="197.5" r="4.4"/>
							<circle id="schroef" class="st20" cx="264.4" cy="197.5" r="1.9"/>
						</g>
						<g id="schroeven">
							<circle id="schroef_00000146466972539493891150000014366597773304129974_" class="st21" cx="264.4" cy="186.5" r="1.9"/>
							<circle id="schroef_00000140014284777868610700000013867401679560060846_" class="st21" cx="264.4" cy="208.5" r="1.9"/>
							<circle id="schroef_00000081610166908423365040000014601456929228209825_" class="st21" cx="275.4" cy="197.5" r="1.9"/>
							<circle id="schroef_00000057861376230457006980000000387226262592145285_" class="st21" cx="253.4" cy="197.5" r="1.9"/>
							<circle id="schroef_00000098197753477233052560000004148543643458612352_" class="st21" cx="256.4" cy="189.5" r="1.9"/>
							<circle id="schroef_00000155118960465440316000000010886398286714429587_" class="st21" cx="272.4" cy="189.5" r="1.9"/>
							<circle id="schroef_00000072267195757887820120000002624058917276524701_" class="st21" cx="256.4" cy="205.5" r="1.9"/>
							<circle id="schroef_00000152956684077653887890000018391849826972249731_" class="st21" cx="272.4" cy="205.5" r="1.9"/>
						</g>
					</g>
				</g>
			</g>
			<g id="wiel_rechts">
				<path id="wiel_achtergrond_00000121259181705713097830000004271386948972161436_" d="M757.6,153.4v47.8
					c-9.7-5.4-28.8-8.8-45.1-8.8c-17.9,0-33.8,4.1-43.4,10.5h-2.8v-49.4H757.6z"/>
				<g id="wiel_00000170975256537452832630000014379011620858479237_">
					<g id="band_00000080904911070304567580000016516632756956597677_">
						<circle class="st3" cx="712.5" cy="197.5" r="36.2"/>
					</g>
					<g id="binnen_band_00000131334699282485808660000007109434167536690058_">
						
							<circle id="buitenste_circle_00000129199138580398829140000008565432592931000999_" class="st16" cx="712.5" cy="197.5" r="22.8"/>
						
							<circle id="binnen_circle_00000091726920461627734530000003439968261449882292_" class="st17" cx="712.5" cy="197.5" r="17.7"/>
						<g id="wiel_houder_00000143602531107272560710000015224035399882516659_">
							
								<circle id="buitenste_circle_00000031203577376899818730000008765964368183127702_" class="st18" cx="712.5" cy="197.5" r="7"/>
							
								<circle id="midde_circle_00000028318802668840320830000004998587168471399584_" class="st19" cx="712.5" cy="197.5" r="4.4"/>
							<circle id="schroef_00000181800625322464080540000008131006264578103999_" class="st20" cx="712.5" cy="197.5" r="1.9"/>
						</g>
						<g id="schroeven_00000057868630124142004530000004276085159177237169_">
							<circle id="schroef_00000177464799193166880730000014305773037276435093_" class="st21" cx="712.5" cy="186.5" r="1.9"/>
							<circle id="schroef_00000002352896001229594840000009503926190225746610_" class="st21" cx="712.5" cy="208.5" r="1.9"/>
							<circle id="schroef_00000130605515305534793740000004534041175411986051_" class="st21" cx="723.5" cy="197.5" r="1.9"/>
							<circle id="schroef_00000054985749494923435770000009776206918988374933_" class="st21" cx="701.5" cy="197.5" r="1.9"/>
							<circle id="schroef_00000052788526378431491830000003904312766846970800_" class="st21" cx="704.5" cy="189.5" r="1.9"/>
							<circle id="schroef_00000073714826587649173010000002327661591826928034_" class="st21" cx="720.5" cy="189.5" r="1.9"/>
							<circle id="schroef_00000128486028154938569490000010223150762409386922_" class="st21" cx="704.5" cy="205.5" r="1.9"/>
							<circle id="schroef_00000072997757203556763240000017589072986961134520_" class="st21" cx="720.5" cy="205.5" r="1.9"/>
						</g>
					</g>
				</g>
			</g>
		</g>
		<g id="bus_dak">
			<path id="voorkant_board" class="st22" d="M855,43.5c0,0,2.7-21.5-6.2-22c-8.9-0.5-37.4,5.3-54,5.3c-92.7,0,41.8,4.1,49.4,12.3
				C851.7,47.1,855,43.5,855,43.5z"/>
			<path id="dak_00000158017145396563132160000007121422259774283435_" class="st6" d="M841.3,51.9v-6.1c0-3.1-2.5-5.7-5.7-5.7
				L33.2,39.8c-5.3,0-9.6,4.3-9.6,9.6l0,73H8.3c0,0-0.5-83.8-0.5-87.8s6.6-7.8,18-7.8s792.9,0,808.2,0c21.9,0,28.9,28.4,14.8,28.4
				l-4.3-0.1C842.6,55,841.3,53.6,841.3,51.9z"/>
			<g id="medium_box_00000148642039192757415120000002800390745213075843_">
				
					<rect id="onderkant_00000122687923732835193800000018007159755888257671_" x="146.9" y="23.6" class="st22" width="73.4" height="3.1"/>
				<path id="bovenkant_00000102521856425290233510000013931747918564546433_" class="st23" d="M145.6,22.7L145.6,22.7
					c0,0.5,0.4,0.8,0.8,0.8h74.9c0.5,0,0.8-0.4,0.8-0.8v0c0-0.5-0.4-0.8-0.8-0.8h-74.9C145.9,21.9,145.6,22.3,145.6,22.7z"/>
			</g>
			<g id="medium_box">
				
					<rect id="onderkant_00000140725402350164776040000002965895115627293838_" x="470.6" y="23.6" class="st22" width="73.4" height="3.1"/>
				<path id="bovenkant_00000145027574806239138360000011680251418774351513_" class="st23" d="M469.2,22.7L469.2,22.7
					c0,0.5,0.4,0.8,0.8,0.8H545c0.5,0,0.8-0.4,0.8-0.8v0c0-0.5-0.4-0.8-0.8-0.8H470C469.6,21.9,469.2,22.3,469.2,22.7z"/>
			</g>
			<g id="groote_box">
				<path id="onderkant" class="st23" d="M563.1,21.9c0,0,1.5,4.8,7,4.8c5.5,0,200.9,0,206.9,0s5.5-4.8,5.5-4.8H563.1z"/>
				<path id="bovenkant" class="st22" d="M563.1,21.9c0,0,7.7-14.4,34.9-14.4c27.2,0,136.5,0,154.2,0c17.7,0,30.3,14.4,30.3,14.4
					H563.1z"/>
				<path id="schaduw_lijn_00000176018846573076968190000015012788234564029102_" class="st24" d="M774.8,24.8H574.1
					c-3.3,0-5.6-0.6-6.6-1.7c-0.6-0.6-0.6-1.2-0.6-1.3l1,0.1c0,0.5,1.1,1.9,6.1,1.9h200.7c2.8,0,4-0.6,4.5-1.1
					c0.4-0.4,0.4-0.7,0.4-0.7l1,0c0,0.1,0,0.8-0.6,1.4C779.1,24.3,777.3,24.8,774.8,24.8z"/>
				<path id="light_line" class="st6" d="M575.5,17.9c64.5-1.3,129.8-1.3,194.3,0C705.2,19.2,640,19.2,575.5,17.9L575.5,17.9z"/>
			</g>
			<g id="small_box_00000086692110847407220260000016126572899457218438_">
				<path id="achtergrond_00000169520343441790969540000017541004448567936414_" class="st22" d="M435.9,26.7v-6.6c0-1.7,1.4-3,3-3
					h23.7c1.7,0,3,1.4,3,3v6.6H435.9z"/>
				<path id="schaduw_lijn_00000114070405884172751080000016278808939270266809_" class="st23" d="M464.7,23.3
					c-9,2.1-18.6,1.9-27.7,0.2C446.2,23.7,455.4,23.9,464.7,23.3L464.7,23.3z"/>
			</g>
			<g id="small_box">
				<path id="achtergrond_00000053539926755346330560000007652156685898179496_" class="st22" d="M228,26.7v-6.6c0-1.7,1.4-3,3-3
					h23.7c1.7,0,3,1.4,3,3v6.6H228z"/>
				<path id="schaduw_lijn_00000037659576661033001090000011786601615253950903_" class="st23" d="M256.7,23.3
					c-9,2.1-18.6,1.9-27.7,0.2C238.3,23.7,247.4,23.9,256.7,23.3L256.7,23.3z"/>
			</g>
			<path id="schaduw_lijn" class="st24" d="M848.7,55.1c7.9-0.3,8-10.2,4.9-15.5c-4.7-9.1-15.5-12.5-25.2-12.2
				c-10.1,0-20.2-0.2-30.2-0.7c10.1-0.5,20.2-0.7,30.2-0.7c10.1-0.5,21.6,3.5,26.1,13.2C857.6,44.8,857.1,55.4,848.7,55.1
				L848.7,55.1z"/>
		</g>
		<g id="bus_gegevens">
			<path id="achtergrond" class="st3" d="M755.8,51.6H640.7c-3.1,0-5.6,2.5-5.6,5.6v22.8c0-2.9,2.3-5.2,5.2-5.2h116
				c2.9,0,5.2,2.3,5.2,5.2V57.2C761.5,54.1,758.9,51.6,755.8,51.6z"/>
			<g id="bus_nummer">
				<path id="_x34_" class="st4" d="M656.6,64.9v2.1h-1.4v2.6h-2.8l0-2.6h-5.2v-1.9l3.5-8l2.4,0.9l-3,6.9h2.2l0.3-2.9h2.5v2.9H656.6
					z"/>
				<path id="_x39_" class="st4" d="M665,58.5c0.8,0.9,1.2,2,1.2,3.5c0,1.7-0.3,3-0.8,4.1c-0.5,1.1-1.4,2-2.5,2.6s-2.6,1.2-4.3,1.5
					l-0.6-2c1.6-0.4,2.8-0.9,3.6-1.5c0.8-0.6,1.3-1.4,1.6-2.5c-0.6,0.8-1.5,1.2-2.5,1.2c-0.6,0-1.2-0.2-1.8-0.5
					c-0.5-0.3-1-0.8-1.3-1.4c-0.3-0.6-0.5-1.3-0.5-2.1c0-0.8,0.2-1.6,0.6-2.2c0.4-0.6,0.9-1.1,1.6-1.5c0.7-0.4,1.5-0.5,2.3-0.5
					C663.1,57.2,664.3,57.6,665,58.5z M662.5,63.2c0.3-0.2,0.6-0.5,0.8-0.8c0-1.1-0.1-1.9-0.4-2.4c-0.3-0.5-0.7-0.7-1.3-0.7
					c-0.5,0-0.9,0.2-1.2,0.5c-0.3,0.4-0.4,0.9-0.4,1.5c0,0.7,0.1,1.3,0.4,1.6c0.3,0.3,0.6,0.5,1.1,0.5
					C661.8,63.5,662.2,63.4,662.5,63.2z"/>
			</g>
			<g id="adress">
				<path id="s" class="st4" d="M682.8,60c0.4,0.1,0.7,0.4,1.1,0.7l-0.8,0.9c-0.5-0.4-1-0.6-1.5-0.6c-0.3,0-0.5,0.1-0.7,0.2
					c-0.2,0.1-0.3,0.3-0.3,0.5c0,0.2,0,0.3,0.1,0.4c0.1,0.1,0.2,0.2,0.4,0.3s0.5,0.2,0.8,0.3c0.7,0.2,1.2,0.5,1.6,0.8
					c0.3,0.3,0.5,0.8,0.5,1.4c0,0.4-0.1,0.8-0.3,1.2c-0.2,0.3-0.5,0.6-1,0.8c-0.4,0.2-0.9,0.3-1.5,0.3s-1.1-0.1-1.5-0.3
					s-0.8-0.4-1.1-0.7l0.8-0.9c0.3,0.2,0.5,0.4,0.8,0.5c0.3,0.1,0.6,0.2,0.9,0.2c0.3,0,0.6-0.1,0.8-0.2c0.2-0.2,0.3-0.4,0.3-0.6
					c0-0.2,0-0.3-0.1-0.4s-0.2-0.2-0.4-0.3s-0.4-0.2-0.8-0.3c-0.8-0.2-1.3-0.5-1.7-0.9s-0.5-0.8-0.5-1.3c0-0.4,0.1-0.8,0.3-1.1
					c0.2-0.3,0.5-0.5,0.9-0.7c0.4-0.2,0.8-0.2,1.3-0.2C682,59.8,682.4,59.9,682.8,60z"/>
				<path id="t_00000080189123583252130940000015972062803931597497_" class="st4" d="M688.3,66.7c-0.2,0.1-0.4,0.2-0.7,0.3
					c-0.3,0.1-0.5,0.1-0.8,0.1c-1.2,0-1.8-0.7-1.8-1.9v-2.5h-0.8v-1.1h0.8v-1.2l1.6-0.2v1.3h1.2l-0.2,1.1h-1.1v2.5
					c0,0.2,0,0.4,0.1,0.5c0.1,0.1,0.2,0.2,0.4,0.2c0.2,0,0.4-0.1,0.6-0.2L688.3,66.7z"/>
				<path id="a" class="st4" d="M693.1,65.8c0.1,0.1,0.1,0.2,0.3,0.2l-0.3,1c-0.3,0-0.6-0.1-0.8-0.2c-0.2-0.1-0.4-0.3-0.5-0.6
					c-0.3,0.5-0.9,0.8-1.6,0.8c-0.5,0-1-0.2-1.3-0.5c-0.3-0.3-0.5-0.7-0.5-1.2c0-0.6,0.2-1,0.6-1.3s1.1-0.5,1.9-0.5h0.5v-0.2
					c0-0.3-0.1-0.5-0.2-0.7c-0.1-0.1-0.4-0.2-0.7-0.2c-0.2,0-0.4,0-0.6,0.1c-0.2,0.1-0.5,0.1-0.8,0.2l-0.4-1c0.3-0.1,0.7-0.2,1-0.3
					s0.7-0.1,1-0.1c0.8,0,1.3,0.2,1.7,0.5c0.4,0.3,0.5,0.8,0.5,1.4v2.1C693,65.6,693,65.7,693.1,65.8z M691.4,65.5v-0.9H691
					c-0.4,0-0.6,0.1-0.8,0.2c-0.2,0.1-0.3,0.3-0.3,0.6c0,0.2,0.1,0.4,0.2,0.5c0.1,0.1,0.3,0.2,0.5,0.2
					C690.9,66,691.2,65.8,691.4,65.5z"/>
				<path id="t" class="st4" d="M697.6,66.7c-0.2,0.1-0.4,0.2-0.7,0.3c-0.3,0.1-0.5,0.1-0.8,0.1c-1.2,0-1.8-0.7-1.8-1.9v-2.5h-0.8
					v-1.1h0.8v-1.2l1.6-0.2v1.3h1.2l-0.2,1.1H696v2.5c0,0.2,0,0.4,0.1,0.5c0.1,0.1,0.2,0.2,0.4,0.2c0.2,0,0.4-0.1,0.6-0.2
					L697.6,66.7z"/>
				<path id="i" class="st4" d="M699.6,59c0.2,0.2,0.3,0.4,0.3,0.7c0,0.3-0.1,0.5-0.3,0.7c-0.2,0.2-0.4,0.3-0.7,0.3
					c-0.3,0-0.5-0.1-0.7-0.3c-0.2-0.2-0.3-0.4-0.3-0.7c0-0.3,0.1-0.5,0.3-0.7c0.2-0.2,0.4-0.3,0.7-0.3
					C699.2,58.8,699.4,58.8,699.6,59z M699.7,61.6v5.4h-1.6v-5.4H699.7z"/>
				<path id="o_00000119095644400100476370000013481592115033291426_" class="st4" d="M705.3,62.2c0.5,0.5,0.7,1.2,0.7,2.1
					c0,0.6-0.1,1.1-0.3,1.5c-0.2,0.4-0.5,0.8-0.9,1c-0.4,0.2-0.9,0.4-1.4,0.4c-0.8,0-1.5-0.3-1.9-0.8s-0.7-1.2-0.7-2.1
					c0-0.6,0.1-1.1,0.3-1.5c0.2-0.4,0.5-0.8,0.9-1c0.4-0.2,0.9-0.4,1.4-0.4C704.1,61.4,704.8,61.7,705.3,62.2z M702.6,63
					c-0.2,0.3-0.2,0.7-0.2,1.3c0,0.6,0.1,1,0.2,1.3s0.4,0.4,0.7,0.4c0.3,0,0.6-0.1,0.7-0.4c0.2-0.3,0.2-0.7,0.2-1.3
					c0-0.6-0.1-1-0.2-1.3s-0.4-0.4-0.7-0.4C703,62.6,702.8,62.7,702.6,63z"/>
				<path id="n_00000103261364663138134770000001895366599000424093_" class="st4" d="M711.1,61.8c0.3,0.3,0.4,0.7,0.4,1.2v3.9h-1.6
					v-3.6c0-0.3,0-0.5-0.1-0.6c-0.1-0.1-0.2-0.2-0.4-0.2c-0.3,0-0.6,0.2-0.9,0.7v3.7h-1.6v-5.4h1.4l0.1,0.6c0.2-0.3,0.5-0.5,0.7-0.6
					s0.6-0.2,0.9-0.2C710.5,61.4,710.9,61.6,711.1,61.8z"/>
				<path id="n" class="st4" d="M719.3,61.8c0.3,0.3,0.4,0.7,0.4,1.2v3.9h-1.6v-3.6c0-0.3,0-0.5-0.1-0.6c-0.1-0.1-0.2-0.2-0.4-0.2
					c-0.3,0-0.6,0.2-0.9,0.7v3.7h-1.6v-5.4h1.4l0.1,0.6c0.2-0.3,0.5-0.5,0.7-0.6s0.6-0.2,0.9-0.2C718.7,61.4,719.1,61.6,719.3,61.8z
					"/>
				<path id="o_00000155830416727524914000000015443422970149745837_" class="st4" d="M725.2,62.2c0.5,0.5,0.7,1.2,0.7,2.1
					c0,0.6-0.1,1.1-0.3,1.5c-0.2,0.4-0.5,0.8-0.9,1c-0.4,0.2-0.9,0.4-1.4,0.4c-0.8,0-1.5-0.3-1.9-0.8s-0.7-1.2-0.7-2.1
					c0-0.6,0.1-1.1,0.3-1.5c0.2-0.4,0.5-0.8,0.9-1c0.4-0.2,0.9-0.4,1.4-0.4C724.1,61.4,724.7,61.7,725.2,62.2z M722.5,63
					c-0.2,0.3-0.2,0.7-0.2,1.3c0,0.6,0.1,1,0.2,1.3s0.4,0.4,0.7,0.4c0.3,0,0.6-0.1,0.7-0.4c0.2-0.3,0.2-0.7,0.2-1.3
					c0-0.6-0.1-1-0.2-1.3s-0.4-0.4-0.7-0.4C722.9,62.6,722.7,62.7,722.5,63z"/>
				<path id="o" class="st4" d="M731.1,62.2c0.5,0.5,0.7,1.2,0.7,2.1c0,0.6-0.1,1.1-0.3,1.5c-0.2,0.4-0.5,0.8-0.9,1
					c-0.4,0.2-0.9,0.4-1.4,0.4c-0.8,0-1.5-0.3-1.9-0.8s-0.7-1.2-0.7-2.1c0-0.6,0.1-1.1,0.3-1.5c0.2-0.4,0.5-0.8,0.9-1
					c0.4-0.2,0.9-0.4,1.4-0.4C730,61.4,730.6,61.7,731.1,62.2z M728.4,63c-0.2,0.3-0.2,0.7-0.2,1.3c0,0.6,0.1,1,0.2,1.3
					s0.4,0.4,0.7,0.4c0.3,0,0.6-0.1,0.7-0.4c0.2-0.3,0.2-0.7,0.2-1.3c0-0.6-0.1-1-0.2-1.3s-0.4-0.4-0.7-0.4
					C728.8,62.6,728.6,62.7,728.4,63z"/>
				<path id="r" class="st4" d="M736.2,61.5l-0.3,1.5c-0.2,0-0.4-0.1-0.5-0.1c-0.3,0-0.6,0.1-0.7,0.3s-0.3,0.5-0.4,1v2.7h-1.6v-5.4
					h1.4l0.1,1c0.1-0.4,0.3-0.7,0.5-0.9c0.2-0.2,0.5-0.3,0.8-0.3C735.8,61.4,736,61.5,736.2,61.5z"/>
				<path id="d" class="st4" d="M741.3,59.5v7.5h-1.4l-0.1-0.6c-0.4,0.5-0.9,0.8-1.5,0.8c-0.7,0-1.2-0.3-1.5-0.8
					c-0.3-0.5-0.5-1.2-0.5-2.1c0-0.5,0.1-1,0.3-1.5c0.2-0.4,0.4-0.8,0.8-1c0.3-0.2,0.7-0.4,1.1-0.4c0.5,0,0.9,0.2,1.3,0.5v-2.6
					L741.3,59.5z M739.7,65.3V63c-0.1-0.2-0.3-0.3-0.4-0.3c-0.1-0.1-0.3-0.1-0.5-0.1c-0.3,0-0.5,0.1-0.7,0.4
					c-0.2,0.3-0.3,0.7-0.3,1.3c0,0.6,0.1,1.1,0.2,1.3s0.4,0.4,0.7,0.4C739.1,65.9,739.4,65.7,739.7,65.3z"/>
			</g>
		</g>
		<path id="grijse_omtrek_raam" class="st3" d="M855.3,51.2l-10.6,2.7c-1.5,0.4-3-0.8-3-2.3v-6.4c0-2.9-2.4-5.3-5.3-5.3H28.6
			c-2.8,0-5,2.2-5,5v92.1h62.3V58.3c0-2.9,2.7-6.7,5.6-6.7l91.1,0c2.9,0,5.8,3.8,5.8,6.7v78.6h15.1v-0.7h-1.5
			c-2.8,0-5.1-2.5-5.1-5.6V57.2c0-3.1,2.3-5.6,5.1-5.6h103.7c2.8,0,5.1,2.5,5.1,5.6v73.3c0,3.1-2.3,5.6-5.1,5.6h-1.3v0.7h21.2v-0.7
			h-2.4c-0.8,0-1.5-0.2-2.2-0.7c-0.5-0.3-1-0.8-1.3-1.3c-0.3-0.6-0.5-1.3-0.5-2V55.6c0-1.7,1.1-3.2,2.7-3.8c0.4-0.2,0.9-0.2,1.3-0.2
			h55.5c2.2,0,4,1.8,4,4v76.6c0,2.2-1.8,4-4,4h-2.2v0.7h14V57.3c0-2.9,2.8-5.7,5.7-5.7h90.4c2.9,0,6.6,2.8,6.6,5.7v79.6h12.6v-0.7
			h-1.3c-3.1,0-5.6-2.5-5.6-5.6V57.2c0-3.1,2.5-5.6,5.6-5.6h115.2c3.1,0,5.6,2.5,5.6,5.6v73.3c0,3.1-2.5,5.6-5.6,5.6h-2.8v0.7h26.1
			l0-0.7h-2.1c-1.4,0-2.7-0.5-3.7-1.4c0,0,0,0,0,0c-1.2-1-1.9-2.5-1.9-4.2V57.2c0-3.1,2.5-5.6,5.6-5.6h115.2c3.1,0,5.6,2.5,5.6,5.6
			v73.3c0,0.6-0.1,1.2-0.3,1.8c-0.7,2-2.5,3.6-4.7,3.8c-0.2,0-0.5,0.1-0.7,0.1H755v0.7h15.2V60.8c0-2,1-3.8,2.8-5.1
			c0,0,0.4-0.3,0.6-0.4c1.7-1.1,3.9-1.8,6.3-1.8h49.6c5.3,0,9.6,3.3,9.6,7.3v107.1c2.3,1,12.9,4.1,26.3,8.1c0.9,0.3,1.6,0.8,2.1,1.6
			C872.7,104.2,855.3,51.2,855.3,51.2z M78.2,132.6c0,2-1.6,3.6-3.6,3.6H30.8c-2,0-3.6-1.6-3.6-3.6V55.2c0-2,1.6-3.6,3.6-3.6h43.8
			c2,0,3.6,1.6,3.6,3.6V132.6z M843.9,158.1V58.7h9.2c4.6,11,10,58.7,11.4,106.8L843.9,158.1z"/>
		<g id="onderkant_bus">
			<g id="wit_onderkant_00000029753117750965756520000000325622221914418071_">
				<g id="wit_onderkant_00000080167828564412100310000010754089883268607156_">
					<g>
						<path class="st6" d="M85.9,136.9v48.3l-0.2-0.2H30c-0.2,0-0.4,0-0.6,0c-3.1-0.3-5.5-2.8-5.8-5.8c0-0.2,0-0.4,0-0.6v-41.7H85.9
							z"/>
					</g>
					<g>
						<path class="st6" d="M390.4,136.9v50.8h-85.6c-3.7-19-20.4-33.4-40.5-33.4s-36.8,14.3-40.5,33.4h-35.4v-50.8H390.4z"/>
					</g>
					<g>
						<path class="st6" d="M769.8,136.9v48h-18.1c-5.3-16.9-21.2-29.2-39.8-29.2c-19.7,0-36.2,13.7-40.6,32H492v-50.8H769.8z"/>
					</g>
				</g>
				<g id="logo_00000063629071161137213260000012198652157866376604_">
					<g>
						<g>
							<path d="M583.3,175.9c-0.3,0-0.5-0.2-0.5-0.5v-24.5c0-0.3,0.2-0.5,0.5-0.5c0.3,0,0.5,0.2,0.5,0.5v24.5
								C583.8,175.7,583.6,175.9,583.3,175.9z"/>
						</g>
					</g>
					<g>
						<g>
							<defs>
								<path id="SVGID_1_" d="M553.2,155.6l-2.9,5c-0.6-1.8-1.8-3.5-3.7-4.5c-0.8-0.4-1.5-0.7-2.3-0.9l-1.7-3.4l-1.7,3.4
									c-2.2,0.5-4.1,1.8-5.3,3.9l-8.3,14.4c-1.3,2.3-4.3,3.1-6.7,1.8c-0.8-0.4-1.4-1.1-1.8-1.8l-11.2-19.4
									c-0.7-1.2-0.3-2.7,0.9-3.3c1.2-0.7,2.7-0.3,3.3,0.9l10.9,19c0.1,0.2,0.4,0.2,0.5,0l8.1-14c3.6-6.2,11.6-8.4,17.8-4.8
									C550.8,152.9,552.2,154.2,553.2,155.6z M577.6,172.2l-11.2-19.4c-0.4-0.7-1-1.3-1.8-1.8c-2.3-1.3-5.3-0.5-6.7,1.8l-8.3,14.4
									c-1.2,2.1-3.2,3.4-5.3,3.9l-1.7,3.5l-1.7-3.4c-0.8-0.2-1.6-0.5-2.3-0.9c-1.8-1-3.1-2.7-3.7-4.5l-2.9,5
									c1.1,1.5,2.4,2.8,4.1,3.7c6.2,3.6,14.2,1.5,17.8-4.8l8.1-14c0.1-0.2,0.4-0.2,0.5,0l10.9,19c0.7,1.2,2.2,1.6,3.3,0.9
									C577.9,174.9,578.3,173.4,577.6,172.2z"/>
							</defs>
							<clipPath id="SVGID_00000028286225655143554150000015238372613252029609_">
								<use xlink:href="#SVGID_1_"  style="overflow:visible;"/>
							</clipPath>
							
								<rect x="532" y="149.8" style="clip-path:url(#SVGID_00000028286225655143554150000015238372613252029609_);fill:#B6006C;" width="46.3" height="28.3"/>
							<path style="clip-path:url(#SVGID_00000028286225655143554150000015238372613252029609_);fill:#B6006C;" d="M569.2,163.2
								c0-7.3-3-14-7.8-18.8v4.4H531v30.3h30.4v2.9C566.3,177.2,569.2,170.5,569.2,163.2z"/>
							<path style="clip-path:url(#SVGID_00000028286225655143554150000015238372613252029609_);fill:#B7016C;" d="M568.9,163.2
								c0-7.2-2.9-13.8-7.7-18.6v4.1H531v30.3h30.2v2.7C565.9,177,568.9,170.4,568.9,163.2z"/>
							<path style="clip-path:url(#SVGID_00000028286225655143554150000015238372613252029609_);fill:#B8026C;" d="M568.5,163.2
								c0-7.2-2.9-13.6-7.6-18.3v3.9H531v30.3h29.9v2.4C565.6,176.8,568.5,170.3,568.5,163.2z"/>
							<path style="clip-path:url(#SVGID_00000028286225655143554150000015238372613252029609_);fill:#B9036C;" d="M568.2,163.2
								c0-7.1-2.9-13.4-7.5-18.1v3.6H531v30.3h29.7v2.2C565.3,176.6,568.2,170.2,568.2,163.2z"/>
							<path style="clip-path:url(#SVGID_00000028286225655143554150000015238372613252029609_);fill:#BA046C;" d="M567.8,163.2
								c0-7-2.8-13.3-7.4-17.8v3.4H531v30.3h29.4v1.9C565,176.4,567.8,170.1,567.8,163.2z"/>
							<path style="clip-path:url(#SVGID_00000028286225655143554150000015238372613252029609_);fill:#BB056C;" d="M567.5,163.2
								c0-6.9-2.8-13.1-7.3-17.6v3.1H531v30.3h29.2v1.7C564.7,176.2,567.5,170,567.5,163.2z"/>
							<path style="clip-path:url(#SVGID_00000028286225655143554150000015238372613252029609_);fill:#BC066C;" d="M567.1,163.2
								c0-6.8-2.7-12.9-7.2-17.3v2.9H531v30.3h28.9v1.4C564.4,176.1,567.1,169.9,567.1,163.2z"/>
							<path style="clip-path:url(#SVGID_00000028286225655143554150000015238372613252029609_);fill:#BD076C;" d="M566.8,163.2
								c0-6.7-2.7-12.7-7.1-17.1v2.6H531v30.3h28.7v1.2C564.1,175.9,566.8,169.8,566.8,163.2z"/>
							<path style="clip-path:url(#SVGID_00000028286225655143554150000015238372613252029609_);fill:#BE086C;" d="M566.4,163.2
								c0-6.6-2.7-12.5-7-16.8v2.4H531v30.3h28.4v0.9C563.7,175.7,566.4,169.7,566.4,163.2z"/>
							<path style="clip-path:url(#SVGID_00000028286225655143554150000015238372613252029609_);fill:#BF096C;" d="M566.1,163.2
								c0-6.5-2.6-12.3-6.9-16.6v2.1H531v30.3h28.2v0.7C563.4,175.5,566.1,169.6,566.1,163.2z"/>
							<path style="clip-path:url(#SVGID_00000028286225655143554150000015238372613252029609_);fill:#C00A6C;" d="M565.7,163.2
								c0-6.4-2.6-12.1-6.8-16.3v1.9H531v30.3h27.9v0.4C563.1,175.3,565.7,169.6,565.7,163.2z"/>
							<path style="clip-path:url(#SVGID_00000028286225655143554150000015238372613252029609_);fill:#C10B6C;" d="M565.3,163.2
								c0-6.3-2.5-12-6.7-16.1v1.6H531v30.3h11.6v6.9C555.2,185.9,565.3,175.7,565.3,163.2z"/>
							<path style="clip-path:url(#SVGID_00000028286225655143554150000015238372613252029609_);fill:#C20C6C;" d="M565,163.2
								c0-6.2-2.5-11.8-6.6-15.8v1.4H531V179h-4.2c4,4,9.6,6.6,15.8,6.6C555,185.6,565,175.5,565,163.2z"/>
							<path style="clip-path:url(#SVGID_00000028286225655143554150000015238372613252029609_);fill:#C30D6C;" d="M564.6,163.2
								c0-6.1-2.5-11.6-6.4-15.6v1.1H531v30h-4c4,4,9.5,6.4,15.6,6.4C554.8,185.2,564.6,175.3,564.6,163.2z"/>
							<path style="clip-path:url(#SVGID_00000028286225655143554150000015238372613252029609_);fill:#C40E6C;" d="M564.3,163.2
								c0-6-2.4-11.4-6.3-15.3v0.9H531v29.7h-3.7c3.9,3.9,9.3,6.3,15.3,6.3C554.6,184.8,564.3,175.1,564.3,163.2z"/>
							<path style="clip-path:url(#SVGID_00000028286225655143554150000015238372613252029609_);fill:#C50F6C;" d="M563.9,163.2
								c0-11.8-9.5-21.3-21.3-21.3v6.9H531v29.5h-3.5c3.9,3.9,9.2,6.2,15.1,6.2C554.4,184.5,563.9,174.9,563.9,163.2z"/>
							<path style="clip-path:url(#SVGID_00000028286225655143554150000015238372613252029609_);fill:#C6106C;" d="M563.6,163.2
								c0-11.6-9.4-21-21-21v6.5H531V178h-3.2c3.8,3.8,9,6.1,14.8,6.1C554.2,184.1,563.6,174.8,563.6,163.2z"/>
							<path style="clip-path:url(#SVGID_00000028286225655143554150000015238372613252029609_);fill:#C7116C;" d="M563.2,163.2
								c0-11.4-9.2-20.6-20.6-20.6v6.2H531v29h-3c3.7,3.7,8.9,6,14.6,6C554,183.8,563.2,174.6,563.2,163.2z"/>
							<path style="clip-path:url(#SVGID_00000028286225655143554150000015238372613252029609_);fill:#C8126C;" d="M562.9,163.2
								c0-11.2-9.1-20.3-20.3-20.3c-5.6,0-10.7,2.3-14.3,5.9h2.7v28.6h-2.7c3.7,3.7,8.7,5.9,14.3,5.9
								C553.8,183.4,562.9,174.4,562.9,163.2z"/>
							<path style="clip-path:url(#SVGID_00000028286225655143554150000015238372613252029609_);fill:#C9136C;" d="M562.5,163.2
								c0-11-8.9-19.9-19.9-19.9c-5.5,0-10.5,2.2-14.1,5.8h2.5v28.1h-2.5c3.6,3.6,8.6,5.8,14.1,5.8
								C553.6,183.1,562.5,174.2,562.5,163.2z"/>
							<path style="clip-path:url(#SVGID_00000028286225655143554150000015238372613252029609_);fill:#CA146C;" d="M562.2,163.2
								c0-10.8-8.8-19.5-19.5-19.5c-5.4,0-10.3,2.2-13.8,5.7h2.2V177h-2.2c3.5,3.5,8.4,5.7,13.8,5.7
								C553.4,182.7,562.2,174,562.2,163.2z"/>
							<path style="clip-path:url(#SVGID_00000028286225655143554150000015238372613252029609_);fill:#CB156C;" d="M561.8,163.2
								c0-10.6-8.6-19.2-19.2-19.2c-5.3,0-10.1,2.1-13.6,5.6h2v27.1h-2c3.5,3.5,8.3,5.6,13.6,5.6
								C553.2,182.4,561.8,173.8,561.8,163.2z"/>
							<path style="clip-path:url(#SVGID_00000028286225655143554150000015238372613252029609_);fill:#CC166C;" d="M561.5,163.2
								c0-10.4-8.4-18.8-18.8-18.8c-5.2,0-9.9,2.1-13.3,5.5h1.7v26.6h-1.7c3.4,3.4,8.1,5.5,13.3,5.5
								C553,182,561.5,173.6,561.5,163.2z"/>
							
								<circle style="clip-path:url(#SVGID_00000028286225655143554150000015238372613252029609_);fill:#CD176C;" cx="542.6" cy="163.2" r="18.5"/>
							
								<circle style="clip-path:url(#SVGID_00000028286225655143554150000015238372613252029609_);fill:#CE196C;" cx="542.6" cy="163.2" r="18.1"/>
							
								<circle style="clip-path:url(#SVGID_00000028286225655143554150000015238372613252029609_);fill:#CE1A6C;" cx="542.6" cy="163.2" r="17.8"/>
							
								<circle style="clip-path:url(#SVGID_00000028286225655143554150000015238372613252029609_);fill:#CF1B6C;" cx="542.6" cy="163.2" r="17.4"/>
							
								<circle style="clip-path:url(#SVGID_00000028286225655143554150000015238372613252029609_);fill:#D01C6C;" cx="542.6" cy="163.2" r="17.1"/>
							
								<circle style="clip-path:url(#SVGID_00000028286225655143554150000015238372613252029609_);fill:#D11D6C;" cx="542.6" cy="163.2" r="16.7"/>
							
								<circle style="clip-path:url(#SVGID_00000028286225655143554150000015238372613252029609_);fill:#D21E6C;" cx="542.6" cy="163.2" r="16.4"/>
							
								<circle style="clip-path:url(#SVGID_00000028286225655143554150000015238372613252029609_);fill:#D31F6C;" cx="542.6" cy="163.2" r="16"/>
							
								<circle style="clip-path:url(#SVGID_00000028286225655143554150000015238372613252029609_);fill:#D4206C;" cx="542.6" cy="163.2" r="15.7"/>
							
								<circle style="clip-path:url(#SVGID_00000028286225655143554150000015238372613252029609_);fill:#D5216C;" cx="542.6" cy="163.2" r="15.3"/>
							
								<circle style="clip-path:url(#SVGID_00000028286225655143554150000015238372613252029609_);fill:#D6226C;" cx="542.6" cy="163.2" r="15"/>
							
								<circle style="clip-path:url(#SVGID_00000028286225655143554150000015238372613252029609_);fill:#D7236C;" cx="542.6" cy="163.2" r="14.6"/>
							
								<circle style="clip-path:url(#SVGID_00000028286225655143554150000015238372613252029609_);fill:#D8246C;" cx="542.6" cy="163.2" r="14.3"/>
							
								<circle style="clip-path:url(#SVGID_00000028286225655143554150000015238372613252029609_);fill:#D9256C;" cx="542.6" cy="163.2" r="13.9"/>
							
								<circle style="clip-path:url(#SVGID_00000028286225655143554150000015238372613252029609_);fill:#DA266C;" cx="542.6" cy="163.2" r="13.5"/>
							
								<circle style="clip-path:url(#SVGID_00000028286225655143554150000015238372613252029609_);fill:#DB276C;" cx="542.6" cy="163.2" r="13.2"/>
							
								<circle style="clip-path:url(#SVGID_00000028286225655143554150000015238372613252029609_);fill:#DC286C;" cx="542.6" cy="163.2" r="12.8"/>
							
								<circle style="clip-path:url(#SVGID_00000028286225655143554150000015238372613252029609_);fill:#DD296C;" cx="542.6" cy="163.2" r="12.5"/>
							
								<circle style="clip-path:url(#SVGID_00000028286225655143554150000015238372613252029609_);fill:#DE2A6C;" cx="542.6" cy="163.2" r="12.1"/>
							
								<circle style="clip-path:url(#SVGID_00000028286225655143554150000015238372613252029609_);fill:#DF2B6C;" cx="542.6" cy="163.2" r="11.8"/>
							
								<circle style="clip-path:url(#SVGID_00000028286225655143554150000015238372613252029609_);fill:#E02C6C;" cx="542.6" cy="163.2" r="11.4"/>
							
								<circle style="clip-path:url(#SVGID_00000028286225655143554150000015238372613252029609_);fill:#E12D6C;" cx="542.6" cy="163.2" r="11.1"/>
							
								<circle style="clip-path:url(#SVGID_00000028286225655143554150000015238372613252029609_);fill:#E22E6C;" cx="542.6" cy="163.2" r="10.7"/>
							
								<circle style="clip-path:url(#SVGID_00000028286225655143554150000015238372613252029609_);fill:#E32F6C;" cx="542.6" cy="163.2" r="10.4"/>
							
								<circle style="clip-path:url(#SVGID_00000028286225655143554150000015238372613252029609_);fill:#E4306C;" cx="542.6" cy="163.2" r="10"/>
							
								<circle style="clip-path:url(#SVGID_00000028286225655143554150000015238372613252029609_);fill:#E5316C;" cx="542.6" cy="163.2" r="9.7"/>
							
								<rect x="507" y="148.3" style="clip-path:url(#SVGID_00000028286225655143554150000015238372613252029609_);fill:#B6006C;" width="46.3" height="28.3"/>
							<path style="clip-path:url(#SVGID_00000028286225655143554150000015238372613252029609_);fill:#B6006C;" d="M554.2,163.2
								v-15.9h-30.4v-2.9c-4.8,4.8-7.8,11.5-7.8,18.8s3,14,7.8,18.8v-4.4h30.4V163.2z"/>
							<path style="clip-path:url(#SVGID_00000028286225655143554150000015238372613252029609_);fill:#B7016C;" d="M554.2,163.2
								v-15.9h-30.2v-2.7c-4.8,4.8-7.7,11.3-7.7,18.6c0,7.2,2.9,13.8,7.7,18.6v-4.1h30.2V163.2z"/>
							<path style="clip-path:url(#SVGID_00000028286225655143554150000015238372613252029609_);fill:#B8026C;" d="M554.2,163.2
								v-15.9h-29.9v-2.4c-4.7,4.7-7.6,11.2-7.6,18.3s2.9,13.6,7.6,18.3v-3.9h29.9V163.2z"/>
							<path style="clip-path:url(#SVGID_00000028286225655143554150000015238372613252029609_);fill:#B9036C;" d="M554.2,163.2
								v-15.9h-29.7v-2.2c-4.6,4.6-7.5,11-7.5,18.1c0,7.1,2.9,13.4,7.5,18.1v-3.6h29.7V163.2z"/>
							<path style="clip-path:url(#SVGID_00000028286225655143554150000015238372613252029609_);fill:#BA046C;" d="M554.2,163.2
								v-15.9h-29.4v-1.9c-4.6,4.6-7.4,10.9-7.4,17.8s2.8,13.3,7.4,17.8v-3.4h29.4V163.2z"/>
							<path style="clip-path:url(#SVGID_00000028286225655143554150000015238372613252029609_);fill:#BB056C;" d="M554.2,163.2
								v-15.9h-29.2v-1.7c-4.5,4.5-7.3,10.7-7.3,17.6c0,6.9,2.8,13.1,7.3,17.6v-3.1h29.2V163.2z"/>
							<path style="clip-path:url(#SVGID_00000028286225655143554150000015238372613252029609_);fill:#BC066C;" d="M554.2,163.2
								v-15.9h-28.9v-1.4c-4.4,4.4-7.2,10.6-7.2,17.3s2.7,12.9,7.2,17.3v-2.9h28.9V163.2z"/>
							<path style="clip-path:url(#SVGID_00000028286225655143554150000015238372613252029609_);fill:#BD076C;" d="M554.2,163.2
								v-15.9h-28.7v-1.2c-4.4,4.4-7.1,10.4-7.1,17.1s2.7,12.7,7.1,17.1v-2.6h28.7V163.2z"/>
							<path style="clip-path:url(#SVGID_00000028286225655143554150000015238372613252029609_);fill:#BE086C;" d="M554.2,163.2
								v-15.9h-28.4v-0.9c-4.3,4.3-7,10.2-7,16.8c0,6.6,2.7,12.5,7,16.8v-2.4h28.4V163.2z"/>
							<path style="clip-path:url(#SVGID_00000028286225655143554150000015238372613252029609_);fill:#BF096C;" d="M554.2,163.2
								v-15.9h-28.2v-0.7c-4.2,4.2-6.9,10.1-6.9,16.6s2.6,12.3,6.9,16.6v-2.1h28.2V163.2z"/>
							<path style="clip-path:url(#SVGID_00000028286225655143554150000015238372613252029609_);fill:#C00A6C;" d="M554.2,163.2
								v-15.9h-27.9v-0.4c-4.2,4.2-6.8,9.9-6.8,16.3c0,6.4,2.6,12.1,6.8,16.3v-1.9h27.9V163.2z"/>
							<path style="clip-path:url(#SVGID_00000028286225655143554150000015238372613252029609_);fill:#C10B6C;" d="M554.2,163.2
								v-15.9h-11.6v-6.9c-12.6,0-22.7,10.2-22.7,22.7c0,6.3,2.5,12,6.7,16.1v-1.6h27.7V163.2z"/>
							<path style="clip-path:url(#SVGID_00000028286225655143554150000015238372613252029609_);fill:#C20C6C;" d="M554.2,163.2
								v-15.8h4.2c-4-4-9.6-6.6-15.8-6.6c-12.4,0-22.4,10-22.4,22.4c0,6.2,2.5,11.8,6.6,15.8v-1.4h27.4V163.2z"/>
							<path style="clip-path:url(#SVGID_00000028286225655143554150000015238372613252029609_);fill:#C30D6C;" d="M554.2,163.2
								v-15.6h4c-4-4-9.5-6.4-15.6-6.4c-12.2,0-22,9.9-22,22c0,6.1,2.5,11.6,6.4,15.6v-1.1h27.2V163.2z"/>
							<path style="clip-path:url(#SVGID_00000028286225655143554150000015238372613252029609_);fill:#C40E6C;" d="M554.2,163.2
								v-15.3h3.7c-3.9-3.9-9.3-6.3-15.3-6.3c-12,0-21.7,9.7-21.7,21.7c0,6,2.4,11.4,6.3,15.3v-0.9h26.9V163.2z"/>
							<path style="clip-path:url(#SVGID_00000028286225655143554150000015238372613252029609_);fill:#C50F6C;" d="M554.2,163.2
								v-15.1h3.5c-3.9-3.9-9.2-6.2-15.1-6.2c-11.8,0-21.3,9.5-21.3,21.3c0,11.8,9.5,21.3,21.3,21.3v-6.9h11.6V163.2z"/>
							<path style="clip-path:url(#SVGID_00000028286225655143554150000015238372613252029609_);fill:#C6106C;" d="M554.2,163.2
								v-14.8h3.2c-3.8-3.8-9-6.1-14.8-6.1c-11.6,0-21,9.4-21,21c0,11.6,9.4,21,21,21v-6.5h11.6V163.2z"/>
							<path style="clip-path:url(#SVGID_00000028286225655143554150000015238372613252029609_);fill:#C7116C;" d="M554.2,163.2
								v-14.6h3c-3.7-3.7-8.9-6-14.6-6c-11.4,0-20.6,9.2-20.6,20.6s9.2,20.6,20.6,20.6v-6.2h11.6V163.2z"/>
							<path style="clip-path:url(#SVGID_00000028286225655143554150000015238372613252029609_);fill:#C8126C;" d="M554.2,163.2
								v-14.3h2.7c-3.7-3.7-8.7-5.9-14.3-5.9c-11.2,0-20.3,9.1-20.3,20.3s9.1,20.3,20.3,20.3c5.6,0,10.7-2.3,14.3-5.9h-2.7V163.2z"
								/>
							<path style="clip-path:url(#SVGID_00000028286225655143554150000015238372613252029609_);fill:#C9136C;" d="M554.2,163.2
								v-14.1h2.5c-3.6-3.6-8.6-5.8-14.1-5.8c-11,0-19.9,8.9-19.9,19.9s8.9,19.9,19.9,19.9c5.5,0,10.5-2.2,14.1-5.8h-2.5V163.2z"/>
							<path style="clip-path:url(#SVGID_00000028286225655143554150000015238372613252029609_);fill:#CA146C;" d="M554.2,163.2
								v-13.8h2.2c-3.5-3.5-8.4-5.7-13.8-5.7c-10.8,0-19.5,8.8-19.5,19.5s8.8,19.5,19.5,19.5c5.4,0,10.3-2.2,13.8-5.7h-2.2V163.2z"
								/>
							<path style="clip-path:url(#SVGID_00000028286225655143554150000015238372613252029609_);fill:#CB156C;" d="M554.2,163.2
								v-13.6h2c-3.5-3.5-8.3-5.6-13.6-5.6c-10.6,0-19.2,8.6-19.2,19.2s8.6,19.2,19.2,19.2c5.3,0,10.1-2.1,13.6-5.6h-2V163.2z"/>
							<path style="clip-path:url(#SVGID_00000028286225655143554150000015238372613252029609_);fill:#CC166C;" d="M554.2,163.2
								v-13.3h1.7c-3.4-3.4-8.1-5.5-13.3-5.5c-10.4,0-18.8,8.4-18.8,18.8s8.4,18.8,18.8,18.8c5.2,0,9.9-2.1,13.3-5.5h-1.7V163.2z"/>
							
								<circle style="clip-path:url(#SVGID_00000028286225655143554150000015238372613252029609_);fill:#CD176C;" cx="542.6" cy="163.2" r="18.5"/>
							
								<circle style="clip-path:url(#SVGID_00000028286225655143554150000015238372613252029609_);fill:#CE196C;" cx="542.6" cy="163.2" r="18.1"/>
							
								<circle style="clip-path:url(#SVGID_00000028286225655143554150000015238372613252029609_);fill:#CE1A6C;" cx="542.6" cy="163.2" r="17.8"/>
							
								<circle style="clip-path:url(#SVGID_00000028286225655143554150000015238372613252029609_);fill:#CF1B6C;" cx="542.6" cy="163.2" r="17.4"/>
							
								<circle style="clip-path:url(#SVGID_00000028286225655143554150000015238372613252029609_);fill:#D01C6C;" cx="542.6" cy="163.2" r="17.1"/>
							
								<circle style="clip-path:url(#SVGID_00000028286225655143554150000015238372613252029609_);fill:#D11D6C;" cx="542.6" cy="163.2" r="16.7"/>
							
								<circle style="clip-path:url(#SVGID_00000028286225655143554150000015238372613252029609_);fill:#D21E6C;" cx="542.6" cy="163.2" r="16.4"/>
							
								<circle style="clip-path:url(#SVGID_00000028286225655143554150000015238372613252029609_);fill:#D31F6C;" cx="542.6" cy="163.2" r="16"/>
							
								<circle style="clip-path:url(#SVGID_00000028286225655143554150000015238372613252029609_);fill:#D4206C;" cx="542.6" cy="163.2" r="15.7"/>
							
								<circle style="clip-path:url(#SVGID_00000028286225655143554150000015238372613252029609_);fill:#D5216C;" cx="542.6" cy="163.2" r="15.3"/>
							
								<circle style="clip-path:url(#SVGID_00000028286225655143554150000015238372613252029609_);fill:#D6226C;" cx="542.6" cy="163.2" r="15"/>
							
								<circle style="clip-path:url(#SVGID_00000028286225655143554150000015238372613252029609_);fill:#D7236C;" cx="542.6" cy="163.2" r="14.6"/>
							
								<circle style="clip-path:url(#SVGID_00000028286225655143554150000015238372613252029609_);fill:#D8246C;" cx="542.6" cy="163.2" r="14.3"/>
							
								<circle style="clip-path:url(#SVGID_00000028286225655143554150000015238372613252029609_);fill:#D9256C;" cx="542.6" cy="163.2" r="13.9"/>
							
								<circle style="clip-path:url(#SVGID_00000028286225655143554150000015238372613252029609_);fill:#DA266C;" cx="542.6" cy="163.2" r="13.5"/>
							
								<circle style="clip-path:url(#SVGID_00000028286225655143554150000015238372613252029609_);fill:#DB276C;" cx="542.6" cy="163.2" r="13.2"/>
							
								<circle style="clip-path:url(#SVGID_00000028286225655143554150000015238372613252029609_);fill:#DC286C;" cx="542.6" cy="163.2" r="12.8"/>
							
								<circle style="clip-path:url(#SVGID_00000028286225655143554150000015238372613252029609_);fill:#DD296C;" cx="542.6" cy="163.2" r="12.5"/>
							
								<circle style="clip-path:url(#SVGID_00000028286225655143554150000015238372613252029609_);fill:#DE2A6C;" cx="542.6" cy="163.2" r="12.1"/>
							
								<circle style="clip-path:url(#SVGID_00000028286225655143554150000015238372613252029609_);fill:#DF2B6C;" cx="542.6" cy="163.2" r="11.8"/>
							
								<circle style="clip-path:url(#SVGID_00000028286225655143554150000015238372613252029609_);fill:#E02C6C;" cx="542.6" cy="163.2" r="11.4"/>
							
								<circle style="clip-path:url(#SVGID_00000028286225655143554150000015238372613252029609_);fill:#E12D6C;" cx="542.6" cy="163.2" r="11.1"/>
							
								<circle style="clip-path:url(#SVGID_00000028286225655143554150000015238372613252029609_);fill:#E22E6C;" cx="542.6" cy="163.2" r="10.7"/>
							
								<circle style="clip-path:url(#SVGID_00000028286225655143554150000015238372613252029609_);fill:#E32F6C;" cx="542.6" cy="163.2" r="10.4"/>
							
								<circle style="clip-path:url(#SVGID_00000028286225655143554150000015238372613252029609_);fill:#E4306C;" cx="542.6" cy="163.2" r="10"/>
							
								<circle style="clip-path:url(#SVGID_00000028286225655143554150000015238372613252029609_);fill:#E5316C;" cx="542.6" cy="163.2" r="9.7"/>
						</g>
					</g>
					<g>
						<g>
							<g>
								<path d="M595.2,153.2c0.1-0.3,0.4-0.4,0.6-0.3c0.3,0.1,0.4,0.4,0.3,0.7l-2.6,7.1c-0.2,0.6-0.6,0.9-1.1,0.9
									c-0.5,0-0.8-0.3-1.1-0.9l-2.6-7.1c-0.1-0.3,0-0.6,0.3-0.7c0.3-0.1,0.5,0,0.6,0.3l2.6,7.3c0,0,0.1,0.1,0.1,0.1
									s0.1-0.1,0.1-0.1L595.2,153.2z"/>
							</g>
							<g>
								<path d="M601.8,158c0,0.4-0.2,0.7-0.7,0.7h-3.6v0.2c0,1.1,0.7,1.8,1.8,1.8c0.4,0,0.9-0.1,1.5-0.3c0.4-0.2,0.7,0.1,0.7,0.4
									c0,0.2-0.1,0.3-0.3,0.4c-0.4,0.2-1.2,0.4-1.9,0.4c-1.7,0-2.7-1.1-2.8-2.6c0-0.5,0-1.1,0-1.5c0.1-1.6,1.2-2.5,2.7-2.5
									c1.6,0,2.6,1.1,2.6,2.6L601.8,158L601.8,158z M600.7,157.8c0.1,0,0.1,0,0.2-0.1c0.1-1.1-0.6-1.8-1.6-1.8
									c-1.2,0-1.8,0.8-1.7,2H600.7z"/>
							</g>
							<g>
								<path d="M607,155.6c0,0.2-0.1,0.4-0.5,0.4c-0.2,0-0.5-0.1-1-0.1c-0.7,0-1,0.4-1,1.1v4c0,0.3-0.2,0.5-0.5,0.5
									c-0.3,0-0.5-0.2-0.5-0.5v-4.1c0-1.2,0.7-1.9,2-1.9c0.4,0,0.8,0.1,1.1,0.1C606.8,155.2,607,155.3,607,155.6z"/>
							</g>
							<g>
								<path d="M613.6,155.8l-1.9,5c-0.2,0.5-0.5,0.8-0.9,0.8c-0.4,0-0.7-0.3-0.9-0.8l-1.9-5c-0.1-0.4,0.1-0.7,0.5-0.7
									c0.2,0,0.4,0.2,0.4,0.4l1.8,5c0,0,0,0,0.1,0c0,0,0,0,0.1,0l1.8-5c0.1-0.2,0.3-0.4,0.5-0.4
									C613.5,155.1,613.7,155.4,613.6,155.8z"/>
							</g>
							<g>
								<path d="M620.1,157.4c0,0.5,0,1.2,0,1.7c-0.1,1.4-1.2,2.5-2.7,2.5c-1.5,0-2.6-1-2.7-2.5c0-0.5,0-1.2,0-1.7
									c0.1-1.4,1.2-2.4,2.7-2.4C618.9,155,620.1,155.9,620.1,157.4z M615.7,157.4c0,0.4,0,1.2,0,1.6c0.1,0.9,0.7,1.6,1.7,1.6
									c1,0,1.6-0.6,1.7-1.6c0-0.4,0-1.2,0-1.6c-0.1-0.9-0.7-1.6-1.7-1.6S615.8,156.5,615.7,157.4z"/>
							</g>
							<g>
								<path d="M627,158c0,0.4-0.2,0.7-0.7,0.7h-3.6v0.2c0,1.1,0.7,1.8,1.8,1.8c0.4,0,0.9-0.1,1.5-0.3c0.4-0.2,0.7,0.1,0.7,0.4
									c0,0.2-0.1,0.3-0.3,0.4c-0.4,0.2-1.2,0.4-1.9,0.4c-1.7,0-2.7-1.1-2.8-2.6c0-0.5,0-1.1,0-1.5c0.1-1.6,1.2-2.5,2.7-2.5
									c1.6,0,2.6,1.1,2.6,2.6V158z M625.9,157.8c0.1,0,0.1,0,0.2-0.1c0.1-1.1-0.6-1.8-1.6-1.8c-1.2,0-1.8,0.8-1.7,2H625.9z"/>
							</g>
							<g>
								<path d="M632.2,155.6c0,0.2-0.1,0.4-0.5,0.4c-0.2,0-0.5-0.1-1-0.1c-0.7,0-1,0.4-1,1.1v4c0,0.3-0.2,0.5-0.5,0.5
									c-0.3,0-0.5-0.2-0.5-0.5v-4.1c0-1.2,0.7-1.9,2-1.9c0.4,0,0.8,0.1,1.1,0.1C632.1,155.2,632.2,155.3,632.2,155.6z"/>
							</g>
							<g>
								<path d="M636.8,155.6c0,0.2-0.1,0.4-0.5,0.4c-0.2,0-0.5-0.1-1-0.1c-0.7,0-1,0.4-1,1.1v4c0,0.3-0.2,0.5-0.5,0.5
									c-0.3,0-0.5-0.2-0.5-0.5v-4.1c0-1.2,0.7-1.9,2-1.9c0.4,0,0.8,0.1,1.1,0.1C636.7,155.2,636.8,155.3,636.8,155.6z"/>
							</g>
							<g>
								<path d="M642.9,158c0,0.4-0.2,0.7-0.7,0.7h-3.6v0.2c0,1.1,0.7,1.8,1.8,1.8c0.4,0,0.9-0.1,1.5-0.3c0.4-0.2,0.7,0.1,0.7,0.4
									c0,0.2-0.1,0.3-0.3,0.4c-0.4,0.2-1.2,0.4-1.9,0.4c-1.7,0-2.7-1.1-2.8-2.6c0-0.5,0-1.1,0-1.5c0.1-1.6,1.2-2.5,2.7-2.5
									c1.6,0,2.6,1.1,2.6,2.6V158z M641.8,157.8c0.1,0,0.1,0,0.2-0.1c0.1-1.1-0.6-1.8-1.6-1.8c-1.2,0-1.8,0.8-1.7,2H641.8z"/>
							</g>
							<g>
								<path d="M649.8,161c0,1.7-1,2.7-3,2.7c-0.4,0-0.9,0-1.4-0.1c-0.2,0-0.4-0.2-0.4-0.4c0-0.3,0.2-0.5,0.6-0.5
									c0.5,0.1,0.9,0.1,1.3,0.1c1.4,0,2-0.7,2-1.8c-0.4,0.2-1.1,0.4-1.8,0.4c-1.5,0-2.4-1-2.5-2.4c0-0.5,0-1.1,0-1.5
									c0.1-1.4,1.1-2.5,2.5-2.5c1.3,0,2.2,0.5,2.5,0.7c0.2,0.1,0.2,0.2,0.2,0.4L649.8,161L649.8,161z M645.5,157.5
									c0,0.4,0,1,0,1.4c0.1,0.9,0.6,1.6,1.5,1.6c1,0,1.5-0.3,1.8-0.5v-3.6c0,0-0.7-0.4-1.6-0.4
									C646.1,155.9,645.6,156.5,645.5,157.5z"/>
							</g>
							<g>
								<path d="M652.3,154.1c-0.3,0-0.6-0.3-0.6-0.6c0-0.3,0.3-0.6,0.6-0.6s0.6,0.3,0.6,0.6C652.9,153.8,652.7,154.1,652.3,154.1z
									 M652.8,155.6v5.4c0,0.3-0.2,0.5-0.5,0.5c-0.3,0-0.5-0.2-0.5-0.5v-5.4c0-0.3,0.2-0.5,0.5-0.5S652.8,155.3,652.8,155.6z"/>
							</g>
							<g>
								<path d="M660.3,157.4c0,0.5,0,1.2,0,1.7c-0.1,1.4-1.2,2.5-2.7,2.5c-1.5,0-2.6-1-2.7-2.5c0-0.5,0-1.2,0-1.7
									c0.1-1.4,1.2-2.4,2.7-2.4C659.1,155,660.2,155.9,660.3,157.4z M655.9,157.4c0,0.4,0,1.2,0,1.6c0.1,0.9,0.7,1.6,1.7,1.6
									c1,0,1.6-0.6,1.7-1.6c0-0.4,0-1.2,0-1.6c-0.1-0.9-0.7-1.6-1.7-1.6S655.9,156.5,655.9,157.4z"/>
							</g>
						</g>
						<g>
							<g>
								<path d="M594.5,170.6h-3.9l-0.9,2.5c-0.1,0.3-0.4,0.4-0.7,0.3c-0.3-0.1-0.4-0.4-0.3-0.6l2.5-7c0.2-0.6,0.7-0.9,1.3-0.9
									s1,0.3,1.2,0.9l2.5,7c0.1,0.2,0,0.5-0.3,0.6c-0.3,0.1-0.6,0-0.7-0.3L594.5,170.6z M590.9,169.7h3.2l-1.3-3.6
									c0-0.1-0.2-0.2-0.3-0.2c-0.2,0-0.3,0.1-0.3,0.2L590.9,169.7z"/>
							</g>
							<g>
								<path d="M606.1,173c0,0.3-0.2,0.5-0.5,0.5c-0.3,0-0.5-0.2-0.5-0.5v-3.5c0-1.1-0.5-1.6-1.4-1.6c-0.7,0-1.1,0.3-1.4,0.6v4.4
									c0,0.3-0.2,0.5-0.5,0.5c-0.3,0-0.5-0.2-0.5-0.5v-3.6c0-1-0.5-1.5-1.4-1.5c-0.9,0-1.3,0.4-1.4,0.4v4.7c0,0.3-0.2,0.5-0.5,0.5
									c-0.3,0-0.5-0.2-0.5-0.5v-4.9c0-0.2,0.1-0.3,0.3-0.5c0.5-0.4,1.3-0.6,2.1-0.6c0.9,0,1.5,0.3,1.9,0.7
									c0.4-0.3,0.9-0.7,1.9-0.7c1.7,0,2.3,0.9,2.3,2.5L606.1,173L606.1,173z"/>
							</g>
							<g>
								<path d="M612.4,171.6c0,1.2-0.9,1.9-2.4,1.9c-0.9,0-1.6-0.2-2.2-0.7c-0.2-0.2-0.2-0.5-0.1-0.7c0.2-0.2,0.4-0.3,0.7-0.1
									c0.4,0.3,0.8,0.5,1.7,0.5c0.8,0,1.3-0.4,1.3-1c0-0.4-0.3-0.7-1-0.9c-0.4-0.1-0.4-0.1-0.9-0.2c-1.1-0.3-1.7-0.8-1.7-1.7
									c0-1.2,0.9-1.9,2.3-1.9c0.7,0,1.4,0.2,1.7,0.5c0.2,0.2,0.2,0.5,0.1,0.7c-0.2,0.2-0.4,0.2-0.7,0.1c-0.4-0.2-0.8-0.4-1.2-0.4
									c-0.8,0-1.3,0.4-1.3,0.9c0,0.4,0.2,0.6,0.9,0.8c0.4,0.1,0.8,0.2,1,0.2C611.9,170.2,612.4,170.7,612.4,171.6z"/>
							</g>
							<g>
								<path d="M615.9,173.6c-1.3,0-1.9-0.9-1.9-2v-5.3c0-0.3,0.2-0.5,0.5-0.5c0.3,0,0.5,0.2,0.5,0.5v1h1.8c0.2,0,0.5,0.2,0.5,0.4
									c0,0.3-0.2,0.4-0.5,0.4H615v3.4c0,0.6,0.3,1.1,0.9,1.1c0.4,0,0.7-0.1,1-0.2c0.4-0.1,0.6,0.1,0.6,0.4c0,0.2-0.1,0.4-0.4,0.5
									C616.8,173.5,616.3,173.6,615.9,173.6z"/>
							</g>
							<g>
								<path d="M624,170c0,0.4-0.2,0.7-0.7,0.7h-3.6v0.2c0,1.1,0.7,1.8,1.8,1.8c0.4,0,0.9-0.1,1.5-0.3c0.4-0.2,0.7,0.1,0.7,0.4
									c0,0.2-0.1,0.3-0.3,0.4c-0.4,0.2-1.2,0.4-1.9,0.4c-1.7,0-2.7-1.1-2.8-2.6c0-0.5,0-1.1,0-1.5c0.1-1.6,1.2-2.5,2.7-2.5
									c1.6,0,2.6,1.1,2.6,2.6V170z M622.9,169.9c0.1,0,0.1,0,0.2-0.1c0.1-1.1-0.6-1.8-1.6-1.8c-1.2,0-1.8,0.8-1.7,2H622.9z"/>
							</g>
							<g>
								<path d="M629.2,167.6c0,0.2-0.1,0.4-0.5,0.4c-0.2,0-0.5-0.1-1-0.1c-0.7,0-1,0.4-1,1.1v4c0,0.3-0.2,0.5-0.5,0.5
									c-0.3,0-0.5-0.2-0.5-0.5v-4.1c0-1.2,0.7-1.9,2-1.9c0.4,0,0.8,0.1,1.1,0.1C629.1,167.2,629.2,167.3,629.2,167.6z"/>
							</g>
							<g>
								<path d="M632.7,167c0.7,0,1.3,0.2,1.7,0.4v-2c0-0.3,0.2-0.5,0.5-0.5c0.3,0,0.5,0.2,0.5,0.5v7.1c0,0.2,0,0.3-0.2,0.4
									c-0.3,0.2-1.3,0.7-2.4,0.7c-1.6,0-2.6-1-2.7-2.5c0-0.4,0-1.3,0-1.7C630.3,167.9,631.2,167,632.7,167z M632.9,172.6
									c0.6,0,1.3-0.3,1.6-0.5v-3.8c-0.3-0.2-1-0.4-1.7-0.4c-1,0-1.5,0.5-1.6,1.5c0,0.4,0,1.2,0,1.6
									C631.2,172.1,631.8,172.6,632.9,172.6z"/>
							</g>
							<g>
								<path d="M642.3,172.5c0,0.2,0,0.3-0.2,0.4c-0.3,0.2-1.3,0.7-2.5,0.7c-1.6,0-2.4-0.8-2.4-2.1c0-1.1,0.8-2,2.4-2
									c0.6,0,1.1,0.1,1.7,0.3v-0.5c0-1-0.5-1.4-1.5-1.4c-0.6,0-1.1,0.2-1.4,0.3c-0.4,0.2-0.7-0.1-0.7-0.4c0-0.2,0.1-0.4,0.3-0.5
									c0.4-0.2,1.1-0.4,1.9-0.4c1.4,0,2.4,0.7,2.4,2.3L642.3,172.5L642.3,172.5z M641.3,172.2v-1.6c-0.6-0.2-1.1-0.3-1.7-0.3
									c-0.8,0-1.5,0.4-1.5,1.1c0,0.8,0.5,1.2,1.6,1.2C640.7,172.7,641.2,172.3,641.3,172.2z"/>
							</g>
							<g>
								<path d="M652.8,173c0,0.3-0.2,0.5-0.5,0.5c-0.3,0-0.5-0.2-0.5-0.5v-3.5c0-1.1-0.5-1.6-1.4-1.6c-0.7,0-1.1,0.3-1.4,0.6v4.4
									c0,0.3-0.2,0.5-0.5,0.5c-0.3,0-0.5-0.2-0.5-0.5v-3.6c0-1-0.5-1.5-1.4-1.5c-0.9,0-1.3,0.4-1.4,0.4v4.7c0,0.3-0.2,0.5-0.5,0.5
									c-0.3,0-0.5-0.2-0.5-0.5v-4.9c0-0.2,0.1-0.3,0.3-0.5c0.5-0.4,1.3-0.6,2.1-0.6c0.9,0,1.5,0.3,1.9,0.7
									c0.4-0.3,0.9-0.7,1.9-0.7c1.7,0,2.3,0.9,2.3,2.5L652.8,173L652.8,173z"/>
							</g>
						</g>
					</g>
				</g>
			</g>
			<g id="magenta_onder_kan_00000126319726023803789270000002883900458291528073_">
				<g>
					<path class="st4" d="M670.8,204.7l0,9H303.2v-4.3c1.5-4.3,2.3-8.9,2.3-13.8c0-2.7-0.3-5.4-0.8-7.9h85.6v5.3
						c0,0.6,0.1,1.2,0.3,1.8c0.1,0.4,0.3,0.8,0.5,1.1c0.3,0.5,0.7,1,1.1,1.4c0.3,0.3,0.6,0.5,0.9,0.8c0,0,0,0,0,0
						c0.7,0.4,1.4,0.8,2.3,0.9c0.2,0,0.4,0.1,0.6,0.1c0.2,0,0.4,0,0.6,0h89c3.5,0,6.3-2.8,6.3-6.2v-5.3h179.3
						c-0.8,3.1-1.2,6.4-1.2,9.8C670.1,199.9,670.3,202.3,670.8,204.7z"/>
				</g>
				<g>
					<path class="st4" d="M222.9,195.6c0,1.4,0.1,2.8,0.2,4.2v13.4c0,0-90,0-123.8,0c-33.8,0-72.3-8.3-77.5-8.3
						c-5.2,0-10.9-0.2-10.9-11.1c0-10.8,0-56.9,0-56.9h12.6v41.7c0,0.2,0,0.4,0,0.6c0.3,3.1,2.7,5.6,5.8,5.8c0.2,0,0.4,0,0.6,0h55.7
						l0.2,0.2v7.8c0,3.4,2.8,6.2,6.3,6.2h89.8c3.5,0,6.3-2.8,6.3-6.2v-5.3h35.4C223.2,190.2,222.9,192.9,222.9,195.6z"/>
				</g>
				<g>
					<path class="st4" d="M856,209.7c-17.7,2.4-39.5,3.4-103.5,3.4v-5.6c0.8-3.2,1.2-6.6,1.2-10c0-4.4-0.7-8.6-1.9-12.6h18.1v8.8
						c0,4.1,3.3,7.4,7.4,7.4h55.5c4.1,0,6.8-3.3,6.8-7.4v-30.9c0,0,10.5,4.7,25.8,9.3c0.9,0.3,1.6,0.8,2.1,1.6v0
						c0.4,0.5,0.6,1.2,0.6,1.9C868.9,193.2,873.6,207.3,856,209.7z"/>
				</g>
			</g>
		</g>
		<g id="verticale_balk_00000142898975325291795710000012807518144400248210_">
			<rect id="balk_00000122002007240602692320000003933338316946150557_" x="629.5" y="50.8" class="st4" width="2" height="81.4"/>
			<rect id="balk_00000106840378601772865150000013299583059248213907_" x="494.7" y="50.8" class="st4" width="2" height="81.4"/>
			<rect id="balk_00000183232802958829936970000012173541810519130811_" x="385.9" y="50.8" class="st4" width="2" height="81.4"/>
			<rect id="balk_00000160157437329432718530000001478034342599428766_" x="313.6" y="50.8" class="st4" width="2" height="81.4"/>
			<rect id="balk_00000175281419472026392800000011856568113020191420_" x="191.1" y="50.8" class="st4" width="2" height="81.4"/>
			<rect id="balk_00000176035009823071847070000008950249095018495622_" x="81" y="50.8" class="st4" width="2" height="81.4"/>
			<rect id="balk" x="764.7" y="50.8" class="st4" width="2" height="81.4"/>
		</g>
		<g id="ramen_00000182519380495248797290000009617491018657331355_">
			<g id="raam_00000177454946247903917860000006824831283922724000_">
				<g class="st1">
					<path d="M625,56.8V131c0,2.7-2.2,4.9-4.9,4.9H503.7c-2.7,0-4.9-2.2-4.9-4.9V56.8c0-2.7,2.2-4.9,4.9-4.9h116.4
						C622.8,51.9,625,54.1,625,56.8z"/>
				</g>
				<g>
					<path d="M619.5,50.9H504.3c-3.5,0-6.4,2.9-6.4,6.4v73.3c0,3.5,2.9,6.4,6.4,6.4h115.2c3.5,0,6.4-2.9,6.4-6.4V57.2
						C625.9,53.7,623,50.9,619.5,50.9z M624.4,130.5c0,2.7-2.2,4.9-4.9,4.9H504.3c-2.7,0-4.9-2.2-4.9-4.9V57.2
						c0-2.7,2.2-4.9,4.9-4.9h115.2c2.7,0,4.9,2.2,4.9,4.9V130.5z"/>
				</g>
			</g>
			<g id="raam_00000028322088492061954930000006504305140051255184_">
				<g class="st1">
					<path d="M310.5,56.6v74.6c0,2.7-2,5-4.4,5H201.3c-2.4,0-4.4-2.2-4.4-5V56.6c0-2.7,2-4.9,4.4-4.9h104.9
						C308.6,51.6,310.5,53.8,310.5,56.6z"/>
				</g>
				<g>
					<path d="M305.6,50.9H201.9c-3.2,0-5.8,2.9-5.8,6.4v73.3c0,3.5,2.6,6.4,5.8,6.4h103.7c3.2,0,5.8-2.9,5.8-6.4V57.2
						C311.4,53.7,308.8,50.9,305.6,50.9z M309.9,130.5c0,2.7-1.9,4.9-4.3,4.9H201.9c-2.4,0-4.3-2.2-4.3-4.9V57.2
						c0-2.7,1.9-4.9,4.3-4.9h103.7c2.4,0,4.3,2.2,4.3,4.9V130.5z"/>
				</g>
			</g>
			<g id="raam_00000044864079330630676410000016851157893575261097_">
				<g class="st1">
					<path d="M761.5,57.4v73.8c0,0.5-0.1,1-0.3,1.5c-0.6,1.8-2.2,3.1-4.1,3.4c-0.2,0-0.4,0-0.6,0H640c-1.2,0-2.4-0.4-3.3-1.3
						c-1-0.9-1.6-2.3-1.6-3.7V57.4c0-3.2,2.6-5.8,5.8-5.8h114.9C758.9,51.6,761.5,54.2,761.5,57.4z"/>
				</g>
				<g>
					<path d="M755.8,50.9H640.7c-3.5,0-6.4,2.9-6.4,6.4v73.3c0,1.8,0.8,3.5,2.1,4.8c1.2,1,2.7,1.6,4.2,1.6h115.2
						c0.2,0,0.5,0,0.8-0.1c2.4-0.3,4.5-2,5.3-4.3c0.2-0.7,0.3-1.3,0.3-2V57.2C762.2,53.7,759.3,50.9,755.8,50.9z M760.7,130.5
						c0,0.5-0.1,1-0.2,1.5c-0.6,1.8-2.2,3.1-4.1,3.3c-0.2,0-0.4,0-0.6,0H640.7c-1.2,0-2.3-0.4-3.3-1.3c-1-0.9-1.6-2.2-1.6-3.6V57.2
						c0-2.7,2.2-4.9,4.9-4.9h115.2c2.7,0,4.9,2.2,4.9,4.9V130.5z"/>
				</g>
			</g>
			<g id="raam_00000088096434759707526640000010845511417888421040_">
				<g class="st1">
					<path d="M382.6,54.9v78c0,1.8-1.5,3.3-3.3,3.3h-56.8c-0.6,0-1.3-0.2-1.8-0.5c-0.4-0.3-0.8-0.6-1-1.1c-0.3-0.5-0.5-1.1-0.5-1.7
						v-78c0-1.4,0.9-2.6,2.2-3.1c0.4-0.1,0.7-0.2,1.1-0.2h56.8C381.1,51.6,382.6,53.1,382.6,54.9z"/>
				</g>
				<g>
					<path d="M378.6,50.9h-55.5c-0.5,0-1.1,0.1-1.6,0.3c-1.9,0.7-3.2,2.5-3.2,4.5v76.6c0,0.8,0.2,1.7,0.6,2.4
						c0.4,0.7,0.9,1.2,1.5,1.6c0.8,0.5,1.6,0.8,2.6,0.8h55.5c2.6,0,4.7-2.1,4.7-4.7V55.6C383.3,53,381.2,50.9,378.6,50.9z
						 M381.8,132.2c0,1.8-1.5,3.2-3.2,3.2h-55.5c-0.6,0-1.2-0.2-1.8-0.5c-0.4-0.3-0.8-0.6-1-1.1c-0.3-0.5-0.4-1.1-0.4-1.6V55.6
						c0-1.4,0.9-2.6,2.2-3c0.3-0.1,0.7-0.2,1.1-0.2h55.5c1.8,0,3.2,1.5,3.2,3.2V132.2z"/>
				</g>
			</g>
			<g id="raam_00000009574232111509842210000017708176358617246396_">
				<g class="st1">
					<path d="M78.2,54.5v78.8c0,1.6-1.3,2.9-2.9,2.9H30.2c-1.6,0-2.9-1.3-2.9-2.9V54.5c0-1.6,1.3-2.9,2.9-2.9h45.2
						C76.9,51.6,78.2,52.9,78.2,54.5z"/>
				</g>
				<g>
					<path d="M74.7,50.9H30.8c-2.4,0-4.3,1.9-4.3,4.3v77.4c0,2.4,1.9,4.3,4.3,4.3h43.8c2.4,0,4.3-1.9,4.3-4.3V55.2
						C79,52.8,77.1,50.9,74.7,50.9z M77.5,132.6c0,1.6-1.3,2.8-2.8,2.8H30.8c-1.6,0-2.8-1.3-2.8-2.8V55.2c0-1.5,1.3-2.8,2.8-2.8
						h43.8c1.6,0,2.8,1.3,2.8,2.8V132.6z"/>
				</g>
			</g>
			<g id="voor_raam_00000117652827693819585560000012768525460764568970_">
				<path id="raam_00000013890426522888700140000000895754627846091943_" class="st1" d="M863.6,164.5l-19-6.9V59.5h7.9
					C857.2,71.6,862.2,119,863.6,164.5z"/>
				<path id="raam_frame" d="M865.2,165.5c-1.4-46.5-6.6-95.6-11.4-107.1l-0.2-0.5h-10.4v100.7l22.1,8L865.2,165.5z M844.6,157.6
					V59.5h7.9c4.7,12.1,9.7,59.6,11.1,105L844.6,157.6z"/>
			</g>
		</g>
		<g id="achterkant-achterligt_00000159453209448603838740000016089883906933664955_">
			<path d="M23.6,122.3H8.3c0,8.6,2.7,5.9,2.7,14.6l12.6,0V122.3z"/>
		</g>
		<g id="deuren">
			<g id="middel_deuren">
				<g id="middel_deur_frame">
					<path d="M486.5,199.6h-89.8c-4,0-7.3-3.2-7.3-7.1V57.7c0-3.9,3.3-7.1,7.3-7.1h89.8c4,0,7.3,3.2,7.3,7.1v134.7
						C493.8,196.4,490.5,199.6,486.5,199.6z M396.7,52.6c-2.9,0-5.3,2.3-5.3,5.1v134.7c0,2.8,2.4,5.1,5.3,5.1h89.8
						c2.9,0,5.3-2.3,5.3-5.1V57.7c0-2.8-2.4-5.1-5.3-5.1H396.7z"/>
				</g>
				<g id="middel_deur_links">
					<g id="niet_instappen_board">
						<g>
							<path class="st74" d="M428.5,142.1h-26.9c-0.8,0-1.4-0.6-1.4-1.4v-8.8c0-0.8,0.6-1.4,1.4-1.4h26.9c0.8,0,1.4,0.6,1.4,1.4v8.8
								C429.9,141.5,429.3,142.1,428.5,142.1z"/>
						</g>
						<g>
							<g>
								<polygon class="st6" points="427.5,136.3 424.9,138.9 422.9,138.9 424.6,137.2 421.5,137.2 421.5,135.4 424.6,135.4 
									422.9,133.7 424.9,133.7 								"/>
							</g>
							<g>
								<g>
									<path class="st6" d="M413.6,132.9v4.6h1.3v-1.1l0.5-1c0-0.1,0-0.2-0.1-0.2l-0.3,0c0,0-0.1,0-0.1,0.1l-0.4,0.7
										c-0.1,0.1-0.3,0.2-0.4,0.1l0,0c-0.1-0.1-0.1-0.2-0.1-0.3l0.6-0.9c0,0,0.1,0,0.1,0h1.7c0,0,0.1,0,0.1,0l0.7,0.9
										c0,0,0.1,0,0.1,0h0.6v-2.8H413.6z M416.4,134.6c-0.3,0-0.5-0.2-0.5-0.5c0-0.3,0.2-0.5,0.5-0.5c0.3,0,0.5,0.2,0.5,0.5
										C417,134.4,416.7,134.6,416.4,134.6z"/>
								</g>
								<g>
									<path class="st6" d="M418,136.2v3l-0.5,0.5h-0.8l0.5-0.5h-0.6l-0.5,0.5h-2.9l0.5-0.5v-1h1.6c0.2,0,0.4-0.2,0.4-0.4v-1
										l1,2.1c0,0,0,0,0.1,0h0.5c0.1,0,0.1-0.1,0.1-0.1l-1.1-2.3c0-0.1,0-0.2,0-0.3l0.3-0.5c0-0.1,0.1-0.1,0.2,0l0.4,0.5H418z"/>
								</g>
								<g>
									<g>
										<path class="st6" d="M413.6,138.3h-0.7v-0.1c0-0.5,0.2-0.9,0.7-0.9v0.1c-0.5,0-0.6,0.4-0.6,0.7h0.6V138.3z"/>
									</g>
								</g>
							</g>
							<g>
								<g>
									<circle class="st75" cx="406.3" cy="136.3" r="3.8"/>
								</g>
								<g>
									<rect x="403.7" y="135.7" class="st6" width="5.2" height="1.2"/>
								</g>
							</g>
						</g>
					</g>
					<g id="deur">
						<path id="deur_omtrek" d="M435.3,50.9h-38.6c-3.9,0-7.1,3.1-7.1,6.9v134.6c0,3.8,3.2,6.9,7.1,6.9h38.6c3.9,0,7.1-3.1,7.1-6.9
							V57.8C442.3,54,439.2,50.9,435.3,50.9z M440.8,192.4c0,3-2.5,5.4-5.6,5.4h-38.6c-3.1,0-5.6-2.4-5.6-5.4V57.8
							c0-3,2.5-5.4,5.6-5.4h38.6c3.1,0,5.6,2.4,5.6,5.4V192.4z"/>
						<path id="raam_00000052787155126604939400000010181488544414724518_" class="st1" d="M441.6,57.1v136c0,3-2.6,5.5-5.7,5.5
							h-39.8c-3.2,0-5.7-2.5-5.7-5.5v-136c0-3,2.6-5.5,5.7-5.5h39.8C439,51.6,441.6,54.1,441.6,57.1z"/>
						<path id="deur_inner_omtrek" d="M428.2,187.3h-24.5c-3,0-5.5-3-5.5-6.6V69.5c0-3.6,2.5-6.6,5.5-6.6h24.5c3,0,5.5,3,5.5,6.6
							v111.2C433.7,184.3,431.3,187.3,428.2,187.3z M403.7,65.9c-1.4,0-2.5,1.6-2.5,3.6v111.2c0,2,1.2,3.6,2.5,3.6h24.5
							c1.4,0,2.5-1.6,2.5-3.6V69.5c0-2-1.2-3.6-2.5-3.6H403.7z"/>
					</g>
				</g>
				<g id="middel_deur_rechts">
					<g id="niet_instappen_board_00000013151939142513056160000008172774325359399344_">
						<g>
							<path class="st74" d="M480.4,142.1h-26.9c-0.8,0-1.4-0.6-1.4-1.4v-8.8c0-0.8,0.6-1.4,1.4-1.4h26.9c0.8,0,1.4,0.6,1.4,1.4v8.8
								C481.8,141.5,481.2,142.1,480.4,142.1z"/>
						</g>
						<g>
							<g>
								<polygon class="st6" points="479.4,136.3 476.8,138.9 474.8,138.9 476.6,137.2 473.4,137.2 473.4,135.4 476.6,135.4 
									474.8,133.7 476.8,133.7 								"/>
							</g>
							<g>
								<g>
									<path class="st6" d="M465.5,132.9v4.6h1.3v-1.1l0.5-1c0-0.1,0-0.2-0.1-0.2l-0.3,0c0,0-0.1,0-0.1,0.1l-0.4,0.7
										c-0.1,0.1-0.3,0.2-0.4,0.1l0,0c-0.1-0.1-0.1-0.2-0.1-0.3l0.6-0.9c0,0,0.1,0,0.1,0h1.7c0,0,0.1,0,0.1,0l0.7,0.9
										c0,0,0.1,0,0.1,0h0.6v-2.8H465.5z M468.4,134.6c-0.3,0-0.5-0.2-0.5-0.5c0-0.3,0.2-0.5,0.5-0.5c0.3,0,0.5,0.2,0.5,0.5
										C468.9,134.4,468.7,134.6,468.4,134.6z"/>
								</g>
								<g>
									<path class="st6" d="M469.9,136.2v3l-0.5,0.5h-0.8l0.5-0.5h-0.6l-0.5,0.5H465l0.5-0.5v-1h1.6c0.2,0,0.4-0.2,0.4-0.4v-1
										l1,2.1c0,0,0,0,0.1,0h0.5c0.1,0,0.1-0.1,0.1-0.1l-1.1-2.3c0-0.1,0-0.2,0-0.3l0.3-0.5c0-0.1,0.1-0.1,0.2,0l0.4,0.5H469.9z"
										/>
								</g>
								<g>
									<g>
										<path class="st6" d="M465.5,138.3h-0.7v-0.1c0-0.5,0.2-0.9,0.7-0.9v0.1c-0.5,0-0.6,0.4-0.6,0.7h0.6V138.3z"/>
									</g>
								</g>
							</g>
							<g>
								<g>
									<circle class="st75" cx="458.3" cy="136.3" r="3.8"/>
								</g>
								<g>
									<rect x="455.7" y="135.7" class="st6" width="5.2" height="1.2"/>
								</g>
							</g>
						</g>
					</g>
					<g id="deur_00000166663978926098256280000015845121010702153647_">
						<g id="deur_omtrek_00000098216869457587587150000014693533597608439440_">
							<path d="M486.5,50.9h-38.6c-3.9,0-7.1,3.1-7.1,6.9v134.6c0,3.8,3.2,6.9,7.1,6.9h38.6c3.9,0,7.1-3.1,7.1-6.9V57.8
								C493.5,54,490.4,50.9,486.5,50.9z M492,192.4c0,3-2.5,5.4-5.6,5.4h-38.6c-3.1,0-5.6-2.4-5.6-5.4V57.8c0-3,2.5-5.4,5.6-5.4
								h38.6c3.1,0,5.6,2.4,5.6,5.4V192.4z"/>
						</g>
						<g id="raam_00000018922911370338040700000005973723375197635754_" class="st1">
							<path d="M492.8,57.1v136c0,3-2.6,5.5-5.7,5.5h-39.7c-3.2,0-5.7-2.5-5.7-5.5v-136c0-3,2.6-5.5,5.7-5.5H487
								C490.2,51.6,492.8,54.1,492.8,57.1z"/>
						</g>
						<g id="deur_inner_omtrek_00000121237021309892698870000007486865289266256527_">
							<path d="M479.4,187.3h-24.5c-3,0-5.5-3-5.5-6.6V69.5c0-3.6,2.5-6.6,5.5-6.6h24.5c3,0,5.5,3,5.5,6.6v111.2
								C484.9,184.3,482.5,187.3,479.4,187.3z M454.9,65.9c-1.4,0-2.5,1.6-2.5,3.6v111.2c0,2,1.2,3.6,2.5,3.6h24.5
								c1.4,0,2.5-1.6,2.5-3.6V69.5c0-2-1.2-3.6-2.5-3.6H454.9z"/>
						</g>
					</g>
				</g>
			</g>
			<g id="achter_deuren">
				<g id="achter_deur_frame">
					<path d="M181.9,199.3H92.2c-3.9,0-7.1-3.1-7.1-6.9V57.7c0-3.8,3.2-6.9,7.1-6.9h89.8c3.9,0,7.1,3.1,7.1,6.9v134.7
						C189,196.3,185.8,199.3,181.9,199.3z M92.2,52.4c-3.1,0-5.6,2.4-5.6,5.4v134.7c0,3,2.5,5.4,5.6,5.4h89.8c3.1,0,5.6-2.4,5.6-5.4
						V57.7c0-3-2.5-5.4-5.6-5.4H92.2z"/>
				</g>
				<g id="achter_deur_links">
					<g id="niet_instappen_board_00000075860990383077867820000000297350652143039665_">
						<g>
							<path class="st74" d="M124,142.1H97.1c-0.8,0-1.4-0.6-1.4-1.4v-8.8c0-0.8,0.6-1.4,1.4-1.4H124c0.8,0,1.4,0.6,1.4,1.4v8.8
								C125.4,141.5,124.7,142.1,124,142.1z"/>
						</g>
						<g>
							<g>
								<polygon class="st6" points="123,136.3 120.4,138.9 118.4,138.9 120.1,137.2 117,137.2 117,135.4 120.1,135.4 118.4,133.7 
									120.4,133.7 								"/>
							</g>
							<g>
								<g>
									<path class="st6" d="M109.1,132.9v4.6h1.3v-1.1l0.5-1c0-0.1,0-0.2-0.1-0.2l-0.3,0c0,0-0.1,0-0.1,0.1L110,136
										c-0.1,0.1-0.3,0.2-0.4,0.1l0,0c-0.1-0.1-0.1-0.2-0.1-0.3l0.6-0.9c0,0,0.1,0,0.1,0h1.7c0,0,0.1,0,0.1,0l0.7,0.9
										c0,0,0.1,0,0.1,0h0.6v-2.8H109.1z M111.9,134.6c-0.3,0-0.5-0.2-0.5-0.5c0-0.3,0.2-0.5,0.5-0.5c0.3,0,0.5,0.2,0.5,0.5
										C112.5,134.4,112.2,134.6,111.9,134.6z"/>
								</g>
								<g>
									<path class="st6" d="M113.4,136.2v3l-0.5,0.5h-0.8l0.5-0.5h-0.6l-0.5,0.5h-2.9l0.5-0.5v-1h1.6c0.2,0,0.4-0.2,0.4-0.4v-1
										l1,2.1c0,0,0,0,0.1,0h0.5c0.1,0,0.1-0.1,0.1-0.1l-1.1-2.3c0-0.1,0-0.2,0-0.3l0.3-0.5c0-0.1,0.1-0.1,0.2,0l0.4,0.5H113.4z"
										/>
								</g>
								<g>
									<g>
										<path class="st6" d="M109.1,138.3h-0.7v-0.1c0-0.5,0.2-0.9,0.7-0.9v0.1c-0.5,0-0.6,0.4-0.6,0.7h0.6V138.3z"/>
									</g>
								</g>
							</g>
							<g>
								<g>
									<circle class="st75" cx="101.8" cy="136.3" r="3.8"/>
								</g>
								<g>
									<rect x="99.2" y="135.7" class="st6" width="5.2" height="1.2"/>
								</g>
							</g>
						</g>
					</g>
					<g id="deur_00000103977219549822271190000017644629125121874825_">
						<g id="deur_omtrek_00000167372791528117200730000000317523824529793156_">
							<path d="M130.7,199.3H92.2c-3.9,0-7.1-3.1-7.1-6.9V57.8c0-3.8,3.2-6.9,7.1-6.9h38.6c3.9,0,7.1,3.1,7.1,6.9v134.6
								C137.8,196.2,134.6,199.3,130.7,199.3z M92.2,52.4c-3.1,0-5.6,2.4-5.6,5.4v134.6c0,3,2.5,5.4,5.6,5.4h38.6
								c3.1,0,5.6-2.4,5.6-5.4V57.8c0-3-2.5-5.4-5.6-5.4H92.2z"/>
						</g>
						<g id="raam_00000096780844944393432720000012797021895176110209_" class="st1">
							<path d="M137.1,57.8v134.6c0,3.4-2.8,6.2-6.3,6.2H92.2c-3.5,0-6.3-2.8-6.3-6.2V57.8c0-3.4,2.8-6.2,6.3-6.2h38.6
								C134.2,51.6,137.1,54.4,137.1,57.8z"/>
						</g>
						<g id="deur_inner_omtrek_00000013153649406011904120000009564868588408304063_">
							<path d="M123.7,187.3H99.2c-3,0-5.5-3-5.5-6.6V69.5c0-3.6,2.5-6.6,5.5-6.6h24.5c3,0,5.5,3,5.5,6.6v111.2
								C129.2,184.3,126.8,187.3,123.7,187.3z M99.2,65.9c-1.4,0-2.5,1.6-2.5,3.6v111.2c0,2,1.2,3.6,2.5,3.6h24.5
								c1.4,0,2.5-1.6,2.5-3.6V69.5c0-2-1.2-3.6-2.5-3.6H99.2z"/>
						</g>
					</g>
				</g>
				<g id="achter_deur_rechts">
					<g id="niet_instappen_board_00000117641841639688551820000006147704796332496258_">
						<g>
							<path class="st74" d="M175.9,142.1H149c-0.8,0-1.4-0.6-1.4-1.4v-8.8c0-0.8,0.6-1.4,1.4-1.4h26.9c0.8,0,1.4,0.6,1.4,1.4v8.8
								C177.3,141.5,176.7,142.1,175.9,142.1z"/>
						</g>
						<g>
							<g>
								<polygon class="st6" points="174.9,136.3 172.3,138.9 170.3,138.9 172,137.2 168.9,137.2 168.9,135.4 172,135.4 
									170.3,133.7 172.3,133.7 								"/>
							</g>
							<g>
								<g>
									<path class="st6" d="M161,132.9v4.6h1.3v-1.1l0.5-1c0-0.1,0-0.2-0.1-0.2l-0.3,0c0,0-0.1,0-0.1,0.1l-0.4,0.7
										c-0.1,0.1-0.3,0.2-0.4,0.1l0,0c-0.1-0.1-0.1-0.2-0.1-0.3l0.6-0.9c0,0,0.1,0,0.1,0h1.7c0,0,0.1,0,0.1,0l0.7,0.9
										c0,0,0.1,0,0.1,0h0.6v-2.8H161z M163.8,134.6c-0.3,0-0.5-0.2-0.5-0.5c0-0.3,0.2-0.5,0.5-0.5c0.3,0,0.5,0.2,0.5,0.5
										C164.4,134.4,164.1,134.6,163.8,134.6z"/>
								</g>
								<g>
									<path class="st6" d="M165.4,136.2v3l-0.5,0.5h-0.8l0.5-0.5H164l-0.5,0.5h-2.9l0.5-0.5v-1h1.6c0.2,0,0.4-0.2,0.4-0.4v-1
										l1,2.1c0,0,0,0,0.1,0h0.5c0.1,0,0.1-0.1,0.1-0.1l-1.1-2.3c0-0.1,0-0.2,0-0.3l0.3-0.5c0-0.1,0.1-0.1,0.2,0l0.4,0.5H165.4z"
										/>
								</g>
								<g>
									<g>
										<path class="st6" d="M161,138.3h-0.7v-0.1c0-0.5,0.2-0.9,0.7-0.9v0.1c-0.5,0-0.6,0.4-0.6,0.7h0.6V138.3z"/>
									</g>
								</g>
							</g>
							<g>
								<g>
									<circle class="st75" cx="153.8" cy="136.3" r="3.8"/>
								</g>
								<g>
									<rect x="151.2" y="135.7" class="st6" width="5.2" height="1.2"/>
								</g>
							</g>
						</g>
					</g>
					<g id="deur_00000064340456909340087930000015613193621589602492_">
						<g id="deur_omtrek_00000116940973858647533440000005117673607981789593_">
							<path d="M181.9,199.3h-38.6c-3.9,0-7.1-3.1-7.1-6.9V57.8c0-3.8,3.2-6.9,7.1-6.9h38.6c3.9,0,7.1,3.1,7.1,6.9v134.6
								C189,196.2,185.8,199.3,181.9,199.3z M143.4,52.4c-3.1,0-5.6,2.4-5.6,5.4v134.6c0,3,2.5,5.4,5.6,5.4h38.6
								c3.1,0,5.6-2.4,5.6-5.4V57.8c0-3-2.5-5.4-5.6-5.4H143.4z"/>
						</g>
						<g id="raam_00000122685245123127534820000015872830724391636871_" class="st1">
							<path d="M188.3,57.8v134.6c0,3.4-2.8,6.2-6.3,6.2h-38.6c-3.5,0-6.3-2.8-6.3-6.2V57.8c0-3.4,2.8-6.2,6.3-6.2h38.6
								C185.4,51.6,188.3,54.4,188.3,57.8z"/>
						</g>
						<g id="deur_inner_omtrek_00000078035938523295813670000013221114179435614878_">
							<path d="M174.9,187.3h-24.5c-3,0-5.5-3-5.5-6.6V69.5c0-3.6,2.5-6.6,5.5-6.6h24.5c3,0,5.5,3,5.5,6.6v111.2
								C180.4,184.3,178,187.3,174.9,187.3z M150.4,65.9c-1.4,0-2.5,1.6-2.5,3.6v111.2c0,2,1.2,3.6,2.5,3.6h24.5
								c1.4,0,2.5-1.6,2.5-3.6V69.5c0-2-1.2-3.6-2.5-3.6H150.4z"/>
						</g>
					</g>
				</g>
			</g>
			<path id="voorgrond_omtrek" d="M830.4,52.5h-51.6c-2.4,0-4.6,0.7-6.3,1.8c-0.2,0.1-0.3,0.2-0.5,0.3c0,0-0.1,0.1-0.1,0.1
				c-1.7,1.3-2.8,3.1-2.8,5.1v134.6c0,0.4,0,0.8,0.1,1.2c0.1,0.3,0.2,0.7,0.3,1c0.4,1,1,1.8,1.9,2.6c1.8,1.6,4.4,2.6,7.3,2.6h51.6
				c2.9,0,5.5-1,7.3-2.6c0.7-0.6,1.3-1.4,1.7-2.2c0.1-0.3,0.3-0.6,0.4-1c0.2-0.5,0.2-1.1,0.2-1.6V59.8
				C840,55.8,835.7,52.5,830.4,52.5z M837.7,194.5c0,0.4-0.1,0.7-0.2,1.1c-0.7,2.2-3.6,3.9-7.1,3.9h-51.6c-3.7,0-6.8-1.9-7.2-4.4
				c0-0.2-0.1-0.4-0.1-0.6V59.8c0-2.8,3.3-5,7.3-5h51.6c4,0,7.3,2.2,7.3,5V194.5z"/>
			<g id="voor_deur_00000020390779419725637710000011282570284456684930_">
				<path id="raam" class="st1" d="M838.6,58.6v137.1c0,0.4-0.1,0.8-0.2,1.1c-0.7,2.3-3.7,4-7.3,4h-53c-3.8,0-7-1.9-7.4-4.4
					c-0.1-0.2-0.1-0.4-0.1-0.7V58.6c0-2.8,3.4-5.1,7.5-5.1h53C835.2,53.5,838.6,55.8,838.6,58.6z"/>
				<path id="deur_omtrek_00000096036329881152164030000008841652055315695251_" d="M830.4,52.5h-51.6c-2.4,0-4.6,0.7-6.3,1.8
					c-0.2,0.1-0.3,0.2-0.5,0.3c0,0-0.1,0.1-0.1,0.1c-1.7,1.3-2.8,3.1-2.8,5.1v134.6c0,0.4,0,0.8,0.1,1.2c0.1,0.3,0.2,0.7,0.3,1
					c0.4,1,1,1.8,1.9,2.6c1.8,1.6,4.4,2.6,7.3,2.6h51.6c2.9,0,5.5-1,7.3-2.6c0.7-0.6,1.3-1.4,1.7-2.2c0.1-0.3,0.3-0.6,0.4-1
					c0.2-0.5,0.2-1.1,0.2-1.6V59.8C840,55.8,835.7,52.5,830.4,52.5z M837.7,194.5c0,0.4-0.1,0.7-0.2,1.1c-0.7,2.2-3.6,3.9-7.1,3.9
					h-51.6c-3.7,0-6.8-1.9-7.2-4.4c0-0.2-0.1-0.4-0.1-0.6v-59.4h66.2V194.5z M837.7,132.7h-66.2V59.8c0-2.8,3.3-5,7.3-5h51.6
					c4,0,7.3,2.2,7.3,5V132.7z"/>
			</g>
		</g>
	</g>
</g>
</svg>
