<?xml version="1.0" encoding="utf-8"?>
<!-- Generator: Adobe Illustrator 27.5.0, SVG Export Plug-In . SVG Version: 6.00 Build 0)  -->
<svg version="1.1" id="Laag_1" xmlns="http://www.w3.org/2000/svg" xmlns:xlink="http://www.w3.org/1999/xlink" x="0px" y="0px"
	 viewBox="0 0 311.3 474.6" style="enable-background:new 0 0 311.3 474.6;" xml:space="preserve">
<style type="text/css">
	.check-in-st0{fill:#454A4C;}
	.check-in-st1{fill:#9EA9AF;}
	.check-in-st2{fill:#D1D8D1;}
	.check-in-st3{fill:#2E3035;}
	.check-in-st4{fill:#FFFFFF;}
	.check-in-st5{fill:#CCCBD9;}
	.check-in-st6{fill:#931A43;}
</style>
<g>
	<g>
		<path class="check-in-st0" d="M273.8,16.7c11.9,0,21.6,9.7,21.6,21.6v280c0,77.9-63.8,140.9-142,139.6C76.8,456.6,16.2,392.5,16.2,316V38.3
			c0-11.9,9.7-21.6,21.6-21.6H273.8z"/>
	</g>
	<g>
		<path class="check-in-st1" d="M291.3,176.5v139.1c0,85.6-79.3,152.7-168.4,131.9c-60.8-14.2-103-69.6-103-132v-139H291.3z"/>
	</g>
	<g>
		<g>
			<path class="check-in-st2" d="M291.5,39.6v136.9H20.1V39.6c0-10.5,8.5-19,19.1-19h233.2C282.9,20.6,291.5,29.1,291.5,39.6z"/>
		</g>
		<g>
			<g>
				<path class="check-in-st3" d="M238.1,151.1H73.5c-3.2,0-5.8-2.6-5.8-5.8V54c0-3.2,2.6-5.8,5.8-5.8h164.7c3.2,0,5.8,2.6,5.8,5.8v91.3
					C243.9,148.5,241.3,151.1,238.1,151.1z"/>
			</g>
			<g id="logo_00000109708701156032448580000006317146602733164444_">
				<g>
					<path class="check-in-st4" d="M155.3,112.4c-0.3,0-0.5-0.2-0.5-0.5V87.4c0-0.3,0.2-0.5,0.5-0.5s0.5,0.2,0.5,0.5v24.5
						C155.8,112.2,155.5,112.4,155.3,112.4z"/>
				</g>
				<path class="check-in-st4" d="M125.2,92.1l-2.9,5c-0.6-1.8-1.8-3.5-3.7-4.5c-0.8-0.4-1.5-0.7-2.3-0.9l-1.7-3.4l-1.7,3.4
					c-2.2,0.5-4.1,1.8-5.3,3.9L99.2,110c-1.3,2.3-4.3,3.1-6.7,1.8c-0.8-0.4-1.4-1.1-1.8-1.8L79.6,90.6c-0.7-1.2-0.3-2.7,0.9-3.3
					c1.2-0.7,2.7-0.3,3.3,0.9l10.9,19c0.1,0.2,0.4,0.2,0.5,0l8.1-14c3.6-6.2,11.6-8.4,17.8-4.8C122.8,89.4,124.1,90.6,125.2,92.1z
					 M149.6,108.7l-11.2-19.4c-0.4-0.7-1-1.3-1.8-1.8c-2.3-1.3-5.3-0.5-6.7,1.8l-8.3,14.4c-1.2,2.1-3.2,3.4-5.3,3.9l-1.7,3.5
					l-1.7-3.4c-0.8-0.2-1.6-0.5-2.3-0.9c-1.8-1-3.1-2.7-3.7-4.5l-2.9,5c1.1,1.5,2.4,2.8,4.1,3.7c6.2,3.6,14.2,1.5,17.8-4.8l8.1-14
					c0.1-0.2,0.4-0.2,0.5,0l10.9,19c0.7,1.2,2.2,1.6,3.3,0.9C149.8,111.4,150.2,109.9,149.6,108.7z"/>
				<g>
					<g>
						<path class="check-in-st4" d="M167.2,89.7c0.1-0.3,0.4-0.4,0.6-0.3c0.3,0.1,0.4,0.4,0.3,0.7l-2.6,7.1c-0.2,0.6-0.6,0.9-1.1,0.9
							c-0.5,0-0.8-0.3-1.1-0.9l-2.6-7.1c-0.1-0.3,0-0.6,0.3-0.7c0.3-0.1,0.5,0,0.6,0.3l2.6,7.3c0,0,0.1,0.1,0.1,0.1s0.1-0.1,0.1-0.1
							L167.2,89.7z"/>
						<path class="check-in-st4" d="M173.7,94.4c0,0.4-0.2,0.7-0.7,0.7h-3.6v0.2c0,1.1,0.7,1.8,1.8,1.8c0.4,0,0.9-0.1,1.5-0.3
							c0.4-0.2,0.7,0.1,0.7,0.4c0,0.2-0.1,0.3-0.3,0.4c-0.4,0.2-1.2,0.4-1.9,0.4c-1.7,0-2.7-1.1-2.8-2.6c0-0.5,0-1.1,0-1.5
							c0.1-1.6,1.2-2.5,2.7-2.5c1.6,0,2.6,1.1,2.6,2.6V94.4L173.7,94.4z M172.6,94.3c0.1,0,0.1,0,0.2-0.1c0.1-1.1-0.6-1.8-1.6-1.8
							c-1.2,0-1.8,0.8-1.7,2H172.6z"/>
						<path class="check-in-st4" d="M178.9,92c0,0.2-0.1,0.4-0.5,0.4c-0.2,0-0.5-0.1-1-0.1c-0.7,0-1,0.4-1,1.1v4c0,0.3-0.2,0.5-0.5,0.5
							c-0.3,0-0.5-0.2-0.5-0.5v-4.1c0-1.2,0.7-1.9,2-1.9c0.4,0,0.8,0.1,1.1,0.1C178.8,91.6,178.9,91.8,178.9,92z"/>
						<path class="check-in-st4" d="M185.6,92.2l-1.9,5c-0.2,0.5-0.5,0.8-0.9,0.8c-0.4,0-0.7-0.3-0.9-0.8l-1.9-5c-0.1-0.4,0.1-0.7,0.5-0.7
							c0.2,0,0.4,0.2,0.4,0.4l1.8,5c0,0,0,0,0.1,0s0,0,0.1,0l1.8-5c0.1-0.2,0.3-0.4,0.5-0.4C185.5,91.5,185.7,91.9,185.6,92.2z"/>
						<path class="check-in-st4" d="M192.1,93.8c0,0.5,0,1.2,0,1.7c-0.1,1.4-1.2,2.5-2.7,2.5c-1.5,0-2.6-1-2.7-2.5c0-0.5,0-1.2,0-1.7
							c0.1-1.4,1.2-2.4,2.7-2.4C190.9,91.4,192,92.4,192.1,93.8z M187.7,93.9c0,0.4,0,1.2,0,1.6c0.1,0.9,0.7,1.6,1.7,1.6
							c1,0,1.6-0.6,1.7-1.6c0-0.4,0-1.2,0-1.6c-0.1-0.9-0.7-1.6-1.7-1.6S187.7,93,187.7,93.9z"/>
						<path class="check-in-st4" d="M199,94.4c0,0.4-0.2,0.7-0.7,0.7h-3.6v0.2c0,1.1,0.7,1.8,1.8,1.8c0.4,0,0.9-0.1,1.5-0.3
							c0.4-0.2,0.7,0.1,0.7,0.4c0,0.2-0.1,0.3-0.3,0.4c-0.4,0.2-1.2,0.4-1.9,0.4c-1.7,0-2.7-1.1-2.8-2.6c0-0.5,0-1.1,0-1.5
							c0.1-1.6,1.2-2.5,2.7-2.5c1.6,0,2.6,1.1,2.6,2.6V94.4z M197.9,94.3c0.1,0,0.1,0,0.2-0.1c0.1-1.1-0.6-1.8-1.6-1.8
							c-1.2,0-1.8,0.8-1.7,2H197.9z"/>
						<path class="check-in-st4" d="M204.1,92c0,0.2-0.1,0.4-0.5,0.4c-0.2,0-0.5-0.1-1-0.1c-0.7,0-1,0.4-1,1.1v4c0,0.3-0.2,0.5-0.5,0.5
							c-0.3,0-0.5-0.2-0.5-0.5v-4.1c0-1.2,0.7-1.9,2-1.9c0.4,0,0.8,0.1,1.1,0.1C204,91.6,204.1,91.8,204.1,92z"/>
						<path class="check-in-st4" d="M208.7,92c0,0.2-0.1,0.4-0.5,0.4c-0.2,0-0.5-0.1-1-0.1c-0.7,0-1,0.4-1,1.1v4c0,0.3-0.2,0.5-0.5,0.5
							c-0.3,0-0.5-0.2-0.5-0.5v-4.1c0-1.2,0.7-1.9,2-1.9c0.4,0,0.8,0.1,1.1,0.1C208.6,91.6,208.7,91.8,208.7,92z"/>
						<path class="check-in-st4" d="M214.9,94.4c0,0.4-0.2,0.7-0.7,0.7h-3.6v0.2c0,1.1,0.7,1.8,1.8,1.8c0.4,0,0.9-0.1,1.5-0.3
							c0.4-0.2,0.7,0.1,0.7,0.4c0,0.2-0.1,0.3-0.3,0.4c-0.4,0.2-1.2,0.4-1.9,0.4c-1.7,0-2.7-1.1-2.8-2.6c0-0.5,0-1.1,0-1.5
							c0.1-1.6,1.2-2.5,2.7-2.5c1.6,0,2.6,1.1,2.6,2.6V94.4z M213.8,94.3c0.1,0,0.1,0,0.2-0.1c0.1-1.1-0.6-1.8-1.6-1.8
							c-1.2,0-1.8,0.8-1.7,2H213.8z"/>
						<path class="check-in-st4" d="M221.7,97.5c0,1.7-1,2.7-3,2.7c-0.4,0-0.9,0-1.4-0.1c-0.2,0-0.4-0.2-0.4-0.4c0-0.3,0.2-0.5,0.6-0.5
							c0.5,0.1,0.9,0.1,1.3,0.1c1.4,0,2-0.7,2-1.8c-0.4,0.2-1.1,0.4-1.8,0.4c-1.5,0-2.4-1-2.5-2.4c0-0.5,0-1.1,0-1.5
							c0.1-1.4,1.1-2.5,2.5-2.5c1.3,0,2.2,0.5,2.5,0.7c0.2,0.1,0.2,0.2,0.2,0.4L221.7,97.5L221.7,97.5z M217.4,94c0,0.4,0,1,0,1.4
							c0.1,0.9,0.6,1.6,1.5,1.6s1.5-0.3,1.8-0.5v-3.6c0,0-0.7-0.4-1.6-0.4C218,92.4,217.5,93,217.4,94z"/>
						<path class="check-in-st4" d="M224.3,90.6c-0.3,0-0.6-0.3-0.6-0.6c0-0.3,0.3-0.6,0.6-0.6s0.6,0.3,0.6,0.6
							C224.9,90.3,224.6,90.6,224.3,90.6z M224.8,92v5.4c0,0.3-0.2,0.5-0.5,0.5c-0.3,0-0.5-0.2-0.5-0.5V92c0-0.3,0.2-0.5,0.5-0.5
							C224.6,91.5,224.8,91.8,224.8,92z"/>
						<path class="check-in-st4" d="M232.3,93.8c0,0.5,0,1.2,0,1.7c-0.1,1.4-1.2,2.5-2.7,2.5c-1.5,0-2.6-1-2.7-2.5c0-0.5,0-1.2,0-1.7
							c0.1-1.4,1.2-2.4,2.7-2.4C231.1,91.4,232.2,92.4,232.3,93.8z M227.8,93.9c0,0.4,0,1.2,0,1.6c0.1,0.9,0.7,1.6,1.7,1.6
							c1,0,1.6-0.6,1.7-1.6c0-0.4,0-1.2,0-1.6c-0.1-0.9-0.7-1.6-1.7-1.6C228.5,92.4,227.9,93,227.8,93.9z"/>
					</g>
					<g>
						<path class="check-in-st4" d="M166.4,107.1h-3.9l-0.9,2.5c-0.1,0.3-0.4,0.4-0.7,0.3c-0.3-0.1-0.4-0.4-0.3-0.6l2.5-7
							c0.2-0.6,0.7-0.9,1.3-0.9c0.5,0,1,0.3,1.2,0.9l2.5,7c0.1,0.2,0,0.5-0.3,0.6c-0.3,0.1-0.6,0-0.7-0.3L166.4,107.1z M162.9,106.1
							h3.2l-1.3-3.6c0-0.1-0.2-0.2-0.3-0.2c-0.2,0-0.3,0.1-0.3,0.2L162.9,106.1z"/>
						<path class="check-in-st4" d="M178.1,109.5c0,0.3-0.2,0.5-0.5,0.5c-0.3,0-0.5-0.2-0.5-0.5V106c0-1.1-0.5-1.6-1.4-1.6
							c-0.7,0-1.1,0.3-1.4,0.6v4.4c0,0.3-0.2,0.5-0.5,0.5c-0.3,0-0.5-0.2-0.5-0.5v-3.6c0-1-0.5-1.5-1.4-1.5c-0.9,0-1.3,0.4-1.4,0.4
							v4.7c0,0.3-0.2,0.5-0.5,0.5c-0.3,0-0.5-0.2-0.5-0.5v-4.9c0-0.2,0.1-0.3,0.3-0.5c0.5-0.4,1.3-0.6,2.1-0.6
							c0.9,0,1.5,0.3,1.9,0.7c0.4-0.3,0.9-0.7,1.9-0.7c1.7,0,2.3,0.9,2.3,2.5L178.1,109.5L178.1,109.5z"/>
						<path class="check-in-st4" d="M184.4,108.1c0,1.2-0.9,1.9-2.4,1.9c-0.9,0-1.6-0.2-2.2-0.7c-0.2-0.2-0.2-0.5-0.1-0.7
							c0.2-0.2,0.4-0.3,0.7-0.1c0.4,0.3,0.8,0.5,1.7,0.5c0.8,0,1.3-0.4,1.3-1c0-0.4-0.3-0.7-1-0.9c-0.4-0.1-0.4-0.1-0.9-0.2
							c-1.1-0.3-1.7-0.8-1.7-1.7c0-1.2,0.9-1.9,2.3-1.9c0.7,0,1.4,0.2,1.7,0.5c0.2,0.2,0.2,0.5,0.1,0.7c-0.2,0.2-0.4,0.2-0.7,0.1
							c-0.4-0.2-0.8-0.4-1.2-0.4c-0.8,0-1.3,0.4-1.3,0.9c0,0.4,0.2,0.6,0.9,0.8c0.4,0.1,0.8,0.2,1,0.2
							C183.8,106.6,184.4,107.2,184.4,108.1z"/>
						<path class="check-in-st4" d="M187.8,110c-1.3,0-1.9-0.9-1.9-2v-5.3c0-0.3,0.2-0.5,0.5-0.5c0.3,0,0.5,0.2,0.5,0.5v1h1.8
							c0.2,0,0.5,0.2,0.5,0.4s-0.2,0.4-0.5,0.4h-1.8v3.4c0,0.6,0.3,1.1,0.9,1.1c0.4,0,0.7-0.1,1-0.2c0.4-0.1,0.6,0.1,0.6,0.4
							c0,0.2-0.1,0.4-0.4,0.5C188.8,110,188.3,110,187.8,110z"/>
						<path class="check-in-st4" d="M196,106.5c0,0.4-0.2,0.7-0.7,0.7h-3.6v0.2c0,1.1,0.7,1.8,1.8,1.8c0.4,0,0.9-0.1,1.5-0.3
							c0.4-0.2,0.7,0.1,0.7,0.4c0,0.2-0.1,0.3-0.3,0.4c-0.4,0.2-1.2,0.4-1.9,0.4c-1.7,0-2.7-1.1-2.8-2.6c0-0.5,0-1.1,0-1.5
							c0.1-1.6,1.2-2.5,2.7-2.5c1.6,0,2.6,1.1,2.6,2.6V106.5z M194.8,106.3c0.1,0,0.1,0,0.2-0.1c0.1-1.1-0.6-1.8-1.6-1.8
							c-1.2,0-1.8,0.8-1.7,2H194.8z"/>
						<path class="check-in-st4" d="M201.1,104.1c0,0.2-0.1,0.4-0.5,0.4c-0.2,0-0.5-0.1-1-0.1c-0.7,0-1,0.4-1,1.1v4c0,0.3-0.2,0.5-0.5,0.5
							c-0.3,0-0.5-0.2-0.5-0.5v-4.1c0-1.2,0.7-1.9,2-1.9c0.4,0,0.8,0.1,1.1,0.1C201,103.7,201.1,103.8,201.1,104.1z"/>
						<path class="check-in-st4" d="M204.7,103.5c0.7,0,1.3,0.2,1.7,0.4v-2c0-0.3,0.2-0.5,0.5-0.5c0.3,0,0.5,0.2,0.5,0.5v7.1
							c0,0.2,0,0.3-0.2,0.4c-0.3,0.2-1.3,0.7-2.4,0.7c-1.6,0-2.6-1-2.7-2.5c0-0.4,0-1.3,0-1.7C202.2,104.4,203.1,103.5,204.7,103.5z
							 M204.8,109.1c0.6,0,1.3-0.3,1.6-0.5v-3.8c-0.3-0.2-1-0.4-1.7-0.4c-1,0-1.5,0.5-1.6,1.5c0,0.4,0,1.2,0,1.6
							C203.2,108.6,203.7,109.1,204.8,109.1z"/>
						<path class="check-in-st4" d="M214.2,109c0,0.2,0,0.3-0.2,0.4c-0.3,0.2-1.3,0.7-2.5,0.7c-1.6,0-2.4-0.8-2.4-2.1c0-1.1,0.8-2,2.4-2
							c0.6,0,1.1,0.1,1.7,0.3v-0.5c0-1-0.5-1.4-1.5-1.4c-0.6,0-1.1,0.2-1.4,0.3c-0.4,0.2-0.7-0.1-0.7-0.4c0-0.2,0.1-0.4,0.3-0.5
							c0.4-0.2,1.1-0.4,1.9-0.4c1.4,0,2.4,0.7,2.4,2.3L214.2,109L214.2,109z M213.2,108.7v-1.6c-0.6-0.2-1.1-0.3-1.7-0.3
							c-0.8,0-1.5,0.4-1.5,1.1c0,0.8,0.5,1.2,1.6,1.2C212.6,109.2,213.1,108.8,213.2,108.7z"/>
						<path class="check-in-st4" d="M224.7,109.5c0,0.3-0.2,0.5-0.5,0.5c-0.3,0-0.5-0.2-0.5-0.5V106c0-1.1-0.5-1.6-1.4-1.6
							c-0.7,0-1.1,0.3-1.4,0.6v4.4c0,0.3-0.2,0.5-0.5,0.5c-0.3,0-0.5-0.2-0.5-0.5v-3.6c0-1-0.5-1.5-1.4-1.5c-0.9,0-1.3,0.4-1.4,0.4
							v4.7c0,0.3-0.2,0.5-0.5,0.5c-0.3,0-0.5-0.2-0.5-0.5v-4.9c0-0.2,0.1-0.3,0.3-0.5c0.5-0.4,1.3-0.6,2.1-0.6
							c0.9,0,1.5,0.3,1.9,0.7c0.4-0.3,0.9-0.7,1.9-0.7c1.7,0,2.3,0.9,2.3,2.5L224.7,109.5L224.7,109.5z"/>
					</g>
				</g>
			</g>
		</g>
	</g>
	<g>
		<g>
			<path class="check-in-st4" d="M247.3,318.3c0,8.9-1.3,17.4-3.6,25.5c-0.9,3.1-1.9,6.1-3.1,9c-5.7,14.1-14.9,26.4-26.4,36
				c-1.5,1.3-3.1,2.5-4.7,3.6c-15.1,11-33.8,17.5-53.9,17.5c-50.6,0-91.7-41-91.7-91.7s41-91.7,91.7-91.7S247.3,267.7,247.3,318.3z"
				/>
		</g>
		<g>
			<g>
				<path class="check-in-st5" d="M206.8,287v16.8H99.4V287c0-3.4,2.7-6.1,6.1-6.1h95.2C204.1,280.9,206.8,283.6,206.8,287z"/>
			</g>
			<g>
				<path class="check-in-st6" d="M206.8,303.7v44.9c0,3.4-2.7,6.1-6.1,6.1H194c-2,0-3.9-1.4-4.4-3.3l-6.6-23.2c-1.1-3.7-4.8-6-8.6-5.2
					l-3.9,0.8c-4.3,0.9-7,5.2-5.7,9.5l6.2,21.4h-65.4c-3.4,0-6.1-2.7-6.1-6.1v-44.9H206.8z"/>
			</g>
			<g>
				<path d="M200.7,357.6h-6.3c-3.6,0-6.7-2.4-7.7-5.8l-6.5-22.7c-0.7-2.3-3-3.7-5.3-3.2l-3.9,0.8c-1.3,0.3-2.4,1-3.1,2.2
					c-0.7,1.1-0.9,2.5-0.5,3.8l7.3,25h-69.2c-4.9,0-8.9-4-8.9-8.9V287c0-4.9,4-8.9,8.9-8.9h95.2c4.9,0,8.9,4,8.9,8.9v61.7
					C209.6,353.6,205.6,357.6,200.7,357.6z M175.8,320.1c4.5,0,8.6,3,9.8,7.4l6.5,22.7c0.3,1,1.2,1.7,2.3,1.7h6.3
					c1.8,0,3.3-1.5,3.3-3.3V287c0-1.8-1.5-3.3-3.3-3.3h-95.2c-1.8,0-3.3,1.5-3.3,3.3v61.7c0,1.8,1.5,3.3,3.3,3.3h61.7l-5.2-17.8
					c-0.8-2.8-0.4-5.8,1.1-8.2c1.5-2.5,4-4.2,6.8-4.8l3.9-0.8C174.5,320.2,175.1,320.1,175.8,320.1z"/>
			</g>
			<g>
				<g>
					<path class="check-in-st6" d="M115.4,293.4c-1.7,0-3.1-1.4-3.1-3.1c0-1.7,1.4-3.1,3.1-3.1s3.1,1.4,3.1,3.1
						C118.5,292,117.1,293.4,115.4,293.4z M115.4,288.7c-0.9,0-1.7,0.8-1.7,1.7c0,0.9,0.8,1.7,1.7,1.7c0.9,0,1.7-0.8,1.7-1.7
						C117.1,289.4,116.3,288.7,115.4,288.7z"/>
				</g>
				<g>
					<path class="check-in-st6" d="M121.4,301.3c-1.7,0-3.1-1.4-3.1-3.1c0-1.7,1.4-3.1,3.1-3.1s3.1,1.4,3.1,3.1
						C124.5,299.9,123.1,301.3,121.4,301.3z M121.4,296.5c-0.9,0-1.7,0.8-1.7,1.7c0,0.9,0.8,1.7,1.7,1.7c0.9,0,1.7-0.8,1.7-1.7
						C123.1,297.3,122.3,296.5,121.4,296.5z"/>
				</g>
				<g>
					<path class="check-in-st6" d="M126.3,298.9h-2.6v-1.4h2.6c0.2,0,0.4-0.2,0.4-0.4v-5.6c0-0.2-0.2-0.4-0.4-0.4h-3.6c-0.1,0-0.2,0-0.3,0.1
						l-7.1,7.1c-0.3,0.3-0.8,0.5-1.3,0.5h-3.7c-1,0-1.8-0.8-1.8-1.8v-5.7c0-1,0.8-1.8,1.8-1.8h2.6v1.4h-2.6c-0.2,0-0.4,0.2-0.4,0.4
						v5.7c0,0.2,0.2,0.4,0.4,0.4h3.7c0.1,0,0.2,0,0.3-0.1l7.1-7.1c0.3-0.3,0.8-0.5,1.3-0.5h3.6c1,0,1.8,0.8,1.8,1.8v5.6
						C128.1,298.1,127.3,298.9,126.3,298.9z"/>
				</g>
			</g>
			<g>
				<g>
					<path d="M136.4,289.4c0.8,0,1.4,0.2,2,0.5c0.5,0.3,1,0.7,1.2,1.3c0.3,0.6,0.4,1.2,0.4,2c0,0.6-0.1,1.1-0.2,1.5
						c-0.2,0.5-0.4,0.9-0.7,1.2c-0.3,0.3-0.7,0.6-1.1,0.8c-0.4,0.2-1,0.3-1.5,0.3c-0.6,0-1.1-0.1-1.5-0.3c-0.5-0.2-0.8-0.4-1.1-0.8
						c-0.3-0.3-0.5-0.7-0.7-1.2c-0.2-0.5-0.2-1-0.2-1.5c0-0.6,0.1-1.1,0.2-1.6c0.2-0.5,0.4-0.9,0.7-1.2c0.3-0.3,0.7-0.6,1.1-0.8
						C135.4,289.5,135.9,289.4,136.4,289.4z M138.5,293.2c0-0.5-0.1-1-0.3-1.4c-0.2-0.4-0.4-0.7-0.7-0.9c-0.3-0.2-0.7-0.3-1.1-0.3
						c-0.3,0-0.6,0.1-0.8,0.2c-0.3,0.1-0.5,0.3-0.7,0.5c-0.2,0.2-0.3,0.5-0.4,0.8c-0.1,0.3-0.2,0.7-0.2,1.1c0,0.4,0.1,0.8,0.2,1.1
						c0.1,0.3,0.3,0.6,0.4,0.8c0.2,0.2,0.4,0.4,0.7,0.5c0.2,0.1,0.5,0.2,0.8,0.2c0.4,0,0.7-0.1,1.1-0.3c0.3-0.2,0.6-0.5,0.8-0.9
						C138.4,294.3,138.5,293.8,138.5,293.2z"/>
				</g>
				<g>
					<path d="M142.1,290.4l1.7,4.9l1.7-5c0.1-0.3,0.2-0.4,0.2-0.5c0-0.1,0.1-0.2,0.2-0.3c0.1-0.1,0.2-0.1,0.4-0.1
						c0.1,0,0.2,0,0.4,0.1c0.1,0.1,0.2,0.1,0.3,0.3c0.1,0.1,0.1,0.2,0.1,0.3c0,0.1,0,0.2,0,0.2c0,0.1,0,0.2-0.1,0.3
						c0,0.1-0.1,0.2-0.1,0.3l-1.8,4.8c-0.1,0.2-0.1,0.4-0.2,0.5c-0.1,0.2-0.1,0.3-0.2,0.4c-0.1,0.1-0.2,0.2-0.3,0.3
						c-0.1,0.1-0.3,0.1-0.5,0.1c-0.2,0-0.4,0-0.5-0.1c-0.1-0.1-0.3-0.2-0.3-0.3c-0.1-0.1-0.2-0.3-0.2-0.4c-0.1-0.2-0.1-0.3-0.2-0.5
						l-1.7-4.8c0-0.1-0.1-0.2-0.1-0.3c0-0.1-0.1-0.2-0.1-0.3c0-0.1,0-0.2,0-0.2c0-0.2,0.1-0.3,0.2-0.5c0.1-0.1,0.3-0.2,0.5-0.2
						c0.3,0,0.4,0.1,0.5,0.2C141.9,289.8,142,290.1,142.1,290.4z"/>
				</g>
				<g>
					<path d="M149.3,294.9h-1.6c-0.2,0-0.4-0.1-0.5-0.2c-0.1-0.1-0.2-0.3-0.2-0.4c0-0.2,0.1-0.3,0.2-0.4s0.3-0.2,0.6-0.2h1.6
						c0.2,0,0.4,0.1,0.6,0.2c0.1,0.1,0.2,0.3,0.2,0.4c0,0.2-0.1,0.3-0.2,0.4C149.7,294.8,149.6,294.9,149.3,294.9z"/>
				</g>
				<g>
					<path d="M155.8,295.4c0,0.2-0.1,0.4-0.2,0.5c-0.1,0.2-0.3,0.4-0.5,0.6c-0.2,0.2-0.5,0.3-0.8,0.4c-0.3,0.1-0.7,0.2-1.1,0.2
						c-0.8,0-1.5-0.2-2-0.7c-0.5-0.5-0.7-1.2-0.7-2c0-0.6,0.1-1.1,0.3-1.5c0.2-0.4,0.5-0.8,0.9-1c0.4-0.2,0.9-0.4,1.5-0.4
						c0.4,0,0.7,0.1,1,0.2c0.3,0.1,0.5,0.2,0.8,0.4c0.2,0.2,0.4,0.3,0.5,0.5c0.1,0.2,0.2,0.4,0.2,0.5c0,0.2-0.1,0.3-0.2,0.4
						c-0.1,0.1-0.3,0.2-0.4,0.2c-0.1,0-0.2,0-0.3-0.1c-0.1-0.1-0.2-0.2-0.3-0.3c-0.2-0.3-0.3-0.4-0.5-0.6c-0.2-0.1-0.4-0.2-0.7-0.2
						c-0.4,0-0.7,0.2-1,0.5s-0.4,0.7-0.4,1.3c0,0.3,0,0.5,0.1,0.7c0.1,0.2,0.2,0.4,0.3,0.6c0.1,0.2,0.3,0.3,0.4,0.3
						c0.2,0.1,0.4,0.1,0.6,0.1c0.3,0,0.5-0.1,0.7-0.2c0.2-0.1,0.4-0.3,0.5-0.6c0.1-0.2,0.2-0.3,0.3-0.4c0.1-0.1,0.2-0.1,0.4-0.1
						c0.2,0,0.3,0.1,0.4,0.2C155.8,295.1,155.8,295.2,155.8,295.4z"/>
				</g>
				<g>
					<path d="M158.1,290.3v2c0.2-0.2,0.3-0.4,0.5-0.5c0.2-0.1,0.3-0.2,0.5-0.3c0.2-0.1,0.4-0.1,0.6-0.1c0.3,0,0.7,0.1,0.9,0.2
						c0.3,0.1,0.5,0.4,0.6,0.6c0.1,0.2,0.2,0.3,0.2,0.5c0,0.2,0.1,0.4,0.1,0.7v2.6c0,0.3-0.1,0.5-0.2,0.6s-0.3,0.2-0.5,0.2
						c-0.5,0-0.7-0.3-0.7-0.8v-2.3c0-0.4-0.1-0.8-0.2-1c-0.1-0.2-0.4-0.4-0.7-0.4c-0.2,0-0.5,0.1-0.7,0.2c-0.2,0.1-0.3,0.3-0.4,0.6
						c-0.1,0.2-0.1,0.6-0.1,1.1v1.8c0,0.3-0.1,0.5-0.2,0.6c-0.1,0.1-0.3,0.2-0.5,0.2c-0.5,0-0.7-0.3-0.7-0.8v-5.9
						c0-0.3,0.1-0.5,0.2-0.6c0.1-0.1,0.3-0.2,0.5-0.2c0.2,0,0.4,0.1,0.5,0.2C158.1,289.8,158.1,290,158.1,290.3z"/>
				</g>
				<g>
					<path d="M163.7,290.8c-0.2,0-0.4-0.1-0.5-0.2c-0.1-0.1-0.2-0.3-0.2-0.5c0-0.2,0.1-0.4,0.2-0.5c0.1-0.1,0.3-0.2,0.5-0.2
						c0.2,0,0.3,0.1,0.5,0.2c0.1,0.1,0.2,0.3,0.2,0.5c0,0.2-0.1,0.4-0.2,0.5C164,290.8,163.9,290.8,163.7,290.8z M164.3,292.3v4
						c0,0.3-0.1,0.5-0.2,0.6c-0.1,0.1-0.3,0.2-0.5,0.2c-0.2,0-0.4-0.1-0.5-0.2c-0.1-0.1-0.2-0.3-0.2-0.6v-3.9c0-0.3,0.1-0.5,0.2-0.6
						c0.1-0.1,0.3-0.2,0.5-0.2c0.2,0,0.4,0.1,0.5,0.2C164.3,291.8,164.3,292,164.3,292.3z"/>
				</g>
				<g>
					<path d="M167,292.2v0.2c0.3-0.3,0.5-0.6,0.8-0.7c0.3-0.1,0.6-0.2,0.9-0.2c0.4,0,0.8,0.1,1.2,0.3c0.4,0.2,0.6,0.5,0.8,1
						c0.2,0.4,0.3,0.9,0.3,1.5c0,0.4-0.1,0.8-0.2,1.2c-0.1,0.4-0.3,0.6-0.5,0.9c-0.2,0.2-0.5,0.4-0.7,0.6c-0.3,0.1-0.6,0.2-0.9,0.2
						c-0.4,0-0.7-0.1-1-0.2c-0.3-0.2-0.5-0.4-0.8-0.7v2.1c0,0.6-0.2,0.9-0.7,0.9c-0.3,0-0.4-0.1-0.5-0.2c-0.1-0.2-0.1-0.4-0.1-0.7
						v-5.9c0-0.3,0.1-0.5,0.2-0.6c0.1-0.1,0.3-0.2,0.5-0.2c0.2,0,0.4,0.1,0.5,0.2C167,291.8,167,292,167,292.2z M169.7,294.2
						c0-0.4-0.1-0.7-0.2-0.9c-0.1-0.3-0.3-0.5-0.5-0.6c-0.2-0.1-0.4-0.2-0.6-0.2c-0.4,0-0.7,0.1-1,0.4c-0.3,0.3-0.4,0.7-0.4,1.3
						c0,0.5,0.1,1,0.4,1.3c0.3,0.3,0.6,0.5,1,0.5c0.2,0,0.4-0.1,0.6-0.2s0.3-0.3,0.5-0.6C169.6,294.9,169.7,294.6,169.7,294.2z"/>
				</g>
				<g>
					<path d="M175.6,296.4l-1.2-2l-0.7,0.7v1.1c0,0.3-0.1,0.5-0.2,0.6c-0.1,0.1-0.3,0.2-0.5,0.2c-0.2,0-0.4-0.1-0.5-0.2
						s-0.2-0.3-0.2-0.6v-5.8c0-0.3,0.1-0.5,0.2-0.7s0.3-0.2,0.5-0.2c0.2,0,0.4,0.1,0.5,0.2c0.1,0.1,0.2,0.4,0.2,0.6v3.3l1.5-1.6
						c0.2-0.2,0.3-0.3,0.4-0.4c0.1-0.1,0.2-0.1,0.4-0.1c0.2,0,0.3,0.1,0.4,0.2c0.1,0.1,0.2,0.2,0.2,0.4c0,0.2-0.2,0.5-0.6,0.8
						l-0.7,0.7l1.4,2.2c0.1,0.2,0.2,0.3,0.2,0.4c0,0.1,0.1,0.2,0.1,0.2c0,0.2-0.1,0.4-0.2,0.5c-0.1,0.1-0.3,0.2-0.5,0.2
						c-0.2,0-0.3,0-0.4-0.1C175.9,296.8,175.7,296.7,175.6,296.4z"/>
				</g>
				<g>
					<path d="M181.1,296.3c-0.3,0.3-0.7,0.5-1,0.6c-0.3,0.1-0.7,0.2-1,0.2c-0.4,0-0.7-0.1-0.9-0.2c-0.3-0.1-0.5-0.3-0.6-0.6
						c-0.1-0.2-0.2-0.5-0.2-0.8c0-0.4,0.1-0.7,0.4-1c0.2-0.3,0.6-0.4,1-0.5c0.1,0,0.3-0.1,0.6-0.1c0.3-0.1,0.6-0.1,0.9-0.2
						c0.2-0.1,0.5-0.1,0.8-0.2c0-0.4-0.1-0.6-0.2-0.8c-0.1-0.2-0.4-0.3-0.8-0.3c-0.3,0-0.6,0-0.8,0.1c-0.2,0.1-0.3,0.2-0.5,0.4
						c-0.1,0.2-0.2,0.3-0.3,0.4c-0.1,0.1-0.2,0.1-0.3,0.1c-0.2,0-0.3,0-0.4-0.1s-0.2-0.2-0.2-0.4c0-0.2,0.1-0.5,0.3-0.7
						c0.2-0.2,0.4-0.4,0.8-0.6c0.4-0.1,0.8-0.2,1.3-0.2c0.6,0,1.1,0.1,1.4,0.2s0.6,0.4,0.7,0.7c0.1,0.3,0.2,0.7,0.2,1.2
						c0,0.3,0,0.6,0,0.8c0,0.2,0,0.5,0,0.7c0,0.3,0,0.5,0.1,0.8c0.1,0.3,0.1,0.5,0.1,0.5c0,0.1-0.1,0.3-0.2,0.4
						c-0.1,0.1-0.3,0.2-0.4,0.2c-0.1,0-0.3-0.1-0.4-0.2C181.4,296.7,181.3,296.5,181.1,296.3z M181,294.3c-0.2,0.1-0.5,0.2-0.9,0.2
						c-0.4,0.1-0.6,0.1-0.8,0.2c-0.1,0-0.3,0.1-0.4,0.2s-0.2,0.3-0.2,0.5c0,0.2,0.1,0.4,0.2,0.5c0.2,0.1,0.4,0.2,0.6,0.2
						c0.3,0,0.5-0.1,0.7-0.2c0.2-0.1,0.4-0.3,0.5-0.5c0.1-0.2,0.2-0.5,0.2-1V294.3z"/>
				</g>
				<g>
					<path d="M187.2,296.3c-0.3,0.3-0.7,0.5-1,0.6c-0.3,0.1-0.7,0.2-1,0.2c-0.4,0-0.7-0.1-0.9-0.2c-0.3-0.1-0.5-0.3-0.6-0.6
						c-0.1-0.2-0.2-0.5-0.2-0.8c0-0.4,0.1-0.7,0.4-1c0.2-0.3,0.6-0.4,1-0.5c0.1,0,0.3-0.1,0.6-0.1c0.3-0.1,0.6-0.1,0.9-0.2
						c0.2-0.1,0.5-0.1,0.8-0.2c0-0.4-0.1-0.6-0.2-0.8c-0.1-0.2-0.4-0.3-0.8-0.3c-0.3,0-0.6,0-0.8,0.1c-0.2,0.1-0.3,0.2-0.5,0.4
						c-0.1,0.2-0.2,0.3-0.3,0.4c-0.1,0.1-0.2,0.1-0.3,0.1c-0.2,0-0.3,0-0.4-0.1s-0.2-0.2-0.2-0.4c0-0.2,0.1-0.5,0.3-0.7
						c0.2-0.2,0.4-0.4,0.8-0.6c0.4-0.1,0.8-0.2,1.3-0.2c0.6,0,1.1,0.1,1.4,0.2c0.3,0.1,0.6,0.4,0.7,0.7c0.1,0.3,0.2,0.7,0.2,1.2
						c0,0.3,0,0.6,0,0.8c0,0.2,0,0.5,0,0.7c0,0.3,0,0.5,0.1,0.8c0.1,0.3,0.1,0.5,0.1,0.5c0,0.1-0.1,0.3-0.2,0.4
						c-0.1,0.1-0.3,0.2-0.4,0.2c-0.1,0-0.3-0.1-0.4-0.2C187.5,296.7,187.4,296.5,187.2,296.3z M187.1,294.3
						c-0.2,0.1-0.5,0.2-0.9,0.2c-0.4,0.1-0.6,0.1-0.8,0.2c-0.1,0-0.3,0.1-0.4,0.2s-0.2,0.3-0.2,0.5c0,0.2,0.1,0.4,0.2,0.5
						c0.2,0.1,0.4,0.2,0.6,0.2c0.3,0,0.5-0.1,0.7-0.2c0.2-0.1,0.4-0.3,0.5-0.5c0.1-0.2,0.2-0.5,0.2-1V294.3z"/>
				</g>
				<g>
					<path d="M191.2,295.1v1.1c0,0.3-0.1,0.5-0.2,0.6c-0.1,0.1-0.3,0.2-0.5,0.2c-0.2,0-0.4-0.1-0.5-0.2s-0.2-0.3-0.2-0.6v-3.8
						c0-0.6,0.2-0.9,0.7-0.9c0.2,0,0.4,0.1,0.5,0.2c0.1,0.1,0.2,0.4,0.2,0.6c0.2-0.3,0.3-0.5,0.5-0.6c0.2-0.1,0.4-0.2,0.7-0.2
						c0.3,0,0.6,0.1,0.8,0.2c0.3,0.1,0.4,0.3,0.4,0.6c0,0.2-0.1,0.3-0.2,0.4c-0.1,0.1-0.2,0.2-0.4,0.2c-0.1,0-0.2,0-0.4-0.1
						c-0.2-0.1-0.4-0.1-0.5-0.1c-0.2,0-0.4,0.1-0.5,0.2c-0.1,0.1-0.2,0.3-0.3,0.5c-0.1,0.2-0.1,0.5-0.1,0.7
						C191.2,294.3,191.2,294.7,191.2,295.1z"/>
				</g>
				<g>
					<path d="M194.6,291.6h0.2v-0.8c0-0.2,0-0.4,0-0.5c0-0.1,0-0.2,0.1-0.3c0.1-0.1,0.1-0.2,0.2-0.2c0.1-0.1,0.2-0.1,0.3-0.1
						c0.2,0,0.3,0.1,0.5,0.2c0.1,0.1,0.2,0.2,0.2,0.3c0,0.1,0,0.3,0,0.5v0.9h0.5c0.2,0,0.3,0,0.4,0.1c0.1,0.1,0.2,0.2,0.2,0.4
						c0,0.2-0.1,0.3-0.2,0.4c-0.1,0.1-0.4,0.1-0.6,0.1h-0.3v2.5c0,0.2,0,0.4,0,0.5c0,0.1,0.1,0.2,0.1,0.3c0.1,0.1,0.2,0.1,0.3,0.1
						c0.1,0,0.2,0,0.3,0c0.1,0,0.2,0,0.3,0c0.1,0,0.2,0,0.3,0.1c0.1,0.1,0.1,0.2,0.1,0.3c0,0.2-0.1,0.4-0.4,0.5
						c-0.2,0.1-0.6,0.2-1,0.2c-0.4,0-0.8-0.1-1-0.2c-0.2-0.1-0.4-0.3-0.4-0.6c-0.1-0.3-0.1-0.6-0.1-1v-2.6h-0.2
						c-0.2,0-0.3,0-0.5-0.1c-0.1-0.1-0.2-0.2-0.2-0.4c0-0.1,0.1-0.3,0.2-0.4C194.2,291.6,194.4,291.6,194.6,291.6z"/>
				</g>
			</g>
			<g>
				<path d="M238.8,327.7c-1.4-4.7-4.5-8.9-8.4-11.7L204,296.4v52.2c0,1.8-1.5,3.3-3.3,3.3h-6.3c-1.1,0-2-0.7-2.3-1.8l-6.5-22.7
					c-1.5-5.1-6.7-8.2-11.8-7.1l-3.9,0.8c-2.8,0.6-5.3,2.3-6.8,4.8c-1.5,2.5-1.9,5.5-1.1,8.2l7.1,24.3c1.5,5.5,4.9,10.2,9.6,13.4
					l30.8,20.6c1.6-1.1,3.1-2.4,4.7-3.6l-32.4-21.6c-3.6-2.4-6.2-6-7.3-10.2l-7.1-24.4c-0.4-1.3-0.2-2.6,0.5-3.8
					c0.7-1.1,1.8-1.9,3.1-2.2l3.9-0.8c0.3-0.1,0.6-0.1,0.9-0.1c2,0,3.8,1.3,4.4,3.3l6.5,22.7c1,3.4,4.1,5.8,7.7,5.8h6.3
					c4.9,0,8.9-4,8.9-8.9v-41.1l17.5,13c3,2.2,5.3,5.3,6.4,8.9l7.1,23.4c1.2-2.9,2.2-5.9,3.1-9L238.8,327.7z"/>
			</g>
		</g>
	</g>
</g>
</svg>
