<?xml version="1.0" encoding="utf-8"?>
<!-- Generator: Adobe Illustrator 27.2.0, SVG Export Plug-In . SVG Version: 6.00 Build 0)  -->
<svg version="1.1" id="Laag_1" xmlns="http://www.w3.org/2000/svg" xmlns:xlink="http://www.w3.org/1999/xlink" x="0px" y="0px"
	 viewBox="0 0 425.4 92.6" style="enable-background:new 0 0 425.4 92.6;" xml:space="preserve">
<style type="text/css">
	.st0{fill:#FFFFFF;}
	.st1{fill:url(#SVGID_1_);}
</style>
<g>
	<path class="st0" d="M211.5,79.5c-0.7,0-1.3-0.6-1.3-1.3V14.3c0-0.7,0.6-1.3,1.3-1.3s1.3,0.6,1.3,1.3v63.9
		C212.8,78.9,212.2,79.5,211.5,79.5z"/>
</g>
<radialGradient id="SVGID_1_" cx="105.226" cy="42.4643" r="69.482" gradientTransform="matrix(1 0 0 -1 0 88.6383)" gradientUnits="userSpaceOnUse">
	<stop  offset="0.35" style="stop-color:#E5316C"/>
	<stop  offset="1" style="stop-color:#B6006C"/>
</radialGradient>
<path class="st1" d="M133,26.5l-7.6,13.1c-1.6-4.8-4.8-9.1-9.6-11.8c-2-1.1-4-1.9-6.1-2.4l-4.5-9l-4.5,9
	c-5.7,1.2-10.8,4.7-13.9,10.1L65.2,73.1c-3.5,6.1-11.3,8.2-17.4,4.7c-2-1.2-3.6-2.8-4.7-4.7L13.9,22.5c-1.8-3.1-0.7-6.9,2.3-8.7
	s6.9-0.7,8.7,2.3l28.6,49.5c0.3,0.5,1,0.5,1.2,0l21-36.4c9.4-16.3,30.2-21.8,46.5-12.5C126.6,19.3,130.2,22.7,133,26.5z M196.6,69.9
	l-29.2-50.6c-1.1-1.9-2.6-3.5-4.7-4.7c-6.1-3.5-13.9-1.4-17.4,4.7l-21.7,37.5c-3.1,5.4-8.2,8.9-13.9,10.1l-4.5,9l-4.5-9
	c-2.1-0.5-4.2-1.2-6.1-2.4c-4.7-2.7-8-7-9.6-11.8l-7.5,13.1c2.8,3.9,6.3,7.2,10.7,9.8c16.3,9.4,37.1,3.8,46.5-12.4l21-36.4
	c0.3-0.5,0.9-0.5,1.2,0l28.6,49.5c1.8,3.1,5.7,4.1,8.7,2.3C197.3,76.9,198.3,73,196.6,69.9z"/>
<g>
	<g>
		<path class="st0" d="M242.7,20.2c0.2-0.7,1-1.1,1.7-0.8c0.7,0.2,1,1.1,0.8,1.8l-6.9,18.6c-0.6,1.5-1.5,2.3-2.8,2.3
			s-2.2-0.8-2.8-2.3l-6.9-18.6c-0.2-0.7,0.1-1.5,0.8-1.7s1.4,0.1,1.7,0.8l6.9,19c0.1,0.1,0.2,0.3,0.4,0.3s0.4-0.2,0.4-0.3
			L242.7,20.2z"/>
		<path class="st0" d="M259.8,32.6c0,1.1-0.6,1.8-1.9,1.8h-9.5v0.5c0,3,1.9,4.7,4.7,4.7c1.1,0,2.4-0.3,3.9-0.8
			c1.1-0.4,1.8,0.3,1.8,1c0,0.4-0.2,0.8-0.7,1.1c-1,0.6-3.2,1-5.1,1c-4.4,0-7-2.8-7.2-6.8c-0.1-1.2-0.1-2.8,0-3.8
			c0.4-4.1,3.1-6.6,7-6.6c4.2,0,6.8,2.9,6.8,6.9L259.8,32.6L259.8,32.6z M256.8,32.3c0.2,0,0.4-0.1,0.4-0.4c0.2-2.9-1.6-4.8-4.3-4.8
			c-3.1,0-4.7,2-4.6,5.2H256.8z"/>
		<path class="st0" d="M273.3,26.3c0,0.5-0.4,1.2-1.3,1.2c-0.6,0-1.4-0.2-2.5-0.2c-1.8,0-2.6,0.9-2.6,2.9v10.4
			c0,0.7-0.6,1.3-1.3,1.3c-0.7,0-1.3-0.6-1.3-1.3V29.8c0-3.1,1.8-5,5.2-5c1.1,0,2.2,0.2,2.8,0.4C273,25.3,273.3,25.7,273.3,26.3z"/>
		<path class="st0" d="M290.7,26.8l-4.9,13c-0.5,1.3-1.4,2-2.5,2s-1.9-0.7-2.4-2l-4.9-13c-0.4-1,0.3-1.8,1.2-1.8
			c0.5,0,1,0.4,1.2,0.9l4.8,13.2c0,0.1,0.1,0.1,0.2,0.1s0.1,0,0.2-0.1l4.7-13c0.2-0.6,0.7-1,1.3-1C290.4,25,291,25.9,290.7,26.8z"/>
		<path class="st0" d="M307.7,31c0.1,1.3,0.1,3.2,0,4.5c-0.2,3.7-3.1,6.4-7.1,6.4c-3.9,0-6.9-2.7-7.1-6.4c-0.1-1.3-0.1-3.2,0-4.5
			c0.2-3.7,3.2-6.3,7.1-6.3C304.6,24.8,307.5,27.3,307.7,31z M296.1,31.2c-0.1,1.1-0.1,3.1,0,4.2c0.2,2.5,1.9,4.2,4.5,4.2
			s4.3-1.7,4.5-4.2c0.1-1.1,0.1-3,0-4.2c-0.2-2.4-1.8-4.1-4.5-4.1S296.3,28.9,296.1,31.2z"/>
		<path class="st0" d="M325.7,32.6c0,1.1-0.6,1.8-1.9,1.8h-9.5v0.5c0,3,1.9,4.7,4.7,4.7c1.1,0,2.4-0.3,3.9-0.8
			c1.1-0.4,1.8,0.3,1.8,1c0,0.4-0.2,0.8-0.7,1.1c-1,0.6-3.2,1-5,1c-4.4,0-7-2.8-7.2-6.8c-0.1-1.2-0.1-2.8,0-3.8
			c0.4-4.1,3.1-6.6,7-6.6c4.2,0,6.8,2.9,6.8,6.9v1H325.7z M322.8,32.3c0.2,0,0.4-0.1,0.4-0.4c0.2-2.9-1.6-4.8-4.3-4.8
			c-3.1,0-4.7,2-4.6,5.2H322.8z"/>
		<path class="st0" d="M339.2,26.3c0,0.5-0.4,1.2-1.3,1.2c-0.6,0-1.4-0.2-2.5-0.2c-1.8,0-2.6,0.9-2.6,2.9v10.4
			c0,0.7-0.6,1.3-1.3,1.3c-0.7,0-1.3-0.6-1.3-1.3V29.8c0-3.1,1.8-5,5.2-5c1.1,0,2.2,0.2,2.8,0.4C338.9,25.3,339.2,25.7,339.2,26.3z"
			/>
		<path class="st0" d="M351.2,26.3c0,0.5-0.4,1.2-1.3,1.2c-0.6,0-1.4-0.2-2.5-0.2c-1.8,0-2.6,0.9-2.6,2.9v10.4
			c0,0.7-0.6,1.3-1.3,1.3c-0.7,0-1.3-0.6-1.3-1.3V29.8c0-3.1,1.8-5,5.2-5c1.1,0,2.2,0.2,2.8,0.4C350.9,25.3,351.2,25.7,351.2,26.3z"
			/>
		<path class="st0" d="M367.3,32.6c0,1.1-0.6,1.8-1.9,1.8h-9.5v0.5c0,3,1.9,4.7,4.7,4.7c1.1,0,2.4-0.3,3.9-0.8
			c1.1-0.4,1.8,0.3,1.8,1c0,0.4-0.2,0.8-0.7,1.1c-1,0.6-3.2,1-5,1c-4.4,0-7-2.8-7.2-6.8c-0.1-1.2-0.1-2.8,0-3.8
			c0.4-4.1,3.1-6.6,7-6.6c4.2,0,6.8,2.9,6.8,6.9v1H367.3z M364.3,32.3c0.2,0,0.4-0.1,0.4-0.4c0.2-2.9-1.6-4.8-4.3-4.8
			c-3.1,0-4.7,2-4.6,5.2H364.3z"/>
		<path class="st0" d="M385.1,40.5c0,4.3-2.6,7.1-7.9,7.1c-1,0-2.2-0.1-3.6-0.3c-0.6-0.1-1.1-0.5-1.1-1.2s0.5-1.4,1.5-1.2
			c1.2,0.2,2.3,0.4,3.3,0.4c3.6,0,5.3-1.7,5.3-4.8c-1.1,0.5-2.8,1.1-4.7,1.1c-3.9,0-6.3-2.6-6.5-6.3c-0.1-1.2-0.1-2.8,0-4
			c0.2-3.8,2.8-6.4,6.6-6.4c3.3,0,5.8,1.2,6.6,1.9c0.4,0.2,0.5,0.6,0.5,1.1L385.1,40.5L385.1,40.5z M373.9,31.4
			c-0.1,1.1,0,2.6,0,3.7c0.2,2.5,1.5,4.1,4,4.1s4-0.8,4.6-1.3v-9.5c-0.1-0.1-1.8-1.1-4.3-1.1C375.4,27.2,374.1,28.9,373.9,31.4z"/>
		<path class="st0" d="M391.8,22.4c-0.9,0-1.6-0.8-1.6-1.6c0-0.9,0.7-1.6,1.6-1.6s1.6,0.7,1.6,1.6C393.4,21.7,392.7,22.4,391.8,22.4
			z M393.1,26.3v14.2c0,0.8-0.5,1.3-1.3,1.3c-0.7,0-1.3-0.6-1.3-1.3V26.3c0-0.7,0.5-1.3,1.3-1.3S393.1,25.6,393.1,26.3z"/>
		<path class="st0" d="M412.6,31c0.1,1.3,0.1,3.2,0,4.5c-0.2,3.7-3.1,6.4-7.1,6.4c-3.9,0-6.9-2.7-7.1-6.4c-0.1-1.3-0.1-3.2,0-4.5
			c0.2-3.7,3.2-6.3,7.1-6.3C409.5,24.8,412.4,27.3,412.6,31z M401,31.2c-0.1,1.1-0.1,3.1,0,4.2c0.2,2.5,1.9,4.2,4.5,4.2
			s4.3-1.7,4.5-4.2c0.1-1.1,0.1-3,0-4.2c-0.2-2.4-1.8-4.1-4.5-4.1S401.2,28.9,401,31.2z"/>
	</g>
	<g>
		<path class="st0" d="M240.6,65.6h-10.1l-2.4,6.6c-0.2,0.7-1,1-1.7,0.7c-0.7-0.2-0.9-1.1-0.7-1.7l6.6-18.4c0.6-1.7,1.8-2.4,3.3-2.4
			c1.4,0,2.7,0.8,3.2,2.4l6.6,18.4c0.2,0.6-0.1,1.4-0.7,1.7s-1.5-0.1-1.7-0.7L240.6,65.6z M231.4,63.1h8.4l-3.3-9.5
			c-0.1-0.4-0.4-0.6-0.8-0.6c-0.4,0-0.7,0.2-0.8,0.6L231.4,63.1z"/>
		<path class="st0" d="M271.1,71.8c0,0.8-0.5,1.3-1.3,1.3c-0.7,0-1.3-0.6-1.3-1.3v-9.1c0-2.9-1.3-4.2-3.6-4.2c-1.8,0-3,0.8-3.6,1.7
			v11.6c0,0.8-0.5,1.3-1.3,1.3c-0.7,0-1.3-0.6-1.3-1.3v-9.4c0-2.7-1.4-3.9-3.6-3.9c-2.5,0-3.5,1-3.6,1v12.2c0,0.8-0.5,1.3-1.3,1.3
			c-0.7,0-1.3-0.6-1.3-1.3V59c0-0.6,0.2-0.9,0.7-1.2c1.2-0.9,3.3-1.7,5.5-1.7c2.3,0,3.9,0.7,4.9,1.9c1-0.8,2.4-1.9,5-1.9
			c4.4,0,6.1,2.3,6.1,6.5L271.1,71.8L271.1,71.8z"/>
		<path class="st0" d="M287.5,68.3c0,3.1-2.5,5.1-6.2,5.1c-2.4,0-4.2-0.6-5.6-1.8c-0.5-0.4-0.6-1.2-0.2-1.7s1.1-0.7,1.8-0.2
			c1.1,0.8,2.1,1.4,4.4,1.4c2.2,0,3.4-1.1,3.4-2.6c0-1.1-0.7-1.8-2.5-2.3c-1.1-0.2-1.1-0.2-2.3-0.5c-3-0.8-4.5-2.1-4.5-4.5
			c0-3,2.4-4.9,5.9-4.9c1.8,0,3.6,0.6,4.5,1.4c0.6,0.5,0.5,1.4,0.2,1.8c-0.4,0.5-1.1,0.5-1.7,0.2c-1-0.6-2-1-3.1-1
			c-2.2,0-3.3,0.9-3.3,2.5c0,1,0.6,1.7,2.5,2.2c1,0.3,2.1,0.5,2.6,0.6C286.1,64.5,287.5,65.9,287.5,68.3z"/>
		<path class="st0" d="M296.6,73.3c-3.4,0-4.9-2.2-4.9-5.2V54.3c0-0.7,0.6-1.3,1.3-1.3c0.7,0,1.3,0.6,1.3,1.3v2.6h4.8
			c0.6,0,1.2,0.5,1.2,1.2s-0.6,1.2-1.2,1.2h-4.8v9c0,1.6,0.7,2.8,2.4,2.8c0.9,0,1.8-0.3,2.5-0.6c1-0.2,1.6,0.4,1.6,1.2
			c0,0.6-0.3,1-1,1.2C299,73.1,297.8,73.3,296.6,73.3z"/>
		<path class="st0" d="M317.8,64c0,1.1-0.6,1.8-1.9,1.8h-9.5v0.5c0,3,1.9,4.7,4.7,4.7c1.1,0,2.4-0.3,3.9-0.8c1.1-0.4,1.8,0.3,1.8,1
			c0,0.4-0.2,0.8-0.7,1.1c-1,0.6-3.2,1-5,1c-4.4,0-7-2.8-7.2-6.8c-0.1-1.2-0.1-2.8,0-3.8c0.4-4.1,3.1-6.6,7-6.6
			c4.2,0,6.8,2.9,6.8,6.9v1C317.7,64,317.8,64,317.8,64z M314.9,63.7c0.2,0,0.4-0.1,0.4-0.4c0.2-2.9-1.6-4.8-4.3-4.8
			c-3.1,0-4.7,2-4.6,5.2H314.9z"/>
		<path class="st0" d="M331.3,57.7c0,0.5-0.4,1.2-1.3,1.2c-0.6,0-1.4-0.2-2.5-0.2c-1.8,0-2.6,0.9-2.6,2.9V72c0,0.7-0.6,1.3-1.3,1.3
			c-0.7,0-1.3-0.6-1.3-1.3V61.2c0-3.1,1.8-5,5.2-5c1.1,0,2.2,0.2,2.8,0.3C331,56.7,331.3,57.1,331.3,57.7z"/>
		<path class="st0" d="M340.5,56.1c1.7,0,3.4,0.5,4.6,1v-5.3c0-0.7,0.6-1.3,1.3-1.3c0.8,0,1.3,0.6,1.3,1.3v18.6
			c0,0.4-0.1,0.7-0.5,1.1c-0.8,0.5-3.4,1.9-6.2,1.9c-4.2,0-6.7-2.5-7-6.4c-0.1-1.1-0.1-3.3,0-4.5C334.2,58.5,336.5,56.1,340.5,56.1z
			 M340.9,70.9c1.5,0,3.5-0.8,4.2-1.3v-10c-0.8-0.4-2.6-1.1-4.5-1.1c-2.7,0-4,1.4-4.2,4c-0.1,1-0.1,3.1,0,4.2
			C336.7,69.5,338.1,70.9,340.9,70.9z"/>
		<path class="st0" d="M365.5,70.5c0,0.5-0.1,0.8-0.5,1.1c-0.9,0.6-3.4,1.8-6.5,1.8c-4.2,0-6.4-2.2-6.4-5.4c0-2.8,2.1-5.1,6.4-5.1
			c1.5,0,2.8,0.2,4.4,0.7v-1.3c0-2.6-1.3-3.7-4-3.7c-1.5,0-2.9,0.5-3.8,0.8c-1.1,0.4-1.8-0.2-1.8-1c0-0.4,0.2-0.9,0.8-1.2
			c1-0.5,2.9-1,5-1c3.8,0,6.2,1.8,6.2,5.9L365.5,70.5L365.5,70.5z M363,69.8v-4.2c-1.6-0.4-2.8-0.7-4.4-0.7c-2.2,0-3.8,1.1-3.8,2.9
			c0,2,1.3,3.1,4.1,3.1C361.3,71,362.7,70.1,363,69.8z"/>
		<path class="st0" d="M393,71.8c0,0.8-0.5,1.3-1.3,1.3c-0.7,0-1.3-0.6-1.3-1.3v-9.1c0-2.9-1.3-4.2-3.6-4.2c-1.8,0-3,0.8-3.6,1.7
			v11.6c0,0.8-0.5,1.3-1.3,1.3c-0.7,0-1.3-0.6-1.3-1.3v-9.4c0-2.7-1.4-3.9-3.6-3.9c-2.5,0-3.5,1-3.6,1v12.2c0,0.8-0.5,1.3-1.3,1.3
			c-0.7,0-1.3-0.6-1.3-1.3V59c0-0.6,0.2-0.9,0.7-1.2c1.2-0.9,3.3-1.7,5.5-1.7c2.3,0,3.9,0.7,4.9,1.9c1-0.8,2.4-1.9,5-1.9
			c4.4,0,6.1,2.3,6.1,6.5L393,71.8L393,71.8z"/>
	</g>
</g>
</svg>
